<svg width="208" height="140" viewBox="0 0 311 209" fill="none" xmlns="http://www.w3.org/2000/svg">
<g clip-path="url(#clip0_10636_13011)">
<g filter="url(#filter0_dd_10636_13011)">
<path d="M31.0977 17.3373C31.0977 15.7779 31.6934 14.2825 32.7538 13.1798C33.8143 12.0772 35.2525 11.4578 36.7522 11.4578H279.898C281.397 11.4578 282.836 12.0772 283.896 13.1798C284.956 14.2825 285.552 15.7779 285.552 17.3373V196.663C285.552 198.222 284.956 199.717 283.896 200.82C282.836 201.923 281.397 202.542 279.898 202.542H36.7522C35.2525 202.542 33.8143 201.923 32.7538 200.82C31.6934 199.717 31.0977 198.222 31.0977 196.663V17.3373Z" fill="white"/>
</g>
<path d="M113.089 156.976H62.1984C61.4485 156.976 60.7294 157.286 60.1992 157.837C59.669 158.388 59.3711 159.136 59.3711 159.916V202.542H115.917V159.916C115.917 159.136 115.619 158.388 115.088 157.837C114.558 157.286 113.839 156.976 113.089 156.976ZM183.771 156.976H132.88C132.13 156.976 131.411 157.286 130.881 157.837C130.351 158.388 130.053 159.136 130.053 159.916V202.542H186.598V159.916C186.598 159.136 186.3 158.388 185.77 157.837C185.24 157.286 184.521 156.976 183.771 156.976ZM254.453 156.976H203.562C202.812 156.976 202.093 157.286 201.563 157.837C201.033 158.388 200.735 159.136 200.735 159.916V202.542H257.28V159.916C257.28 159.136 256.982 158.388 256.452 157.837C255.922 157.286 255.203 156.976 254.453 156.976Z" fill="#F6F6F6"/>
<path d="M279.898 11.4578H36.7522C35.2525 11.4578 33.8143 12.0772 32.7538 13.1798C31.6934 14.2825 31.0977 15.7779 31.0977 17.3373V137.867H285.552V17.3373C285.552 15.7779 284.956 14.2825 283.896 13.1798C282.836 12.0772 281.397 11.4578 279.898 11.4578Z" fill="#D4BBFF"/>
<path d="M48.0625 98.1807C48.0625 97.4011 48.3604 96.6533 48.8906 96.102C49.4208 95.5507 50.1399 95.241 50.8898 95.241H98.9534C99.7033 95.241 100.422 95.5507 100.953 96.102C101.483 96.6533 101.781 97.4011 101.781 98.1807C101.781 98.9604 101.483 99.7081 100.953 100.259C100.422 100.811 99.7033 101.12 98.9534 101.12H50.8898C50.1399 101.12 49.4208 100.811 48.8906 100.259C48.3604 99.7081 48.0625 98.9604 48.0625 98.1807ZM48.0625 111.41C48.0625 110.63 48.3604 109.882 48.8906 109.331C49.4208 108.78 50.1399 108.47 50.8898 108.47H114.503C115.253 108.47 115.972 108.78 116.503 109.331C117.033 109.882 117.331 110.63 117.331 111.41C117.331 112.189 117.033 112.937 116.503 113.488C115.972 114.04 115.253 114.349 114.503 114.349H50.8898C50.1399 114.349 49.4208 114.04 48.8906 113.488C48.3604 112.937 48.0625 112.189 48.0625 111.41Z" fill="white"/>
<mask id="mask0_10636_13011" style="mask-type:luminance" maskUnits="userSpaceOnUse" x="176" y="11" width="110" height="127">
<path fill-rule="evenodd" clip-rule="evenodd" d="M176.703 11.4578H285.553V137.867H176.703V11.4578Z" fill="white"/>
</mask>
<g mask="url(#mask0_10636_13011)">
<path fill-rule="evenodd" clip-rule="evenodd" d="M288.945 67.5705V105.001L278.98 109.184V109.195L277.172 109.949L267.387 85.7573V37.9495C273.478 40.0764 279.48 44.2479 282.703 52.1838L288.945 67.5705Z" fill="#E0E0E0"/>
<path fill-rule="evenodd" clip-rule="evenodd" d="M267.386 38.0347V164.966H198.24V121.33L183.77 73.7807C185.893 55.7497 197.35 47.0407 210.596 42.5164C212.258 41.9488 213.938 41.44 215.633 40.9906H215.653C227.14 37.9627 239.214 37.4776 247.304 36.3943L248.183 36.2679C248.183 36.2679 248.415 36.2253 248.851 36.1841C250.509 35.9932 252.177 35.902 253.846 35.9107C257.505 35.9107 262.471 36.3208 267.386 38.0347Z" fill="#F6F6F6"/>
<path fill-rule="evenodd" clip-rule="evenodd" d="M183.77 121.496H198.141L183.77 73.9482V121.496Z" fill="#E0E0E0"/>
<path fill-rule="evenodd" clip-rule="evenodd" d="M288.944 105.193V138.028L283.235 159.432L279.542 164.967H269.135L268.693 161.741L274.624 151.587L278.954 122.997C279.635 118.495 279.627 113.91 278.93 109.412V109.4L288.944 105.193ZM198.142 121.494V150.473L187.556 164.966L185.989 145.587C185.391 138.198 185.801 130.73 187.517 123.536C187.679 122.852 187.852 122.172 188.036 121.496L198.142 121.494Z" fill="#FFD7D9"/>
<path fill-rule="evenodd" clip-rule="evenodd" d="M247.789 11.4578V11.618C247.789 13.3877 247.165 15.0942 246.046 16.3525L242.799 20.0213L242.563 20.2873V11.4578H247.789ZM248.184 35.8093L247.577 36.3737L216.644 41.1993L214.867 42.0033V20.277L221.41 27.7881C222.337 28.8525 223.469 29.7035 224.732 30.2867C225.994 30.8699 227.36 31.1723 228.742 31.1747H231.24C232.799 31.1763 234.337 30.7934 235.727 30.0575C237.116 29.3217 238.318 28.2538 239.234 26.9415C241.265 36.7603 248.184 35.8093 248.184 35.8093Z" fill="#FFD7D9"/>
<path fill-rule="evenodd" clip-rule="evenodd" d="M248.44 35.9107C243.603 43.313 235.61 48.1371 226.576 48.1371C220.566 48.1371 215.018 45.9999 210.551 42.4076C212.196 41.8255 213.86 41.3033 215.539 40.8421H215.559L228.621 38.7975L246.908 36.1268L247.78 35.9959C247.78 35.9959 248.009 35.9533 248.44 35.9107ZM244.525 11.4578C244.455 14.3216 243.885 17.1485 242.844 19.8008C242.577 20.5181 242.269 21.2236 241.917 21.9101L240.062 25.598C239.817 26.0895 239.527 26.5556 239.197 26.99V27.0003C237.332 29.5873 234.332 31.1556 231.087 31.1556H228.552C227.159 31.1576 225.781 30.8637 224.501 30.292C223.222 29.7202 222.068 28.8827 221.111 27.8308L214.475 20.4549V11.4592L244.525 11.4578Z" fill="#FFD7D9"/>
<path fill-rule="evenodd" clip-rule="evenodd" d="M209.215 11.4578H214.869V21.7469L210.243 13.692C209.835 12.9814 209.491 12.2335 209.215 11.4578Z" fill="#FFD7D9"/>
<path fill-rule="evenodd" clip-rule="evenodd" d="M224.27 20.1962C224.27 20.1962 227.31 17.1741 230.208 18.6631C233.297 17.7606 234.12 19.5656 234.722 20.6475C231.687 24.112 224.94 21.3177 224.27 20.1962Z" fill="#A2191F"/>
<path fill-rule="evenodd" clip-rule="evenodd" d="M214.477 63.8883L248.445 59.0054V100.309L214.477 105.193V63.8883Z" fill="#9EF0F0"/>
<path fill-rule="evenodd" clip-rule="evenodd" d="M248.443 59.0039V80.3657L237.581 93.646L228.238 82.231L231.787 77.2951H224.369C221.483 73.1211 219.45 68.3769 218.394 63.3547L248.443 59.0039ZM239.3 101.366L226.655 103.155C226.156 102.725 225.672 102.276 225.206 101.808L221.514 98.0454L224.782 94.7117H218.234L216.949 93.4182L219.226 91.1046H214.683L214.477 90.8944V82.7777C217.075 82.8292 220.302 83.3245 224.006 84.743C227.605 86.1195 230.853 88.3328 233.504 91.2139C236.155 94.0951 238.137 97.5665 239.3 101.366Z" fill="#007D79"/>
</g>
<g filter="url(#filter1_dd_10636_13011)">
<path d="M16.9609 32.0363C16.9609 30.4769 17.5567 28.9814 18.6171 27.8788C19.6775 26.7762 21.1158 26.1567 22.6155 26.1567H134.293C135.792 26.1567 137.231 26.7762 138.291 27.8788C139.352 28.9814 139.947 30.4769 139.947 32.0363V74.6628C139.947 76.2221 139.352 77.7176 138.291 78.8202C137.231 79.9228 135.792 80.5423 134.293 80.5423H22.6155C21.1158 80.5423 19.6775 79.9228 18.6171 78.8202C17.5567 77.7176 16.9609 76.2221 16.9609 74.6628V32.0363Z" fill="white"/>
</g>
<path fill-rule="evenodd" clip-rule="evenodd" d="M37.9389 47.4464C38.7729 46.657 40.0085 46.4248 41.2977 46.4248C46.3585 46.4248 49.5265 50.9403 50.0778 55.1236C50.2248 56.2407 50.1994 57.393 49.9576 58.494C50.3506 58.7042 50.7464 58.9055 51.1437 59.0996C53.9201 60.4519 56.6498 61.2823 58.8551 61.2823H116.209V64.2221H58.8551C56.0575 64.2221 52.8938 63.1976 49.9449 61.7615C49.5648 61.5767 49.1878 61.3851 48.814 61.1868L48.7235 61.3132C47.4074 63.1359 45.2658 64.2236 42.4173 64.2236H29.6889L29.6875 61.2838H42.4173C44.3921 61.2838 45.598 60.6106 46.3161 59.7404C44.7484 58.7592 43.2503 57.6623 41.8335 56.4582C40.7026 55.4896 39.7074 54.5003 38.9284 53.5478C38.1651 52.6159 37.5332 51.6252 37.242 50.6522C36.9395 49.635 36.9607 48.3739 37.9389 47.4464ZM47.3283 56.9359C47.3565 56.4847 47.3424 56.0099 47.2774 55.5234C46.849 52.2764 44.4925 49.3646 41.2977 49.3646C40.7789 49.3646 40.4128 49.4145 40.1668 49.4822C40.0738 49.5058 39.9837 49.5403 39.8982 49.585C39.9078 49.6513 39.9224 49.7167 39.942 49.7805C40.0678 50.1995 40.4198 50.833 41.0814 51.6429C41.726 52.4307 42.5926 53.2994 43.6302 54.1887C44.8044 55.1872 46.0397 56.1054 47.3283 56.9374V56.9359ZM39.8968 49.516C39.8982 49.516 39.8982 49.5277 39.894 49.5439C39.894 49.5218 39.8954 49.516 39.8968 49.516Z" fill="#525252"/>
<path fill-rule="evenodd" clip-rule="evenodd" d="M120.469 70.253V36.4458H122.677V70.253H120.469Z" fill="#009D9A"/>
</g>
<defs>
<filter id="filter0_dd_10636_13011" x="19.1677" y="1.08376" width="278.313" height="214.944" filterUnits="userSpaceOnUse" color-interpolation-filters="sRGB">
<feFlood flood-opacity="0" result="BackgroundImageFix"/>
<feColorMatrix in="SourceAlpha" type="matrix" values="0 0 0 0 0 0 0 0 0 0 0 0 0 0 0 0 0 0 127 0" result="hardAlpha"/>
<feOffset dy="1.556"/>
<feGaussianBlur stdDeviation="5.965"/>
<feColorMatrix type="matrix" values="0 0 0 0 0 0 0 0 0 0 0 0 0 0 0 0 0 0 0.09 0"/>
<feBlend mode="normal" in2="BackgroundImageFix" result="effect1_dropShadow_10636_13011"/>
<feColorMatrix in="SourceAlpha" type="matrix" values="0 0 0 0 0 0 0 0 0 0 0 0 0 0 0 0 0 0 127 0" result="hardAlpha"/>
<feOffset dy="1.037"/>
<feGaussianBlur stdDeviation="0.778"/>
<feColorMatrix type="matrix" values="0 0 0 0 0 0 0 0 0 0 0 0 0 0 0 0 0 0 0.12 0"/>
<feBlend mode="normal" in2="effect1_dropShadow_10636_13011" result="effect2_dropShadow_10636_13011"/>
<feBlend mode="normal" in="SourceGraphic" in2="effect2_dropShadow_10636_13011" result="shape"/>
</filter>
<filter id="filter1_dd_10636_13011" x="5.03094" y="15.7827" width="146.848" height="78.2455" filterUnits="userSpaceOnUse" color-interpolation-filters="sRGB">
<feFlood flood-opacity="0" result="BackgroundImageFix"/>
<feColorMatrix in="SourceAlpha" type="matrix" values="0 0 0 0 0 0 0 0 0 0 0 0 0 0 0 0 0 0 127 0" result="hardAlpha"/>
<feOffset dy="1.556"/>
<feGaussianBlur stdDeviation="5.965"/>
<feColorMatrix type="matrix" values="0 0 0 0 0 0 0 0 0 0 0 0 0 0 0 0 0 0 0.09 0"/>
<feBlend mode="normal" in2="BackgroundImageFix" result="effect1_dropShadow_10636_13011"/>
<feColorMatrix in="SourceAlpha" type="matrix" values="0 0 0 0 0 0 0 0 0 0 0 0 0 0 0 0 0 0 127 0" result="hardAlpha"/>
<feOffset dy="1.037"/>
<feGaussianBlur stdDeviation="0.778"/>
<feColorMatrix type="matrix" values="0 0 0 0 0 0 0 0 0 0 0 0 0 0 0 0 0 0 0.12 0"/>
<feBlend mode="normal" in2="effect1_dropShadow_10636_13011" result="effect2_dropShadow_10636_13011"/>
<feBlend mode="normal" in="SourceGraphic" in2="effect2_dropShadow_10636_13011" result="shape"/>
</filter>
<clipPath id="clip0_10636_13011">
<rect width="311" height="209" fill="white"/>
</clipPath>
</defs>
</svg>
