<svg width="36" height="38" viewBox="0 0 36 38" fill="none" xmlns="http://www.w3.org/2000/svg">
<path d="M34.918 33.9869C31.5465 33.9174 28.7989 34.0068 26.0372 34.3817C31.189 31.5728 34.2225 26.3888 34.8444 21.0251C36.3711 10.1173 27.4637 0.674706 16.6118 1.41972C10.8764 1.81146 5.98498 4.98624 3.15805 9.53083C-4.74003 20.5611 2.80661 36.3322 18.7818 37.2895C24.3748 37.6246 27.9222 37.5873 34.6365 35.8943C36.0624 35.5347 36.3265 34.016 34.918 33.9869ZM16.6705 2.28518C25.6664 1.67337 33.4935 8.49006 34.1081 17.4874C34.4058 21.8469 32.9879 26.0618 30.1152 29.3554C23.3385 37.1263 11.2368 36.7296 4.92793 28.7215C-3.11146 18.5262 3.49782 3.18509 16.6705 2.28518Z" fill="white"/>
<path d="M9.30716 17.8283C10.7585 17.8283 12.2939 17.0806 13.4356 15.7635C16.991 11.6637 13.8524 6.72816 9.97603 7.37519C8.55411 7.61189 7.11694 8.61548 6.1317 10.0597C3.71759 13.5979 5.86928 17.8283 9.30716 17.8283ZM10.6596 8.18557C12.82 8.18557 14.897 10.5324 13.8359 13.4182C13.6022 11.4057 10.8719 9.91905 7.71011 12.4423C6.89429 13.0933 6.27541 14.0051 6.37324 15.0314C4.85796 12.0117 7.86425 8.18557 10.6596 8.18557Z" fill="white"/>
<path d="M25.18 18.2955C28.1829 18.0075 30.1281 14.5203 28.5718 11.1294C26.2468 6.05845 20.9765 7.04147 19.7126 10.6865C18.5284 14.1024 21.605 18.6379 25.18 18.2955ZM27.7831 11.4912C28.5558 13.1738 28.4377 15.2916 26.9341 16.5997C27.5957 15.6106 27.256 14.3568 26.5669 13.3934C24.0808 9.91762 20.8145 10.9802 20.3959 13.0628C19.642 8.59694 25.3834 6.25853 27.7831 11.4912Z" fill="white"/>
<path d="M4.73517 19.0641C4.49442 18.7143 3.9423 18.8872 3.94483 19.3141C3.99829 26.6822 9.22375 32.8884 16.5517 32.8884C24.6513 32.8884 30.3809 25.8851 30.2236 18.0743C30.2196 17.8679 30.0705 17.693 29.8671 17.6563C28.8617 17.4722 30.0992 19.5201 24.6658 21.991C15.3356 26.2322 7.98765 23.7612 4.73517 19.0641ZM12.5136 31.2915C13.6702 30.5348 14.9188 29.8632 16.2756 29.6777C16.4814 29.8555 16.5316 30.222 16.3693 30.4406C16.0282 30.9021 16.7237 31.4188 17.0664 30.9581C17.3361 30.5941 17.3924 30.1145 17.2674 29.6898C18.4529 29.8574 19.7267 30.5455 20.3959 31.413C17.8046 32.2495 14.9726 32.2349 12.5136 31.2915ZM29.2875 19.7999C28.8059 24.6276 25.9203 29.2138 21.2507 31.1051C20.2952 29.6704 18.0201 28.5957 16.2749 28.7983C14.5254 29.0051 12.9938 29.9101 11.5996 30.8575C11.5925 30.8624 11.589 30.8701 11.5822 30.8753C7.95441 29.0587 5.34236 25.3169 4.88261 20.6459C6.73812 22.7123 9.42067 24.1722 12.417 24.7576C12.2083 26.9506 12.3232 27.0726 12.5295 27.2996C12.7639 27.5572 13.0808 27.5696 13.2565 27.5764C14.1003 27.5971 14.9662 27.5903 15.9145 27.5476C16.0403 27.5419 16.1485 27.4813 16.2239 27.3919C16.6272 27.5346 18.8812 27.4541 19.2962 27.4352C19.4685 27.4273 19.6199 27.3182 19.6814 27.1572C19.8722 26.6601 20.0237 25.4747 20.0864 24.4846C22.9142 23.8187 27.4146 22.1612 29.2875 19.7999ZM16.554 26.5889C16.5478 26.5075 16.5555 26.4098 16.6061 25.0157C17.4575 24.964 18.3236 24.8528 19.2031 24.6829C19.1467 25.4258 19.0499 26.1507 18.9487 26.581C18.2992 26.6044 16.7798 26.6184 16.554 26.5889ZM15.5913 25.0414C15.5109 25.591 15.4568 26.1439 15.4547 26.6974C13.5902 26.7628 13.1641 26.6692 13.182 26.7296C13.1416 26.6171 13.2259 25.5285 13.2773 24.8913C13.5631 24.9303 14.079 25.0489 15.5913 25.0414Z" fill="white"/>
<path d="M27.532 2.89896L28.185 0.548867C28.3381 -0.00454117 27.502 -0.236626 27.3489 0.316682L26.6959 2.66678C26.5428 3.22101 27.3793 3.45124 27.532 2.89896Z" fill="white"/>
<path d="M30.0854 4.18212L31.4051 1.55351C31.6632 1.04061 30.8866 0.651027 30.63 1.16428L29.3103 3.79232C29.0519 4.30513 29.8271 4.6949 30.0854 4.18212Z" fill="white"/>
<path d="M33.6486 5.03493C34.1184 4.70326 33.6154 3.99502 33.1481 4.32595L31.6589 5.37897C31.3123 5.62324 31.4896 6.16705 31.9098 6.16705C31.9962 6.16705 32.1956 6.03045 33.6486 5.03493Z" fill="white"/>
</svg>
