<svg width="105" height="31" viewBox="0 0 105 31" fill="none" xmlns="http://www.w3.org/2000/svg">
<g id="Layer_1" clip-path="url(#clip0_75_1145)">
<path id="Vector" d="M10.0528 0L9.89921 0.271756C9.38771 1.2076 8.87079 2.13985 8.36472 3.0775C8.3281 3.15448 8.26944 3.21896 8.19611 3.26283C8.12279 3.3067 8.03808 3.328 7.95263 3.32406C7.77654 3.32472 7.6051 3.26782 7.46462 3.16209L6.45789 2.44221C6.40729 2.40621 6.35306 2.37382 6.27715 2.32342C6.29703 2.471 6.31149 2.58258 6.32776 2.69416C6.44163 3.48064 6.55911 4.26711 6.67298 5.05538C6.81215 6.01283 6.9477 6.97207 7.08687 7.93492C7.09667 7.98778 7.10211 8.04135 7.10314 8.09509C7.10314 8.30746 6.95674 8.38844 6.776 8.27506C6.70941 8.22785 6.64873 8.17286 6.59526 8.11129L4.53119 5.99843C4.48962 5.95704 4.44624 5.91924 4.39563 5.86885L4.26188 6.03263L3.57687 6.91268C3.51498 6.99574 3.43244 7.06133 3.33736 7.10298C3.24229 7.14464 3.13796 7.16092 3.03465 7.15025C2.83764 7.13945 2.64063 7.10525 2.44543 7.08006L0.947085 6.88209C0.912806 6.87919 0.878342 6.87919 0.844063 6.88209C0.863944 6.99187 0.880211 7.09085 0.9019 7.18804C1.08445 7.99251 1.24712 8.78798 1.42244 9.58165C1.44707 9.64971 1.45613 9.72239 1.44896 9.79438C1.44179 9.86637 1.41856 9.93586 1.38098 9.99778C1.34339 10.0597 1.2924 10.1125 1.23172 10.1523C1.17103 10.192 1.1022 10.2178 1.03023 10.2277C0.728388 10.3051 0.43378 10.4077 0.135556 10.5013C0.089417 10.5182 0.0441728 10.5374 0 10.5589L0.139171 10.6777C1.7056 11.9687 3.27202 13.2585 4.83845 14.5471C4.96552 14.6469 5.08237 14.759 5.18728 14.8818C5.3148 15.0124 5.39211 15.1835 5.40566 15.3651C5.41921 15.5467 5.36813 15.7273 5.26139 15.8752C5.14752 16.0714 5.02823 16.2658 4.91255 16.4619C4.88725 16.5051 4.86556 16.5537 4.83122 16.6239L5.34995 16.5573L6.52658 16.4008L7.98877 16.1974C8.39906 16.1398 8.80753 16.084 9.21962 16.03C9.29969 16.0254 9.37995 16.0254 9.46001 16.03C9.37446 18.3624 9.28951 20.6817 9.20516 22.9877C9.77456 23.2943 10.3646 23.5613 10.971 23.7868C10.9457 23.1425 10.9204 22.4964 10.8933 21.8521C10.8662 21.2078 10.8373 20.5617 10.8083 19.9174C10.7794 19.2731 10.7487 18.6144 10.7288 17.9629C10.7089 17.3114 10.6637 16.6725 10.6637 15.9994L15.2925 16.6239C15.2528 16.5465 15.2293 16.4943 15.2004 16.4439C15.0775 16.237 14.9527 16.0336 14.8389 15.8266C14.7546 15.6973 14.7133 15.5448 14.7208 15.3907C14.7282 15.2367 14.7841 15.0889 14.8804 14.9682C14.9758 14.836 15.0862 14.7152 15.2094 14.6082C15.6414 14.2483 16.0788 13.8884 16.5144 13.5284L19.9755 10.6777C20.0244 10.6381 20.0677 10.5949 20.1292 10.5409L19.9828 10.4887C19.6791 10.3951 19.3737 10.3087 19.0791 10.208C18.7429 10.1018 18.6417 9.9236 18.7176 9.58165C18.8971 8.74179 19.0779 7.90612 19.2598 7.07466C19.2743 7.01167 19.2815 6.94868 19.296 6.86229L18.7411 6.93608C18.2121 7.00447 17.6819 7.07106 17.1506 7.13585C17.0905 7.1424 17.0299 7.1424 16.9698 7.13585C16.8802 7.12357 16.7942 7.09272 16.7173 7.04529C16.6404 6.99786 16.5743 6.93491 16.5234 6.86049L15.8619 6.00743C15.8257 5.96244 15.786 5.91924 15.7426 5.86525C15.6974 5.90665 15.6613 5.93544 15.6287 5.96784L14.4629 7.17004C14.1575 7.48319 13.8538 7.79814 13.5448 8.10949C13.4798 8.18131 13.4035 8.2421 13.3188 8.28946C13.1869 8.35605 13.0821 8.28946 13.0568 8.14908C13.0495 8.09593 13.0495 8.04206 13.0568 7.98891C13.1164 7.55698 13.1797 7.12505 13.2375 6.69312C13.3387 5.98163 13.4411 5.27135 13.5448 4.56226C13.6442 3.86938 13.7472 3.17829 13.8484 2.4854C13.8512 2.43264 13.8512 2.37978 13.8484 2.32702C13.7815 2.37022 13.7309 2.40081 13.6839 2.43501C13.3568 2.67077 13.0351 2.91013 12.7043 3.13869C12.6021 3.21135 12.4885 3.26668 12.3681 3.30247C12.2519 3.34803 12.1222 3.34598 12.0074 3.29676C11.8927 3.24754 11.8021 3.15514 11.7554 3.03971C11.218 2.09306 10.6884 1.14342 10.1667 0.190769C10.136 0.134978 10.1016 0.0827866 10.0528 0ZM9.17986 23.5456V23.7562C9.17986 24.3735 9.19071 24.9908 9.17986 25.6063C9.1764 25.6589 9.18998 25.7112 9.21861 25.7556C9.24724 25.8 9.2894 25.8341 9.33891 25.8528C11.2997 26.9129 13.4183 27.6535 15.6143 28.0467C16.2469 28.1583 16.8794 28.2392 17.5229 28.3004C18.1687 28.3618 18.8172 28.3901 19.4659 28.385C20.1872 28.3917 20.9083 28.3496 21.6239 28.259C22.2186 28.1763 22.815 28.1079 23.4024 27.9927C24.9728 27.692 26.4963 27.1861 27.9336 26.4881C29.6445 25.6798 31.1768 24.5407 32.4413 23.1371C33.9419 21.4891 34.879 19.4098 35.1181 17.198C35.1307 17.0666 35.1488 17.0504 35.2789 17.0181C35.4362 16.9839 35.597 16.9551 35.7525 16.9119C36.3916 16.7148 36.9881 16.4005 37.5111 15.985L37.7461 15.805C37.8003 15.8662 37.8419 15.9166 37.8888 15.9634C38.0696 16.1434 38.2503 16.3396 38.4401 16.5033C39.2028 17.1314 40.0379 17.2232 40.9289 16.7949C41.2424 16.642 41.5356 16.4509 41.8019 16.2262L42.0441 16.0318C42.0659 16.0592 42.0859 16.0881 42.1037 16.1182C42.266 16.4305 42.5244 16.6828 42.8412 16.8381C43.247 17.0384 43.6971 17.1338 44.1497 17.1152C44.569 17.1152 44.9902 17.0756 45.4149 17.0594C46.1234 17.0324 46.8337 17.0109 47.5422 16.9839C48.1116 16.9623 48.6827 16.9407 49.2521 16.9119C49.7499 16.8828 50.2425 16.7952 50.7197 16.6509C51.285 16.5017 51.8127 16.2363 52.2686 15.8716C53.0151 15.2435 53.2284 14.4211 52.8253 13.5698C52.6357 13.1344 52.3588 12.7421 52.0117 12.4169C51.6645 12.0916 51.2544 11.8403 50.8064 11.6783C49.9503 11.3973 49.0605 11.2303 48.1604 11.1816C47.8857 11.16 47.6182 11.1366 47.3344 11.1204C47.1988 11.1114 47.0615 11.1204 46.9277 11.1204C46.8822 11.8396 46.8822 12.5609 46.9277 13.2801H47.1085C47.7458 13.277 48.3826 13.3137 49.0153 13.3898C49.4328 13.4444 49.8359 13.5782 50.2028 13.784C50.3175 13.8488 50.4243 13.9267 50.5209 14.0161C50.5697 14.0505 50.608 14.0977 50.6317 14.1523C50.6554 14.207 50.6635 14.2671 50.6551 14.3261C50.6466 14.3851 50.6221 14.4406 50.5841 14.4865C50.546 14.5325 50.496 14.5671 50.4395 14.5866C50.3335 14.6433 50.2186 14.6817 50.0997 14.7C49.7545 14.745 49.4075 14.7828 49.0605 14.8026C48.4857 14.8368 47.9092 14.8728 47.3326 14.8746C46.2969 14.8746 45.2631 14.8566 44.2293 14.8458C44.1415 14.849 44.0546 14.828 43.978 14.7851C43.9015 14.7422 43.8383 14.6792 43.7955 14.6028C43.728 14.4892 43.6734 14.3685 43.6328 14.2429C43.5641 14.0197 43.5081 13.793 43.4521 13.568C43.4244 13.4131 43.3627 13.2662 43.2713 13.1379C43.2199 13.0625 43.1445 13.0066 43.0573 12.9792C42.9701 12.9517 42.8761 12.9544 42.7906 12.9867C42.6819 13.02 42.5794 13.0704 42.4869 13.1361C42.3232 13.276 42.1675 13.425 42.0206 13.5824C41.7947 13.82 41.5814 14.0719 41.3482 14.3023C41.1529 14.5054 40.922 14.6713 40.6668 14.7918C40.4542 14.9089 40.205 14.9417 39.9692 14.8836C39.7609 14.8192 39.577 14.6937 39.4414 14.5237C39.2123 14.2305 39.0351 13.9006 38.9173 13.5482C38.8867 13.4513 38.8474 13.3573 38.7998 13.2675C38.7795 13.2117 38.7449 13.1622 38.6996 13.1237C38.6542 13.0853 38.5996 13.0592 38.5411 13.0481C38.4825 13.0371 38.4221 13.0413 38.3658 13.0605C38.3094 13.0798 38.259 13.1132 38.2196 13.1577C38.0569 13.2999 37.887 13.4348 37.7189 13.568C37.2307 13.9773 36.6956 14.3277 36.1248 14.6118C35.78 14.7827 35.406 14.8871 35.0223 14.9196C34.8415 14.9322 34.8415 14.9196 34.7692 14.7648C34.5775 14.3111 34.2952 13.9009 33.9396 13.559C33.7896 13.415 33.6251 13.2873 33.4553 13.1415L32.0455 14.6298C32.2606 14.8674 32.4666 15.078 32.651 15.3047C33.0044 15.7497 33.2075 16.2946 33.2311 16.8615C33.2722 17.5568 33.1535 18.2523 32.8841 18.8951C32.48 19.8585 31.8968 20.7371 31.1653 21.4849C30.1088 22.588 28.8749 23.5077 27.5143 24.2061C24.9376 25.5556 22.07 26.261 19.1586 26.2614C18.4192 26.264 17.6803 26.2208 16.9463 26.1318C16.261 26.0542 15.5804 25.9394 14.9076 25.788C13.0956 25.3742 11.3486 24.7167 9.71486 23.8335L9.17986 23.5456ZM83.7195 7.90252V8.09869C83.7195 10.3843 83.7195 12.67 83.7195 14.9556C83.7185 15.1168 83.733 15.2777 83.7628 15.4361C83.8528 15.88 84.0898 16.2809 84.4359 16.5746C84.782 16.8683 85.2171 17.0378 85.6715 17.0558C87.3614 17.0558 89.0513 17.0558 90.7431 17.0558C91.0511 17.0595 91.3557 16.991 91.6323 16.856C91.9088 16.721 92.1497 16.5231 92.3354 16.2784C92.5833 15.9715 92.7558 15.6113 92.8393 15.2264C92.9228 14.8415 92.9148 14.4425 92.8162 14.0611C92.7592 13.8411 92.6823 13.6267 92.5866 13.4204C92.4059 12.9759 92.198 12.5332 92.001 12.0904H89.6153C89.6514 12.166 89.6785 12.2236 89.7092 12.2704L90.716 14.1151C90.796 14.2424 90.838 14.3897 90.8371 14.5399C90.8409 14.6156 90.8181 14.6903 90.7726 14.751C90.727 14.8118 90.6616 14.8549 90.5876 14.8728C90.495 14.8968 90.3996 14.9083 90.3039 14.907C89.0989 14.907 87.894 14.907 86.689 14.907C86.5754 14.9076 86.462 14.8955 86.3511 14.871C86.0366 14.7972 85.7727 14.6172 85.7871 14.1727C85.7871 14.1385 85.7871 14.1025 85.7871 14.0665V8.11489C85.7871 7.88993 85.7871 7.88813 85.5558 7.88813H83.9291C83.8749 7.88993 83.8098 7.89712 83.7195 7.90252ZM78.6316 12.0886C78.6677 12.166 78.6912 12.2182 78.7183 12.2686L79.5696 13.829C79.6455 13.9657 79.7269 14.0989 79.7883 14.2411C79.9691 14.6676 79.7648 14.9214 79.3491 14.9196C78.1219 14.9196 76.8947 14.9196 75.6674 14.9196C75.5539 14.919 75.4409 14.9039 75.3313 14.8746C75.1749 14.8462 75.0346 14.7616 74.9369 14.6368C74.8392 14.512 74.7911 14.3558 74.8017 14.1979V7.91872C74.592 7.86293 72.8822 7.87373 72.7358 7.93312V14.8746C72.7358 14.9628 72.7358 15.0546 72.7358 15.1428C72.7663 15.6559 72.9902 16.1387 73.3629 16.4944C73.7356 16.8502 74.2295 17.0526 74.7456 17.0612C76.3994 17.0486 78.0532 17.0612 79.707 17.0612C79.8029 17.0649 79.899 17.0613 79.9944 17.0504C80.3392 17.0061 80.6675 16.8769 80.9496 16.6746C81.2317 16.4722 81.4587 16.2031 81.6102 15.8914C81.7926 15.548 81.895 15.1681 81.9097 14.7799C81.9244 14.3917 81.8511 14.0051 81.6952 13.649C81.5036 13.1721 81.2795 12.7077 81.0788 12.2344C81.0638 12.1838 81.0312 12.14 80.9869 12.111C80.9425 12.082 80.8893 12.0696 80.8366 12.076C80.1571 12.076 79.4775 12.076 78.7979 12.076C78.7581 12.0796 78.7111 12.085 78.6316 12.0886ZM57.0041 21.3608C57.0565 21.3374 57.0854 21.3284 57.1107 21.314C57.8752 20.8964 58.6416 20.4861 59.4025 20.0542C59.9126 19.7839 60.3873 19.452 60.8159 19.0661C61.096 18.8145 61.3212 18.5082 61.4774 18.1663C61.698 17.6181 61.7545 17.018 61.6401 16.4385C61.4855 15.5552 61.2564 14.6865 60.9551 13.8416C60.699 13.1058 60.2243 12.465 59.5941 12.0041C59.1366 11.6545 58.5729 11.471 57.9963 11.4839C57.7089 11.4968 57.4232 11.5366 57.1432 11.6027C56.7793 11.6639 56.4385 11.8212 56.1564 12.0581C55.7754 12.3988 55.4648 12.8102 55.2418 13.2693C54.9502 13.8165 54.8134 14.4323 54.846 15.051C54.8599 15.37 54.9557 15.6802 55.1244 15.9518C55.2931 16.2234 55.5289 16.4474 55.8094 16.6023C56.2784 16.8754 56.8114 17.0207 57.3547 17.0235C58.0524 17.0235 58.75 17.0235 59.4477 17.0235H59.6628C59.6656 17.0666 59.6656 17.1099 59.6628 17.153C59.6213 17.3726 59.5113 17.5736 59.3483 17.7271C59.1561 17.9164 58.9488 18.0897 58.7283 18.2455C58.206 18.6054 57.6692 18.9275 57.1324 19.2587C57.085 19.2827 57.0459 19.3201 57.0198 19.3662C56.9938 19.4123 56.982 19.4651 56.986 19.5178C56.986 20.0812 56.986 20.6427 56.986 21.206C56.9896 21.2474 56.9968 21.2942 57.0041 21.3608ZM40.0541 24.728C40.5963 26.7941 41.1187 28.8331 41.6465 30.874H42.8068C42.8249 30.8128 42.843 30.757 42.8574 30.694C43.1129 29.7162 43.3677 28.7384 43.622 27.7605C43.6364 27.7047 43.622 27.6309 43.7105 27.5895C43.9937 28.691 44.2744 29.7828 44.5528 30.865H45.7276L47.4085 24.728H46.709C46.5446 25.3507 46.3855 25.9626 46.2228 26.5745C46.0602 27.1864 45.9083 27.7947 45.7276 28.3958H45.686L44.7823 24.7334H43.7394C43.4298 25.9548 43.1225 27.1738 42.8177 28.3904H42.7761C42.4688 27.1702 42.1622 25.9512 41.8561 24.7334L40.0541 24.728ZM101.145 7.90072V17.0468H103.294C103.294 16.9677 103.305 16.8975 103.305 16.8273C103.305 13.925 103.305 11.0226 103.305 8.12029C103.305 8.07889 103.305 8.0375 103.305 7.99431C103.306 7.98083 103.305 7.96718 103.301 7.95429C103.296 7.94139 103.289 7.92957 103.28 7.91964C103.271 7.90972 103.259 7.90191 103.247 7.89678C103.234 7.89165 103.221 7.88931 103.207 7.88993H101.324C101.266 7.88993 101.215 7.89712 101.138 7.90072H101.145ZM82.6314 26.7149L82.5934 26.7329C82.4655 26.545 82.2868 26.3971 82.0779 26.3064C81.869 26.2156 81.6385 26.1856 81.4132 26.22C81.2053 26.233 81.0033 26.2942 80.8235 26.3989C80.6436 26.5036 80.4909 26.6488 80.3776 26.8229C80.2525 27.0135 80.1614 27.2241 80.1082 27.4456C79.9595 28.0765 79.9301 28.7296 80.0215 29.3713C80.0523 29.6572 80.1298 29.9363 80.251 30.1973C80.3671 30.4629 80.5678 30.6831 80.8222 30.8236C81.2632 31.0612 82.0476 31.0612 82.5067 30.6113C82.5497 30.5732 82.595 30.5377 82.6422 30.5051V30.865H84.2689V24.6452L82.6332 24.7388L82.6314 26.7149ZM60.3008 26.7041L60.261 26.7149C60.2213 26.6699 60.1833 26.6249 60.1417 26.5817C60.0126 26.4384 59.8481 26.331 59.6646 26.2704C59.3641 26.1759 59.0409 26.1826 58.7446 26.2893C58.4483 26.3959 58.1955 26.5967 58.0253 26.8607C57.9028 27.0598 57.8154 27.2783 57.7668 27.5068C57.6244 28.1636 57.6073 28.8413 57.7162 29.5044C57.7516 29.7654 57.8311 30.0185 57.9511 30.2531C58.0733 30.5098 58.2791 30.7178 58.5349 30.8434C58.9832 31.0594 59.7224 31.0486 60.1725 30.6203C60.2105 30.5864 60.2503 30.5545 60.2917 30.5249C60.2917 30.6544 60.3044 30.7588 60.3098 30.8686H61.9365V24.6452L60.299 24.7388L60.3008 26.7041ZM65.7321 24.7244V30.8668H67.507V29.6232C67.507 29.4145 67.507 29.2039 67.507 28.9951C67.4998 28.7845 67.5034 28.5737 67.5178 28.3634H67.7491C68.0691 28.3634 68.3872 28.3634 68.7053 28.331C69.1089 28.31 69.5027 28.2 69.8584 28.0089C70.0586 27.9033 70.2312 27.7524 70.3621 27.5683C70.493 27.3842 70.5787 27.172 70.6121 26.9488C70.6413 26.7662 70.6534 26.5812 70.6482 26.3963C70.6574 26.042 70.5438 25.6953 70.3266 25.4144C70.1094 25.1336 69.8018 24.9357 69.4553 24.854C69.1024 24.7561 68.7372 24.7094 68.3709 24.7154C67.5539 24.7154 66.7442 24.7154 65.9182 24.7154C65.8568 24.7208 65.7989 24.7262 65.7321 24.7298V24.7244ZM95.8978 14.6028C95.999 14.8584 96.0966 15.1032 96.1924 15.3479C96.3561 15.7332 96.4902 16.1303 96.5937 16.5357C96.6559 16.7595 96.6538 16.9962 96.5876 17.2189C96.5215 17.4416 96.394 17.6414 96.2195 17.7955C96.1069 17.9058 95.986 18.0074 95.8581 18.0997C95.4406 18.3822 95.0176 18.6558 94.5929 18.9293C94.376 19.0697 94.1537 19.1993 93.9422 19.3289C93.9061 20.0018 93.9146 20.6763 93.9675 21.3482L94.329 21.1502C95.052 20.7524 95.7858 20.3619 96.4979 19.9552C97.0121 19.6794 97.4838 19.3315 97.8986 18.9221C98.3368 18.4862 98.5992 17.9054 98.6361 17.2898C98.6644 16.751 98.6077 16.2111 98.468 15.6899C98.2237 14.7832 97.9058 13.8978 97.5173 13.0425C97.5028 13.0119 97.4829 12.9831 97.4522 12.9309L95.8978 14.6028ZM62.6757 21.35C62.7086 21.3415 62.7407 21.3301 62.7715 21.3158C63.6499 20.8334 64.5319 20.3565 65.4049 19.8634C65.8685 19.6079 66.2917 19.2859 66.6611 18.9077C67.124 18.4356 67.3862 17.8038 67.3931 17.144C67.3994 16.6831 67.3453 16.2233 67.2322 15.7763C66.9866 14.833 66.6588 13.9129 66.2526 13.0263C66.2343 12.9964 66.2144 12.9676 66.193 12.9399L64.6241 14.61C64.7561 14.943 64.8844 15.2579 65.0073 15.5765C65.1472 15.9133 65.2561 16.2621 65.3326 16.6185C65.3798 16.8178 65.3739 17.0259 65.3155 17.2222C65.2572 17.4185 65.1485 17.5963 65.0001 17.7379C64.814 17.9249 64.6113 18.0948 64.3946 18.2455C63.8813 18.5874 63.3553 18.9131 62.8276 19.2371C62.7745 19.2625 62.7302 19.3032 62.7006 19.3539C62.671 19.4046 62.6573 19.4629 62.6613 19.5214C62.6613 20.0722 62.6613 20.6229 62.6613 21.1736C62.6649 21.2258 62.6721 21.278 62.6757 21.35ZM52.9012 9.82101C52.9364 9.19031 52.9334 8.55806 52.8922 7.92772C52.8702 7.92238 52.8479 7.91877 52.8253 7.91692C52.2234 7.91692 51.6234 7.93492 51.0179 7.94752C50.394 7.96602 49.7721 8.02614 49.1563 8.12749C48.3658 8.24801 47.5916 8.45689 46.8482 8.75019C46.1218 9.04007 45.4421 9.43484 44.8311 9.9218C44.7893 9.94918 44.7554 9.98703 44.7328 10.0316C44.7103 10.0761 44.7 10.1258 44.7028 10.1756C44.7028 10.7515 44.7028 11.3256 44.7028 11.8997C44.7057 11.951 44.7117 12.0021 44.7209 12.0527C45.9752 11.3184 47.2296 10.6399 48.6213 10.2529C50.018 9.89536 51.4609 9.74974 52.9012 9.82101ZM87.8711 26.3495V26.5655C87.8711 27.253 87.8711 27.9405 87.8711 28.628C87.8693 28.8432 87.8566 29.0583 87.8331 29.2723C87.8159 29.4876 87.7544 29.6971 87.6524 29.8878C87.6093 29.974 87.5455 30.0483 87.4667 30.1042C87.3879 30.1601 87.2965 30.1958 87.2005 30.2081C87.1621 30.2177 87.1221 30.2187 87.0832 30.2112C87.0443 30.2037 87.0076 30.1879 86.9756 30.1647C86.9435 30.1415 86.917 30.1117 86.8978 30.0772C86.8785 30.0427 86.8671 30.0045 86.8644 29.9652C86.8459 29.8533 86.8375 29.7401 86.8391 29.6268C86.8391 28.5686 86.8391 27.5086 86.8391 26.4503V26.2308L85.1979 26.3495V29.7906C85.1979 29.8626 85.1979 29.9346 85.1979 30.0066C85.2023 30.2371 85.2911 30.458 85.4475 30.628C85.6039 30.798 85.8172 30.9053 86.0474 30.9298C86.3494 30.9942 86.6633 30.9751 86.9552 30.8746C87.247 30.774 87.5056 30.5958 87.703 30.3593L87.8404 30.2063L87.8747 30.2171V30.8632C88.4165 30.8973 88.9601 30.8931 89.5014 30.8506V26.2308L87.8711 26.3495ZM49.8232 31C50.078 30.9712 50.3004 30.9604 50.5191 30.919C50.8675 30.8715 51.1938 30.7214 51.4559 30.488C51.7181 30.2545 51.9042 29.9484 51.9903 29.6088C52.1766 28.9663 52.1816 28.2851 52.0048 27.6399C51.9268 27.2951 51.7462 26.9818 51.4867 26.7407C51.2271 26.4996 50.9006 26.3419 50.5498 26.2884C50.0891 26.1921 49.6133 26.1921 49.1527 26.2884C48.8084 26.3429 48.4881 26.4981 48.2326 26.7343C47.9771 26.9704 47.7978 27.2769 47.7176 27.6147C47.5294 28.2756 47.535 28.9763 47.7338 29.634C47.8156 29.9466 47.9843 30.2298 48.2206 30.4511C48.4569 30.6724 48.7512 30.8227 49.0695 30.8848C49.3262 30.955 49.5919 30.9658 49.8232 31ZM54.8478 31C55.1135 30.9694 55.343 30.9604 55.5708 30.9154C55.9251 30.8625 56.2549 30.7038 56.5166 30.4602C56.7784 30.2166 56.9597 29.8996 57.0366 29.5512C57.2038 28.9293 57.2038 28.2745 57.0366 27.6525C56.9602 27.3074 56.7815 26.9931 56.5238 26.7502C56.266 26.5073 55.9409 26.3471 55.5907 26.2902C55.1143 26.1863 54.6211 26.1863 54.1447 26.2902C53.8191 26.3486 53.5168 26.4981 53.2733 26.7211C53.0297 26.9442 52.8549 27.2317 52.7693 27.55C52.5622 28.2306 52.5622 28.957 52.7693 29.6376C52.8505 29.9443 53.0157 30.2225 53.2464 30.4411C53.4772 30.6598 53.7644 30.8103 54.076 30.8758C54.3309 30.955 54.6092 30.9658 54.8478 31ZM79.4811 28.4588C79.4586 28.2124 79.4236 27.9674 79.3763 27.7245C79.3143 27.3765 79.1487 27.0551 78.9008 26.8022C78.6529 26.5492 78.3342 26.3765 77.9863 26.3064C77.5052 26.1915 77.0044 26.1854 76.5205 26.2884C76.1605 26.3437 75.8263 26.5079 75.5632 26.7586C75.3 27.0094 75.1206 27.3347 75.0493 27.6903C74.8905 28.3079 74.8954 28.956 75.0638 29.571C75.1362 29.8891 75.2972 30.1804 75.5284 30.4115C75.7595 30.6426 76.0514 30.8042 76.3705 30.8776C76.8964 31.0158 77.4484 31.022 77.9773 30.8956C78.3072 30.8305 78.6115 30.6729 78.8545 30.4415C79.0976 30.21 79.2692 29.9143 79.3491 29.589C79.443 29.2197 79.4873 28.8397 79.4811 28.4588ZM97.736 29.4558C97.71 29.7462 97.7822 30.0368 97.941 30.2817C98.0998 30.5265 98.3361 30.7115 98.6126 30.8074C98.9027 30.9133 99.2075 30.974 99.5163 30.9874C99.9549 31.0277 100.397 30.9812 100.818 30.8506C101.541 30.6131 101.832 30.003 101.745 29.2813C101.715 29.1067 101.651 28.9398 101.555 28.7902C101.46 28.6407 101.336 28.5115 101.19 28.4102C100.905 28.1875 100.59 28.0057 100.254 27.8703C100.073 27.7947 99.8922 27.7191 99.7314 27.6291C99.6035 27.5555 99.4825 27.4705 99.3699 27.3754C99.3062 27.3286 99.2587 27.2634 99.2338 27.1886C99.2089 27.1138 99.2078 27.0332 99.2307 26.9578C99.2458 26.8775 99.2862 26.8041 99.3459 26.7481C99.4057 26.6921 99.4818 26.6566 99.5633 26.6465C99.7234 26.625 99.8857 26.625 100.046 26.6465C100.222 26.6625 100.387 26.7387 100.512 26.8621C100.638 26.9854 100.717 27.1483 100.736 27.3232C100.754 27.4204 100.767 27.5212 100.783 27.6363L101.548 27.505C101.542 27.237 101.448 26.9782 101.282 26.7676C101.115 26.557 100.884 26.4058 100.624 26.3369C100.037 26.1627 99.4085 26.1893 98.8385 26.4125C98.6014 26.5035 98.3877 26.6462 98.2131 26.8301C98.0725 26.9703 97.9709 27.1446 97.9185 27.3358C97.8602 27.532 97.8508 27.7395 97.8911 27.9402C97.9314 28.1409 98.0202 28.3288 98.1499 28.4876C98.3552 28.7392 98.6122 28.9441 98.9036 29.0887C99.1259 29.2057 99.3626 29.2975 99.585 29.4162C99.7735 29.5187 99.9547 29.6342 100.127 29.7618C100.2 29.8126 100.253 29.8864 100.278 29.971C100.302 30.0556 100.298 30.1462 100.265 30.2279C100.243 30.3092 100.197 30.3819 100.132 30.436C100.067 30.4902 99.9872 30.5231 99.9031 30.5303C99.7431 30.5546 99.5804 30.5546 99.4205 30.5303C99.1723 30.4871 98.9486 30.3548 98.7917 30.1585C98.6349 29.9621 98.5557 29.7154 98.5692 29.4648C98.5692 29.4163 98.5692 29.3641 98.5692 29.2993L97.736 29.4558ZM95.07 26.8499V29.7582C95.0697 29.8599 95.0757 29.9614 95.0881 30.0623C95.0979 30.2496 95.1692 30.4285 95.291 30.5715C95.4128 30.7146 95.5783 30.8139 95.7623 30.8542C96.0532 30.9324 96.3574 30.949 96.6551 30.9028C96.8348 30.8827 97.0084 30.8257 97.1648 30.7354C97.2598 30.6805 97.3424 30.6069 97.4077 30.519C97.473 30.4311 97.5195 30.3308 97.5444 30.2243L97.1016 30.1811L97.0708 30.2531C97.0613 30.2921 97.0375 30.3261 97.004 30.3484C96.9706 30.3708 96.9299 30.3798 96.8901 30.3737C96.8512 30.3687 96.8151 30.3512 96.787 30.324C96.759 30.2967 96.7406 30.2611 96.7347 30.2225C96.7211 30.1519 96.7138 30.0802 96.713 30.0084V27.0478C96.713 26.9902 96.713 26.9309 96.713 26.8499H97.4233V26.3477H96.7003C96.7003 26.085 96.7003 25.8456 96.7003 25.6081C96.7003 25.3705 96.7003 25.1383 96.7003 24.8774C96.178 25.1623 95.6258 25.3892 95.0538 25.5541V26.3567H94.5278V26.8499H95.07ZM93.7217 28.8637L93.7344 29.0437C93.7344 29.2237 93.7597 29.4127 93.7542 29.598C93.7511 29.7964 93.7009 29.9913 93.6078 30.1667C93.5276 30.3127 93.4044 30.4306 93.2547 30.5046C93.1051 30.5786 92.9363 30.6052 92.771 30.5807C92.6156 30.5779 92.4657 30.5231 92.3454 30.4252C92.2251 30.3272 92.1413 30.1918 92.1077 30.0407C92.0841 29.9728 92.0665 29.903 92.0553 29.832C92.0227 29.5656 91.983 29.2921 91.9685 29.0311C91.9241 28.4993 91.9533 27.964 92.0553 27.4402C92.0936 27.2337 92.1762 27.0379 92.2975 26.8661C92.3724 26.7595 92.4778 26.6779 92.6 26.632C92.7222 26.5861 92.8555 26.578 92.9825 26.6087C93.0963 26.6296 93.2007 26.6854 93.2811 26.7684C93.3615 26.8513 93.4138 26.9572 93.4307 27.0712C93.4654 27.2651 93.4865 27.4611 93.494 27.6579C93.494 27.7587 93.494 27.8595 93.494 27.9945L94.2422 27.6345C94.2856 26.8985 93.8808 26.3747 93.1849 26.256C92.9236 26.2164 92.6589 26.2037 92.3951 26.2182C91.9281 26.2334 91.4784 26.3977 91.1123 26.6867C90.7462 26.9758 90.4831 27.3743 90.3617 27.8235C90.1947 28.4119 90.1947 29.0348 90.3617 29.6232C90.4342 29.9295 90.591 30.2096 90.8145 30.4322C91.038 30.6547 91.3193 30.8108 91.6269 30.883C92.1345 31.0196 92.6676 31.0326 93.1813 30.9208C93.3813 30.8892 93.5721 30.8152 93.7408 30.7037C93.9095 30.5923 94.0522 30.4459 94.1591 30.2747C94.3613 29.9101 94.4429 29.4913 94.3923 29.0779L93.7217 28.8637ZM74.48 27.9747C74.5288 27.7155 74.5902 27.46 74.6173 27.2008C74.6288 27.0463 74.6166 26.8909 74.5812 26.7401C74.5632 26.6326 74.5157 26.5321 74.4439 26.4499C74.3721 26.3676 74.2789 26.3067 74.1745 26.274C74.0277 26.2167 73.868 26.2 73.7124 26.2256C73.5568 26.2513 73.4111 26.3184 73.2907 26.4197C73.173 26.5306 73.0648 26.651 72.9671 26.7797C72.9358 26.8195 72.9074 26.8616 72.8822 26.9057L72.8479 26.8967V26.2488L71.2212 26.3639C71.1887 26.5439 71.1941 30.7354 71.2302 30.874H72.837C72.8435 30.8311 72.8477 30.7878 72.8497 30.7444C72.8497 30.6311 72.8497 30.5177 72.8497 30.4025C72.8497 29.6556 72.8497 28.9069 72.8497 28.1601C72.8462 27.842 72.9122 27.527 73.0431 27.2368C73.0772 27.1604 73.1243 27.0904 73.1822 27.0298C73.2021 27.0069 73.2279 26.9898 73.2568 26.9803C73.2857 26.9708 73.3166 26.9693 73.3463 26.976C73.376 26.9826 73.4033 26.9972 73.4254 27.0181C73.4474 27.039 73.4633 27.0654 73.4714 27.0946C73.4975 27.1741 73.5068 27.258 73.4985 27.3412C73.484 27.4416 73.4622 27.5408 73.4335 27.6381C73.4064 27.7461 73.3792 27.8559 73.3485 27.9765L74.48 27.9747ZM100.946 6.89829C101.054 6.71832 101.139 6.56174 101.242 6.41596C101.317 6.30197 101.426 6.21432 101.553 6.16552C101.681 6.11673 101.821 6.10927 101.953 6.14421C102.334 6.218 102.719 6.27739 103.102 6.34758C103.303 6.38793 103.51 6.38181 103.708 6.3297C103.907 6.27759 104.09 6.18088 104.244 6.04702C104.585 5.76588 104.826 5.3828 104.931 4.9546C104.991 4.78113 105.01 4.59656 104.987 4.41469L103.541 4.12493C103.505 4.19692 103.475 4.25451 103.447 4.3049C103.388 4.45726 103.279 4.58513 103.138 4.66754C102.996 4.74995 102.831 4.782 102.668 4.75843C102.602 4.75369 102.537 4.74528 102.471 4.73324C102.164 4.67564 101.86 4.60546 101.553 4.55326C101.245 4.48633 100.923 4.51782 100.633 4.64325C100.32 4.78631 100.049 5.00561 99.844 5.28088C99.639 5.55614 99.507 5.87845 99.4602 6.218C99.4157 6.36419 99.4201 6.52086 99.4729 6.66432L100.946 6.89829ZM79.3708 11.2788C79.6123 11.2813 79.849 11.2123 80.051 11.0805C80.253 10.9487 80.4111 10.7602 80.5053 10.5388C80.5994 10.3174 80.6254 10.0731 80.5798 9.83695C80.5342 9.60082 80.4192 9.38351 80.2494 9.21261C80.0795 9.0417 79.8625 8.92492 79.6258 8.87708C79.3892 8.82925 79.1436 8.85252 78.9203 8.94395C78.6969 9.03538 78.5059 9.19083 78.3715 9.39057C78.2371 9.59032 78.1653 9.82533 78.1653 10.0658C78.1648 10.3855 78.2912 10.6924 78.5171 10.9196C78.7429 11.1468 79.0498 11.2759 79.3708 11.2788ZM37.052 8.87977C36.8914 8.87928 36.7322 8.91058 36.5838 8.97184C36.4355 9.0331 36.3008 9.1231 36.1876 9.23663C36.0744 9.35015 35.985 9.48493 35.9246 9.63313C35.8642 9.78134 35.8339 9.94002 35.8356 10.1C35.8212 10.2685 35.8423 10.4382 35.8975 10.5981C35.9528 10.758 36.0409 10.9047 36.1564 11.0288C36.2718 11.1528 36.412 11.2515 36.568 11.3185C36.724 11.3855 36.8923 11.4193 37.0621 11.4178C37.232 11.4163 37.3996 11.3795 37.5544 11.3097C37.7091 11.24 37.8475 11.1388 37.9607 11.0127C38.0739 10.8867 38.1595 10.7384 38.2118 10.5775C38.2642 10.4166 38.2822 10.2466 38.2648 10.0784C38.2629 9.75951 38.1342 9.45438 37.9069 9.22975C37.6796 9.00513 37.3722 8.87928 37.052 8.87977ZM89.2285 18.8682C89.0679 18.8653 88.9083 18.8941 88.759 18.9529C88.6096 19.0116 88.4734 19.0992 88.3581 19.2106C88.2429 19.322 88.1509 19.455 88.0875 19.602C88.0241 19.7489 87.9905 19.9068 87.9886 20.0668C87.9811 20.2302 88.0067 20.3935 88.0641 20.5468C88.1214 20.7002 88.2092 20.8404 88.3222 20.9592C88.4352 21.0779 88.5711 21.1728 88.7218 21.238C88.8725 21.3033 89.0349 21.3376 89.1992 21.3389C89.3635 21.3403 89.5264 21.3086 89.6781 21.2458C89.8298 21.183 89.9673 21.0904 90.0822 20.9734C90.1972 20.8565 90.2872 20.7177 90.3471 20.5653C90.4069 20.4129 90.4352 20.2501 90.4304 20.0866C90.4316 19.9273 90.4012 19.7693 90.3409 19.6218C90.2806 19.4743 90.1917 19.34 90.0791 19.2268C89.9666 19.1136 89.8327 19.0237 89.6852 18.9621C89.5377 18.9005 89.3794 18.8686 89.2194 18.8682H89.2285ZM93.0764 20.0776C93.0764 19.7558 92.9481 19.4473 92.7197 19.2198C92.4912 18.9924 92.1813 18.8646 91.8583 18.8646C91.5352 18.8646 91.2253 18.9924 90.9969 19.2198C90.7684 19.4473 90.6401 19.7558 90.6401 20.0776C90.6419 20.3978 90.7698 20.7045 90.9961 20.932C91.2225 21.1594 91.5294 21.2895 91.851 21.2942C92.0112 21.2942 92.1698 21.2627 92.3178 21.2015C92.4657 21.1402 92.6 21.0505 92.7131 20.9375C92.8261 20.8245 92.9156 20.6903 92.9764 20.5427C93.0372 20.3952 93.0681 20.2371 93.0674 20.0776H93.0764ZM38.4094 6.33318C38.2483 6.32957 38.088 6.35813 37.9382 6.41715C37.7883 6.47618 37.6518 6.56449 37.5368 6.67686C37.4217 6.78924 37.3304 6.92342 37.2683 7.07149C37.2061 7.21955 37.1744 7.37851 37.1749 7.53898C37.1744 7.85996 37.3011 8.16816 37.5275 8.39663C37.7539 8.62511 38.0617 8.75539 38.3841 8.75918C38.7079 8.75735 39.0182 8.62942 39.2486 8.40273C39.4789 8.17605 39.6111 7.86862 39.6167 7.54618C39.6163 7.22648 39.4893 6.91984 39.2632 6.69277C39.0372 6.4657 38.7304 6.33649 38.4094 6.33318ZM39.7631 8.87977C39.6024 8.87904 39.4432 8.91017 39.2947 8.97134C39.1462 9.03252 39.0114 9.12252 38.8982 9.23609C38.785 9.34966 38.6956 9.48453 38.6352 9.63285C38.5749 9.78117 38.5448 9.93996 38.5467 10.1C38.5478 10.3402 38.6204 10.5746 38.7552 10.7738C38.8901 10.9729 39.0812 11.1278 39.3045 11.2188C39.5277 11.3098 39.773 11.3329 40.0094 11.2851C40.2458 11.2373 40.4627 11.1208 40.6326 10.9504C40.8025 10.7799 40.9179 10.5631 40.9641 10.3274C41.0104 10.0916 40.9854 9.84755 40.8923 9.62595C40.7993 9.40435 40.6423 9.21519 40.4413 9.08238C40.2404 8.94956 40.0043 8.87906 39.7631 8.87977Z" fill="white"/>
<path id="Vector_2" d="M10.0528 0C10.1016 0.0827866 10.136 0.134978 10.1667 0.190769C10.6873 1.14342 11.209 2.09366 11.7319 3.04151C11.7786 3.15695 11.8692 3.24934 11.9839 3.29856C12.0987 3.34778 12.2284 3.34983 12.3447 3.30427C12.465 3.26848 12.5786 3.21315 12.6808 3.14049C13.0116 2.91193 13.3333 2.67257 13.6604 2.43681C13.7074 2.40261 13.758 2.37202 13.8249 2.32882C13.8277 2.38158 13.8277 2.43444 13.8249 2.4872C13.7237 3.18009 13.6207 3.87118 13.5213 4.56406C13.4219 5.25695 13.3152 5.98404 13.214 6.69492C13.1526 7.12685 13.0893 7.55878 13.0333 7.99071C13.0261 8.04386 13.0261 8.09774 13.0333 8.15089C13.0586 8.29666 13.1634 8.35785 13.2954 8.29126C13.38 8.2439 13.4563 8.18311 13.5213 8.11129C13.8303 7.79994 14.134 7.48499 14.4394 7.17184L15.6052 5.96964C15.6378 5.93724 15.6739 5.90845 15.7191 5.86705C15.7625 5.92104 15.8022 5.96424 15.8384 6.00923L16.4999 6.86229C16.5509 6.93671 16.6169 6.99967 16.6938 7.0471C16.7707 7.09452 16.8567 7.12537 16.9463 7.13765C17.0064 7.1442 17.067 7.1442 17.1271 7.13765C17.6585 7.07286 18.1886 7.00627 18.7176 6.93788L19.2725 6.86409C19.258 6.95048 19.2508 7.01347 19.2363 7.07646C19.058 7.91632 18.8773 8.75199 18.6941 9.58346C18.6218 9.9254 18.723 10.1036 19.0556 10.2098C19.3574 10.3051 19.6629 10.3897 19.9593 10.4905L20.1057 10.5427C20.0442 10.5967 20.0009 10.6399 19.9521 10.6795L16.4981 13.5374C16.0625 13.8974 15.6251 14.2573 15.1931 14.6172C15.0699 14.7242 14.9595 14.845 14.8642 14.9772C14.7696 15.0969 14.7146 15.2429 14.7068 15.395C14.699 15.5472 14.7389 15.698 14.8208 15.8266C14.9419 16.0336 15.0666 16.237 15.1823 16.4439C15.2112 16.4943 15.2347 16.5465 15.2745 16.6239L10.6638 15.9994C10.6638 16.6725 10.718 17.315 10.7379 17.9593C10.7577 18.6036 10.7903 19.2623 10.8174 19.9138C10.8445 20.5653 10.8752 21.2042 10.9023 21.8485C10.9294 22.4928 10.9547 23.1389 10.9801 23.7832C10.3736 23.5577 9.7836 23.2907 9.21421 22.9841C9.29855 20.6769 9.3835 18.3576 9.46905 16.0264C9.38899 16.0218 9.30873 16.0218 9.22867 16.0264C8.81658 16.0804 8.4081 16.1362 7.99782 16.1938L6.53562 16.3954L5.34995 16.5573L4.82942 16.6275C4.86376 16.5573 4.88545 16.5087 4.91075 16.4655C5.02642 16.2694 5.14571 16.075 5.25958 15.8788C5.36633 15.7309 5.4174 15.5503 5.40385 15.3687C5.3903 15.1871 5.313 15.016 5.18548 14.8854C5.08056 14.7626 4.96372 14.6505 4.83665 14.5507C3.27022 13.2585 1.70379 11.9687 0.137364 10.6813L0 10.5589C0.0441729 10.5374 0.089417 10.5182 0.135556 10.5013C0.43378 10.4077 0.728389 10.3051 1.03926 10.2278C1.11123 10.2178 1.18007 10.192 1.24075 10.1523C1.30144 10.1125 1.35243 10.0597 1.39001 9.99778C1.4276 9.93587 1.45082 9.86638 1.458 9.79439C1.46517 9.72239 1.45611 9.64972 1.43147 9.58166C1.24712 8.78798 1.08445 7.99251 0.903708 7.19884C0.882019 7.10166 0.865752 7.00267 0.845871 6.89289C0.88015 6.88999 0.914614 6.88999 0.948893 6.89289L2.44724 7.09086C2.64244 7.11605 2.83945 7.15025 3.03646 7.16105C3.13977 7.17173 3.2441 7.15544 3.33917 7.11378C3.43425 7.07213 3.51679 7.00654 3.57868 6.92348L4.26369 6.04343L4.39744 5.87965C4.44805 5.93004 4.49143 5.96784 4.533 6.00923L6.57538 8.09869C6.62885 8.16027 6.68953 8.21525 6.75612 8.26247C6.93686 8.37225 7.07784 8.29126 7.08326 8.0825C7.08223 8.02875 7.07679 7.97518 7.067 7.92232C6.92782 6.96488 6.79227 6.00563 6.6531 5.04279C6.53923 4.25451 6.42175 3.46804 6.30788 2.68157C6.29162 2.56999 6.27716 2.4584 6.25727 2.31083C6.33499 2.36122 6.38921 2.39361 6.43802 2.42961L7.44475 3.14949C7.58522 3.25522 7.75666 3.31212 7.93275 3.31147C8.01969 3.31724 8.10637 3.29681 8.18148 3.25283C8.2566 3.20885 8.31667 3.14337 8.35388 3.06491C8.85995 2.12726 9.37687 1.19501 9.88837 0.259158L10.0528 0Z" fill="black"/>
<path id="Vector_3" d="M9.17987 23.5456L9.7221 23.8335C11.3559 24.7167 13.1028 25.3742 14.9148 25.788C15.5876 25.9394 16.2682 26.0542 16.9536 26.1318C17.6876 26.2208 18.4264 26.264 19.1658 26.2614C22.0742 26.2595 24.9385 25.5542 27.5125 24.2061C28.8731 23.5076 30.107 22.588 31.1635 21.4849C31.8949 20.7376 32.478 19.8596 32.8823 18.8969C33.1517 18.2541 33.2704 17.5586 33.2294 16.8633C33.2076 16.2933 33.0045 15.745 32.6492 15.2975C32.4684 15.0708 32.2588 14.8602 32.0437 14.6226L33.4535 13.1343C33.6234 13.28 33.7878 13.4078 33.9379 13.5518C34.2934 13.8937 34.5757 14.3039 34.7675 14.7576C34.8361 14.9214 34.838 14.925 35.0205 14.9124C35.4042 14.8799 35.7783 14.7755 36.123 14.6046C36.6939 14.3205 37.229 13.9701 37.7172 13.5608C37.8853 13.4276 38.0552 13.2926 38.2178 13.1505C38.2573 13.106 38.3076 13.0725 38.364 13.0533C38.4204 13.0341 38.4808 13.0299 38.5393 13.0409C38.5978 13.052 38.6524 13.078 38.6978 13.1165C38.7432 13.155 38.7777 13.2045 38.798 13.2603C38.8456 13.3501 38.8849 13.4441 38.9155 13.541C39.0333 13.8934 39.2106 14.2233 39.4396 14.5164C39.5752 14.6865 39.7591 14.812 39.9674 14.8764C40.2033 14.9345 40.4525 14.9017 40.6651 14.7846C40.921 14.6638 41.1526 14.4972 41.3483 14.2933C41.5814 14.0575 41.7947 13.8056 42.0206 13.5734C42.1678 13.4197 42.3235 13.2743 42.4869 13.1379C42.5794 13.0722 42.682 13.0217 42.7906 12.9885C42.8761 12.9562 42.9701 12.9535 43.0573 12.9809C43.1446 13.0084 43.22 13.0643 43.2714 13.1397C43.3687 13.2701 43.4348 13.4209 43.4647 13.5806C43.5208 13.8056 43.5768 14.0323 43.6455 14.2555C43.6861 14.3811 43.7407 14.5018 43.8082 14.6154C43.851 14.6918 43.9142 14.7548 43.9907 14.7977C44.0672 14.8406 44.1542 14.8616 44.2419 14.8584C45.2758 14.8692 46.3096 14.8908 47.3453 14.8872C47.9218 14.8872 48.4984 14.8494 49.0732 14.8152C49.4202 14.7954 49.7672 14.7576 50.1124 14.7126C50.2313 14.6942 50.3462 14.6559 50.4522 14.5992C50.5087 14.5797 50.5587 14.5451 50.5968 14.4991C50.6348 14.4532 50.6593 14.3977 50.6677 14.3387C50.6761 14.2797 50.6681 14.2196 50.6444 14.1649C50.6207 14.1103 50.5824 14.0631 50.5336 14.0287C50.437 13.9393 50.3302 13.8614 50.2154 13.7966C49.8486 13.5908 49.4455 13.457 49.028 13.4024C48.3953 13.3263 47.7584 13.2896 47.1211 13.2926H46.9404C46.8948 12.5735 46.8948 11.8522 46.9404 11.133C47.0742 11.133 47.2115 11.133 47.3471 11.133C47.6236 11.1492 47.8983 11.1726 48.1731 11.1942C49.0732 11.2428 49.963 11.4099 50.8191 11.6909C51.2671 11.8529 51.6772 12.1042 52.0244 12.4294C52.3715 12.7547 52.6484 13.147 52.838 13.5824C53.2411 14.4337 53.0278 15.2561 52.2813 15.8842C51.8253 16.2489 51.2977 16.5143 50.7324 16.6635C50.2514 16.8062 49.7551 16.8914 49.2539 16.9173C48.6846 16.9461 48.1134 16.9677 47.5441 16.9893C46.8356 17.0162 46.1253 17.0378 45.4168 17.0648C44.9974 17.081 44.5763 17.1152 44.1516 17.1206C43.6989 17.1392 43.2489 17.0438 42.843 16.8435C42.5262 16.6881 42.2678 16.4359 42.1056 16.1236C42.0877 16.0935 42.0678 16.0646 42.0459 16.0372L41.8037 16.2316C41.5375 16.4563 41.2442 16.6474 40.9308 16.8003C40.0397 17.2232 39.2047 17.1368 38.4419 16.5087C38.2449 16.345 38.0805 16.1488 37.8907 15.9688C37.8437 15.922 37.8021 15.8716 37.7479 15.8104L37.5129 15.9904C36.9915 16.4053 36.3969 16.7196 35.7597 16.9173C35.6043 16.9605 35.4434 16.9892 35.2862 17.0234C35.1561 17.0504 35.138 17.0666 35.1253 17.2034C34.8863 19.4152 33.9491 21.4945 32.4485 23.1425C31.184 24.5461 29.6517 25.6852 27.9408 26.4935C26.5036 27.1915 24.98 27.6974 23.4097 27.9981C22.8222 28.1133 22.2258 28.178 21.6312 28.2644C20.9155 28.355 20.1945 28.397 19.4731 28.3904C18.825 28.3948 18.1771 28.366 17.5319 28.304C16.8921 28.2428 16.2559 28.1618 15.6233 28.0503C13.4274 27.6571 11.3088 26.9164 9.34796 25.8564C9.29845 25.8377 9.25628 25.8036 9.22766 25.7592C9.19903 25.7148 9.18545 25.6625 9.18891 25.6099C9.18891 24.9944 9.18891 24.3771 9.18891 23.7598L9.17987 23.5456Z" fill="black"/>
<path id="Vector_4" d="M83.7195 7.90255C83.8099 7.90255 83.8749 7.88995 83.94 7.88995H85.5667C85.7962 7.88995 85.798 7.88995 85.798 8.11672V14.0756C85.798 14.1115 85.798 14.1475 85.798 14.1817C85.7836 14.6263 86.0474 14.8062 86.3619 14.88C86.4729 14.9045 86.5863 14.9166 86.6999 14.916C87.9049 14.916 89.1098 14.916 90.3147 14.916C90.4104 14.9173 90.5059 14.9058 90.5985 14.8818C90.6725 14.8639 90.7379 14.8208 90.7834 14.7601C90.829 14.6993 90.8518 14.6246 90.8479 14.5489C90.8488 14.3987 90.8068 14.2514 90.7268 14.1241L89.7201 12.2794C89.6894 12.2237 89.6623 12.1661 89.6261 12.0995H91.9974C92.1945 12.5422 92.3933 12.9849 92.583 13.4295C92.6787 13.6357 92.7556 13.8502 92.8126 14.0702C92.9112 14.4515 92.9192 14.8505 92.8357 15.2354C92.7522 15.6203 92.5797 15.9806 92.3318 16.2874C92.1461 16.5321 91.9053 16.73 91.6287 16.865C91.3521 17.0001 91.0475 17.0685 90.7395 17.0649C89.0477 17.0649 87.3578 17.0649 85.6679 17.0649C85.2135 17.0468 84.7784 16.8773 84.4323 16.5836C84.0862 16.2899 83.8492 15.889 83.7593 15.4451C83.7294 15.2867 83.7149 15.1258 83.7159 14.9646C83.7159 12.685 83.7159 10.3993 83.7159 8.10772L83.7195 7.90255Z" fill="black"/>
<path id="Vector_5" d="M78.6317 12.0887C78.7112 12.0887 78.7582 12.0887 78.8124 12.0887C79.492 12.0887 80.1716 12.0887 80.8512 12.0887C80.9038 12.0823 80.9571 12.0946 81.0014 12.1236C81.0458 12.1526 81.0784 12.1964 81.0934 12.247C81.294 12.7204 81.5181 13.1847 81.7097 13.6616C81.8639 14.0178 81.9357 14.4039 81.9198 14.7915C81.9038 15.179 81.8005 15.558 81.6175 15.9005C81.4661 16.2121 81.239 16.4812 80.9569 16.6836C80.6748 16.8859 80.3465 17.0151 80.0017 17.0595C79.9063 17.0703 79.8102 17.0739 79.7143 17.0703C78.0605 17.0703 76.4067 17.0703 74.753 17.0703C74.2377 17.0603 73.7452 16.8572 73.3737 16.5016C73.0021 16.146 72.7789 15.664 72.7485 15.1518C72.7485 15.0618 72.7485 14.9718 72.7485 14.8836V7.93854C72.8949 7.87915 74.6047 7.86835 74.8144 7.92414V14.1943C74.8038 14.3522 74.852 14.5084 74.9496 14.6332C75.0473 14.758 75.1877 14.8426 75.344 14.871C75.4536 14.9003 75.5666 14.9155 75.6802 14.916C76.9074 14.916 78.1346 14.916 79.3619 14.916C79.7776 14.916 79.9872 14.6641 79.8011 14.2375C79.7396 14.0953 79.6583 13.9622 79.5824 13.8254L78.7311 12.265C78.6913 12.2182 78.6678 12.1661 78.6317 12.0887Z" fill="black"/>
<path id="Vector_6" d="M57.0041 21.3608C57.0041 21.2942 56.9896 21.2474 56.9878 21.2024C56.9878 20.6391 56.9878 20.0776 56.9878 19.5143C56.9838 19.4615 56.9956 19.4087 57.0217 19.3626C57.0477 19.3165 57.0869 19.2791 57.1342 19.2551C57.6765 18.924 58.2078 18.5928 58.7302 18.2419C58.9506 18.0861 59.158 17.9128 59.3501 17.7235C59.5131 17.57 59.6232 17.369 59.6646 17.1494C59.6674 17.1063 59.6674 17.063 59.6646 17.0199H59.4495C58.7519 17.0199 58.0542 17.0307 57.3565 17.0199C56.8132 17.0171 56.2802 16.8718 55.8112 16.5987C55.5308 16.4438 55.2949 16.2198 55.1262 15.9482C54.9576 15.6766 54.8617 15.3664 54.8479 15.0474C54.8153 14.4287 54.9521 13.8129 55.2437 13.2657C55.4665 12.8081 55.7765 12.3979 56.1564 12.0581C56.4388 11.8218 56.7795 11.6652 57.1433 11.6045C57.4233 11.5384 57.7089 11.4987 57.9964 11.4858C58.5729 11.4728 59.1366 11.6563 59.5941 12.0059C60.2244 12.4668 60.699 13.1077 60.9551 13.8434C61.2538 14.6879 61.4806 15.5561 61.6329 16.4386C61.7473 17.018 61.6908 17.6181 61.4702 18.1663C61.314 18.5082 61.0888 18.8145 60.8087 19.0661C60.3801 19.452 59.9054 19.7839 59.3953 20.0542C58.6344 20.4789 57.868 20.8892 57.1035 21.314C57.0854 21.3284 57.0565 21.3374 57.0041 21.3608ZM59.0609 14.907C59.0085 14.8314 58.9814 14.7864 58.9489 14.7432C58.7248 14.4481 58.5006 14.1511 58.2747 13.856C58.2434 13.8122 58.2089 13.7707 58.1717 13.7318C58.1311 13.6813 58.0807 13.6394 58.0235 13.6086C57.9663 13.5778 57.9035 13.5587 57.8388 13.5525C57.7741 13.5463 57.7088 13.5531 57.6468 13.5724C57.5847 13.5918 57.5272 13.6233 57.4776 13.6652C57.3566 13.7499 57.2587 13.8634 57.193 13.9955C57.1274 14.1275 57.096 14.2738 57.1017 14.4211C57.0941 14.4887 57.102 14.5571 57.1248 14.6213C57.1475 14.6854 57.1845 14.7436 57.233 14.7916C57.2814 14.8395 57.3402 14.8759 57.4048 14.8981C57.4693 14.9202 57.5381 14.9276 57.606 14.9196H58.8712C58.9218 14.9196 58.9724 14.9124 59.0609 14.907Z" fill="black"/>
<path id="Vector_7" d="M40.0541 24.728H41.8507C42.1556 25.9446 42.4622 27.1636 42.7707 28.385H42.8123C43.1195 27.1672 43.4268 25.9482 43.734 24.728H44.7841L45.6879 28.3904H45.7294C45.9011 27.7893 46.0511 27.1792 46.2138 26.5745C46.3765 25.9698 46.5355 25.3507 46.7 24.728H47.3995L45.7186 30.865H44.5528C44.2745 29.7852 43.9937 28.6934 43.7105 27.5896C43.6292 27.631 43.6364 27.7047 43.622 27.7605C43.3653 28.7384 43.1105 29.7162 42.8574 30.6941C42.843 30.7517 42.8249 30.8074 42.8068 30.874H41.6465C41.1187 28.8332 40.5891 26.7941 40.0541 24.728Z" fill="black"/>
<path id="Vector_8" d="M101.138 7.90073C101.206 7.90073 101.266 7.88993 101.318 7.88993H103.203C103.217 7.88931 103.231 7.89165 103.243 7.89678C103.256 7.90192 103.267 7.90972 103.276 7.91965C103.286 7.92958 103.293 7.9414 103.297 7.95429C103.301 7.96718 103.303 7.98084 103.301 7.99431C103.301 8.0375 103.301 8.0789 103.301 8.12029C103.301 11.0238 103.301 13.9262 103.301 16.8273C103.301 16.8975 103.301 16.9677 103.29 17.0469H101.138V7.90073Z" fill="black"/>
<path id="Vector_9" d="M82.6314 26.7149V24.7352L84.2671 24.6416V30.865H82.6405V30.5051C82.5932 30.5377 82.5479 30.5732 82.5049 30.6112C82.0458 31.0612 81.2614 31.0612 80.8204 30.8236C80.5661 30.683 80.3653 30.4629 80.2493 30.1973C80.128 29.9362 80.0505 29.6572 80.0197 29.3712C79.9283 28.7295 79.9577 28.0765 80.1065 27.4455C80.1596 27.2241 80.2507 27.0135 80.3758 26.8228C80.4891 26.6488 80.6419 26.5036 80.8217 26.3989C81.0015 26.2942 81.2035 26.2329 81.4114 26.2199C81.6367 26.1856 81.8672 26.2156 82.0761 26.3063C82.285 26.3971 82.4638 26.545 82.5917 26.7329L82.6314 26.7149ZM81.6952 28.5002C81.6952 28.8601 81.6952 29.2057 81.6952 29.5584C81.6908 29.7386 81.7266 29.9174 81.8 30.0821C81.8299 30.1547 81.8815 30.2164 81.9478 30.2589C82.014 30.3014 82.0918 30.3226 82.1705 30.3197C82.2496 30.3237 82.3278 30.3017 82.3931 30.2572C82.4584 30.2126 82.5072 30.148 82.532 30.0731C82.5842 29.9465 82.6148 29.8121 82.6224 29.6754C82.6441 29.0059 82.6658 28.3346 82.6224 27.6651C82.6198 27.4613 82.5691 27.2609 82.4742 27.0802C82.4414 27.0137 82.3896 26.9584 82.3253 26.9212C82.2609 26.884 82.1869 26.8667 82.1127 26.8714C82.0395 26.8751 81.9694 26.902 81.9128 26.9484C81.8561 26.9947 81.816 27.058 81.7982 27.1288C81.7617 27.2421 81.7386 27.3593 81.7295 27.4779C81.706 27.8181 81.6952 28.1582 81.6952 28.5002Z" fill="black"/>
<path id="Vector_10" d="M60.3008 26.7041V24.7388L61.9383 24.6452V30.8686H60.3116C60.3116 30.7588 60.3008 30.6544 60.2935 30.5249C60.2521 30.5545 60.2123 30.5863 60.1743 30.6202C59.7242 31.0486 58.985 31.0594 58.5367 30.8434C58.2809 30.7178 58.0751 30.5098 57.9529 30.2531C57.8329 30.0185 57.7534 29.7654 57.718 29.5044C57.6091 28.8412 57.6262 28.1636 57.7686 27.5067C57.8172 27.2783 57.9046 27.0598 58.027 26.8606C58.1973 26.5967 58.4501 26.3959 58.7464 26.2892C59.0427 26.1826 59.3659 26.1759 59.6664 26.2703C59.8499 26.331 60.0144 26.4383 60.1435 26.5817C60.1851 26.6249 60.2231 26.6699 60.2628 26.7149L60.3008 26.7041ZM59.3573 28.6963C59.3573 28.9501 59.3682 29.3208 59.388 29.6916C59.3992 29.8219 59.4297 29.9499 59.4784 30.0713C59.5054 30.1489 59.5575 30.2154 59.6265 30.2604C59.6955 30.3053 59.7776 30.3262 59.8598 30.3197C59.9395 30.3233 60.0182 30.3006 60.0836 30.255C60.149 30.2094 60.1974 30.1436 60.2213 30.0677C60.2632 29.9623 60.2894 29.8514 60.299 29.7384C60.3487 29.0163 60.3487 28.2918 60.299 27.5697C60.2929 27.383 60.236 27.2014 60.1345 27.0442C60.0995 26.9865 60.0489 26.9398 59.9885 26.9093C59.9281 26.8788 59.8603 26.8658 59.7929 26.8718C59.7255 26.8778 59.6611 26.9026 59.6071 26.9432C59.5531 26.9839 59.5116 27.0388 59.4874 27.1018C59.4368 27.2299 59.4081 27.3656 59.4025 27.5031C59.3736 27.8613 59.37 28.2194 59.3573 28.6963Z" fill="black"/>
<path id="Vector_11" d="M65.7321 24.7298C65.799 24.7298 65.8568 24.7298 65.9128 24.7298C66.7298 24.7298 67.5486 24.7298 68.3655 24.7298C68.7318 24.7238 69.0971 24.7705 69.45 24.8684C69.7964 24.9501 70.104 25.148 70.3212 25.4288C70.5385 25.7097 70.652 26.0564 70.6429 26.4108C70.648 26.5956 70.6359 26.7806 70.6067 26.9633C70.5733 27.1864 70.4876 27.3986 70.3567 27.5827C70.2258 27.7668 70.0533 27.9178 69.853 28.0233C69.4974 28.2144 69.1035 28.3245 68.6999 28.3454C68.3818 28.3688 68.0637 28.3688 67.7438 28.3778H67.5124C67.498 28.5881 67.4944 28.7989 67.5016 29.0095C67.5016 29.2183 67.5016 29.4289 67.5016 29.6376V30.8812H65.7267L65.7321 24.7298ZM67.516 27.8019C67.6751 27.8019 67.8124 27.8019 67.9498 27.8019C68.1474 27.81 68.3417 27.7492 68.499 27.6299C68.6564 27.5106 68.7671 27.3404 68.8119 27.1486C68.912 26.8066 68.9293 26.4458 68.8626 26.0958C68.8386 25.9667 68.7973 25.8414 68.7396 25.7233C68.6985 25.6366 68.6403 25.559 68.5686 25.4951C68.4969 25.4311 68.4131 25.382 68.3221 25.3507C68.0613 25.2781 67.7886 25.2573 67.5196 25.2895L67.516 27.8019Z" fill="black"/>
<path id="Vector_12" d="M95.8978 14.6083L97.4721 12.9363C97.5028 12.9885 97.5227 13.0173 97.5372 13.0479C97.9257 13.9032 98.2436 14.7886 98.4879 15.6953C98.6276 16.2166 98.6843 16.7565 98.656 17.2952C98.6191 17.9109 98.3567 18.4917 97.9185 18.9276C97.5037 19.337 97.032 19.6849 96.5178 19.9606C95.7948 20.3673 95.0719 20.7579 94.3489 21.1556L93.9874 21.3536C93.9344 20.6818 93.926 20.0072 93.9621 19.3343C94.1736 19.2047 94.3959 19.0751 94.6128 18.9348C95.0357 18.6612 95.4586 18.3949 95.878 18.1051C96.0059 18.0129 96.1268 17.9112 96.2394 17.801C96.4139 17.6468 96.5414 17.447 96.6075 17.2244C96.6737 17.0017 96.6758 16.765 96.6136 16.5412C96.5101 16.1357 96.376 15.7386 96.2123 15.3534C96.0967 15.1176 95.9991 14.8638 95.8978 14.6083Z" fill="black"/>
<path id="Vector_13" d="M62.6758 21.35C62.6758 21.278 62.6649 21.2258 62.6649 21.17C62.6649 20.6193 62.6649 20.0686 62.6649 19.5179C62.6609 19.4594 62.6746 19.401 62.7043 19.3503C62.7339 19.2996 62.7781 19.2589 62.8312 19.2335C63.359 18.9096 63.8849 18.5838 64.3982 18.2419C64.615 18.0912 64.8177 17.9213 65.0037 17.7344C65.1521 17.5927 65.2609 17.4149 65.3192 17.2186C65.3775 17.0223 65.3834 16.8142 65.3363 16.6149C65.2597 16.2585 65.1508 15.9097 65.011 15.5729C64.8881 15.2544 64.7597 14.9394 64.6278 14.6065L66.1966 12.9363C66.2181 12.964 66.238 12.9929 66.2563 13.0227C66.6626 13.9104 66.9904 14.8318 67.2359 15.7763C67.349 16.2233 67.403 16.6831 67.3967 17.1441C67.3899 17.8039 67.1277 18.4356 66.6647 18.9078C66.2954 19.286 65.8721 19.608 65.4086 19.8634C64.5356 20.3565 63.6536 20.8335 62.7752 21.3158C62.7432 21.3303 62.7099 21.3417 62.6758 21.35Z" fill="black"/>
<path id="Vector_14" d="M52.9013 9.82103C51.463 9.75224 50.0226 9.89968 48.6285 10.2584C47.2368 10.6381 45.9825 11.3166 44.7281 12.0581C44.719 12.0075 44.7129 11.9564 44.7101 11.9051C44.7101 11.331 44.7101 10.7569 44.7101 10.181C44.7072 10.1312 44.7176 10.0815 44.7401 10.037C44.7626 9.99245 44.7965 9.95459 44.8384 9.92721C45.4494 9.44025 46.129 9.04549 46.8555 8.7556C47.5982 8.46182 48.3718 8.25233 49.1617 8.1311C49.7775 8.02975 50.3995 7.96963 51.0234 7.95113C51.6252 7.93853 52.2253 7.92953 52.8308 7.92053C52.8533 7.92238 52.8757 7.92599 52.8976 7.93133C52.9369 8.56059 52.9381 9.19163 52.9013 9.82103Z" fill="black"/>
<path id="Vector_15" d="M87.8712 26.3496L89.5105 26.2308V30.8506C88.9692 30.8931 88.4257 30.8974 87.8838 30.8632V30.2171L87.8495 30.2063L87.7121 30.3593C87.5147 30.5958 87.2561 30.774 86.9643 30.8746C86.6724 30.9751 86.3585 30.9942 86.0565 30.9298C85.8263 30.9053 85.613 30.798 85.4566 30.628C85.3002 30.458 85.2114 30.2371 85.207 30.0066C85.207 29.9346 85.207 29.8626 85.207 29.7906V26.3496L86.8482 26.2308V26.4557C86.8482 27.514 86.8482 28.574 86.8482 29.6322C86.8466 29.7455 86.855 29.8588 86.8735 29.9706C86.8762 30.0099 86.8876 30.0481 86.9069 30.0826C86.9261 30.1171 86.9526 30.1469 86.9847 30.1701C87.0167 30.1933 87.0535 30.2092 87.0923 30.2167C87.1312 30.2242 87.1712 30.2231 87.2097 30.2135C87.3056 30.2012 87.397 30.1655 87.4758 30.1096C87.5546 30.0537 87.6184 29.9794 87.6615 29.8932C87.7635 29.7025 87.825 29.493 87.8422 29.2777C87.8658 29.0637 87.8784 28.8487 87.8802 28.6334C87.8802 27.9459 87.8802 27.2584 87.8802 26.5709L87.8712 26.3496Z" fill="black"/>
<path id="Vector_16" d="M49.8232 31C49.5918 30.9658 49.3261 30.9478 49.0695 30.8884C48.7512 30.8263 48.4569 30.676 48.2206 30.4547C47.9843 30.2334 47.8156 29.9502 47.7338 29.6376C47.535 28.9799 47.5294 28.2792 47.7176 27.6184C47.7978 27.2805 47.977 26.9741 48.2326 26.7379C48.4881 26.5017 48.8083 26.3465 49.1526 26.292C49.6133 26.1957 50.0891 26.1957 50.5498 26.292C50.9006 26.3456 51.2271 26.5032 51.4866 26.7443C51.7462 26.9854 51.9267 27.2988 52.0047 27.6436C52.1816 28.2887 52.1766 28.9699 51.9903 29.6124C51.9042 29.952 51.7181 30.2582 51.4559 30.4916C51.1938 30.7251 50.8675 30.8752 50.519 30.9226C50.3003 30.955 50.078 30.9712 49.8232 31ZM49.3189 28.6028C49.3189 28.8242 49.3045 29.0473 49.3189 29.2669C49.3404 29.5229 49.3754 29.7776 49.4238 30.03C49.4489 30.1465 49.4896 30.259 49.5448 30.3647C49.5671 30.4276 49.6077 30.4825 49.6615 30.5222C49.7153 30.562 49.7798 30.5849 49.8467 30.5879C49.9162 30.5843 49.9832 30.5609 50.0396 30.5203C50.096 30.4798 50.1395 30.4239 50.1648 30.3593C50.2014 30.291 50.231 30.2193 50.2534 30.1452C50.2842 30.0423 50.309 29.9378 50.3275 29.832C50.4171 29.1796 50.4365 28.5196 50.3853 27.8631C50.3709 27.6365 50.3383 27.4114 50.2877 27.19C50.2555 27.0445 50.1993 26.9052 50.1214 26.7779C50.0976 26.7262 50.0594 26.6824 50.0114 26.6517C49.9633 26.621 49.9074 26.6047 49.8503 26.6047C49.7932 26.6047 49.7373 26.621 49.6892 26.6517C49.6412 26.6824 49.603 26.7262 49.5792 26.7779C49.5062 26.901 49.4526 27.0346 49.4201 27.1738C49.3212 27.6434 49.2872 28.1241 49.3189 28.6028Z" fill="black"/>
<path id="Vector_17" d="M54.8479 31C54.6093 30.9658 54.3309 30.946 54.0653 30.8812C53.7536 30.8156 53.4664 30.6652 53.2356 30.4465C53.0049 30.2279 52.8397 29.9497 52.7585 29.643C52.5514 28.9624 52.5514 28.2359 52.7585 27.5553C52.8441 27.2371 53.0189 26.9496 53.2625 26.7265C53.506 26.5035 53.8083 26.354 54.1339 26.2955C54.6103 26.1917 55.1035 26.1917 55.5799 26.2955C55.9301 26.3525 56.2552 26.5127 56.513 26.7556C56.7707 26.9985 56.9494 27.3128 57.0258 27.6579C57.193 28.2799 57.193 28.9347 57.0258 29.5566C56.9489 29.905 56.7676 30.222 56.5058 30.4656C56.2441 30.7092 55.9143 30.8679 55.56 30.9208C55.3431 30.955 55.1136 30.9694 54.8479 31ZM55.419 28.6154C55.419 28.3814 55.428 28.1474 55.419 27.9153C55.4135 27.6096 55.363 27.3064 55.269 27.0154C55.2319 26.9088 55.1762 26.8095 55.1045 26.7221C55.0785 26.6885 55.0451 26.6613 55.0069 26.6425C54.9687 26.6238 54.9266 26.6141 54.884 26.6141C54.8414 26.6141 54.7994 26.6238 54.7611 26.6425C54.7229 26.6613 54.6895 26.6885 54.6635 26.7221C54.6058 26.7824 54.5615 26.8542 54.5334 26.9326C54.4792 27.0787 54.4381 27.2293 54.4105 27.3826C54.321 28.0223 54.301 28.6697 54.3508 29.3137C54.3663 29.5522 54.4002 29.7893 54.452 30.0227C54.4813 30.1633 54.5345 30.2978 54.6093 30.4205C54.6331 30.4735 54.6717 30.5185 54.7206 30.5501C54.7696 30.5817 54.8266 30.5985 54.8849 30.5985C54.9432 30.5985 55.0003 30.5817 55.0492 30.5501C55.0981 30.5185 55.1368 30.4735 55.1605 30.4205C55.2299 30.3019 55.2816 30.174 55.3142 30.0407C55.414 29.5726 55.4493 29.093 55.419 28.6154Z" fill="black"/>
<path id="Vector_18" d="M79.4811 28.4588C79.4874 28.8397 79.443 29.2197 79.3492 29.589C79.2692 29.9143 79.0976 30.21 78.8546 30.4415C78.6116 30.6729 78.3072 30.8305 77.9774 30.8956C77.4485 31.022 76.8964 31.0158 76.3706 30.8776C76.0514 30.8041 75.7595 30.6426 75.5284 30.4115C75.2973 30.1804 75.1363 29.8891 75.0638 29.571C74.8955 28.9559 74.8905 28.3079 75.0493 27.6903C75.1207 27.3346 75.3001 27.0094 75.5632 26.7586C75.8264 26.5078 76.1606 26.3437 76.5206 26.2883C77.0044 26.1853 77.5053 26.1915 77.9864 26.3063C78.3343 26.3764 78.6529 26.5492 78.9008 26.8022C79.1487 27.0551 79.3144 27.3765 79.3763 27.7245C79.4236 27.9674 79.4586 28.2124 79.4811 28.4588ZM76.6363 28.4588C76.6561 28.8763 76.6597 29.1589 76.6832 29.4378C76.6934 29.7438 76.7583 30.0454 76.8748 30.3287C76.896 30.4014 76.9391 30.4659 76.9982 30.5135C77.0574 30.5612 77.1297 30.5896 77.2056 30.595C77.2832 30.5931 77.358 30.5655 77.4182 30.5166C77.4784 30.4678 77.5206 30.4004 77.5382 30.3251C77.6058 30.1466 77.6566 29.9622 77.69 29.7744C77.7736 29.194 77.7943 28.6063 77.7514 28.0215C77.7328 27.7529 77.6996 27.4856 77.652 27.2206C77.631 27.0471 77.5636 26.8824 77.4568 26.7437C77.43 26.7032 77.3935 26.67 77.3506 26.647C77.3077 26.624 77.2597 26.612 77.211 26.612C77.1623 26.612 77.1144 26.624 77.0715 26.647C77.0286 26.67 76.992 26.7032 76.9652 26.7437C76.9202 26.7976 76.8842 26.8583 76.8586 26.9236C76.8088 27.0452 76.773 27.172 76.7519 27.3016C76.6995 27.7299 76.6652 28.1582 76.6344 28.4516L76.6363 28.4588Z" fill="black"/>
<path id="Vector_19" d="M97.7324 29.4559L98.5511 29.2903C98.5511 29.3551 98.5511 29.4073 98.5511 29.4559C98.5376 29.7064 98.6168 29.9531 98.7737 30.1495C98.9305 30.3458 99.1542 30.4781 99.4024 30.5213C99.5623 30.5456 99.7251 30.5456 99.885 30.5213C99.9692 30.5141 100.049 30.4812 100.114 30.4271C100.178 30.3729 100.225 30.3003 100.246 30.2189C100.28 30.1372 100.284 30.0467 100.259 29.962C100.234 29.8774 100.182 29.8036 100.109 29.7528C99.9367 29.6252 99.7555 29.5098 99.5669 29.4073C99.3446 29.2885 99.1078 29.1967 98.8855 29.0797C98.5941 28.9352 98.3371 28.7302 98.1318 28.4786C98.0022 28.3198 97.9134 28.1319 97.873 27.9312C97.8327 27.7305 97.8421 27.5231 97.9004 27.3268C97.9529 27.1356 98.0544 26.9613 98.1951 26.8211C98.3696 26.6372 98.5833 26.4946 98.8204 26.4036C99.3904 26.1803 100.019 26.1537 100.606 26.328C100.866 26.3969 101.097 26.548 101.264 26.7586C101.43 26.9692 101.524 27.228 101.53 27.496L100.765 27.6274C100.749 27.5122 100.736 27.4114 100.718 27.3142C100.699 27.1394 100.62 26.9764 100.494 26.8531C100.369 26.7297 100.204 26.6535 100.028 26.6375C99.8676 26.616 99.7053 26.616 99.5452 26.6375C99.4638 26.6476 99.3876 26.6832 99.3279 26.7391C99.2681 26.7951 99.2277 26.8685 99.2126 26.9489C99.1897 27.0242 99.1908 27.1049 99.2157 27.1796C99.2406 27.2544 99.2882 27.3196 99.3518 27.3664C99.4645 27.4615 99.5854 27.5465 99.7133 27.6202C99.8814 27.7101 100.059 27.7857 100.236 27.8613C100.572 27.9968 100.887 28.1785 101.172 28.4012C101.318 28.5025 101.442 28.6317 101.537 28.7813C101.632 28.9308 101.697 29.0977 101.727 29.2723C101.814 29.9922 101.521 30.6041 100.8 30.8416C100.379 30.9723 99.9368 31.0188 99.4982 30.9784C99.1895 30.9651 98.8846 30.9044 98.5945 30.7984C98.3224 30.7004 98.0904 30.5157 97.9345 30.2729C97.7786 30.0302 97.7075 29.7429 97.7324 29.4559Z" fill="black"/>
<path id="Vector_20" d="M95.07 26.8499H94.5278V26.3568H95.061V25.5559C95.6331 25.391 96.1852 25.1641 96.7075 24.8792C96.7202 25.1402 96.7075 25.3741 96.7075 25.6099C96.7075 25.8457 96.7075 26.0868 96.7075 26.3496H97.4305V26.8517H96.7202C96.7202 26.9327 96.7202 26.9921 96.7202 27.0497V30.0102C96.7211 30.0821 96.7283 30.1537 96.7419 30.2243C96.7478 30.2629 96.7662 30.2985 96.7942 30.3258C96.8223 30.3531 96.8585 30.3705 96.8973 30.3755C96.9371 30.3816 96.9778 30.3726 97.0113 30.3503C97.0447 30.3279 97.0686 30.2939 97.0781 30.2549L97.1088 30.183L97.5516 30.2261C97.5267 30.3326 97.4802 30.4329 97.4149 30.5208C97.3497 30.6087 97.267 30.6824 97.1721 30.7373C97.0156 30.8276 96.8421 30.8846 96.6624 30.9046C96.3646 30.9508 96.0604 30.9342 95.7695 30.856C95.5856 30.8157 95.42 30.7164 95.2982 30.5734C95.1764 30.4303 95.1052 30.2514 95.0953 30.0642C95.083 29.9633 95.0769 29.8617 95.0773 29.76V26.8499H95.07Z" fill="black"/>
<path id="Vector_21" d="M93.7163 28.8637L94.3905 29.0689C94.4411 29.4823 94.3596 29.9011 94.1573 30.2657C94.0504 30.4369 93.9078 30.5832 93.7391 30.6947C93.5703 30.8062 93.3795 30.8802 93.1795 30.9118C92.6659 31.0235 92.1327 31.0106 91.6252 30.874C91.3175 30.8018 91.0362 30.6457 90.8127 30.4232C90.5893 30.2006 90.4325 29.9205 90.36 29.6142C90.1929 29.0258 90.1929 28.4029 90.36 27.8145C90.4814 27.3653 90.7445 26.9667 91.1106 26.6777C91.4767 26.3887 91.9264 26.2244 92.3933 26.2092C92.6572 26.1947 92.9219 26.2074 93.1831 26.2469C93.8844 26.3639 94.2839 26.8894 94.2405 27.6255L93.4922 27.9855C93.4922 27.8505 93.4922 27.7497 93.4922 27.6489C93.4847 27.4521 93.4636 27.2561 93.4289 27.0622C93.412 26.9482 93.3597 26.8423 93.2793 26.7594C93.199 26.6764 93.0945 26.6206 92.9807 26.5997C92.8538 26.5689 92.7205 26.5771 92.5983 26.623C92.4761 26.6689 92.3706 26.7505 92.2957 26.857C92.1744 27.0288 92.0918 27.2247 92.0535 27.4312C91.9516 27.955 91.9224 28.4903 91.9668 29.0221C91.9812 29.2885 92.021 29.562 92.0535 29.823C92.0648 29.894 92.0823 29.9638 92.1059 30.0317C92.1396 30.1828 92.2233 30.3182 92.3436 30.4161C92.4639 30.5141 92.6139 30.5689 92.7692 30.5716C92.9345 30.5961 93.1033 30.5696 93.253 30.4956C93.4026 30.4216 93.5258 30.3036 93.6061 30.1577C93.6992 29.9823 93.7493 29.7874 93.7525 29.589C93.7525 29.409 93.7398 29.2201 93.7326 29.0347L93.7163 28.8637Z" fill="black"/>
<path id="Vector_22" d="M74.4745 27.9747H73.3395C73.3702 27.8541 73.3973 27.7443 73.4244 27.6364C73.4532 27.539 73.4749 27.4398 73.4895 27.3394C73.4977 27.2562 73.4885 27.1723 73.4624 27.0929C73.4543 27.0637 73.4383 27.0372 73.4163 27.0163C73.3943 26.9954 73.367 26.9809 73.3373 26.9742C73.3076 26.9676 73.2766 26.969 73.2477 26.9785C73.2188 26.988 73.1931 27.0051 73.1732 27.0281C73.1153 27.0886 73.0682 27.1586 73.034 27.235C72.9031 27.5252 72.8372 27.8402 72.8406 28.1583C72.8406 28.9052 72.8406 29.6538 72.8406 30.4007C72.8406 30.5159 72.8406 30.6293 72.8406 30.7427C72.8386 30.786 72.8344 30.8293 72.828 30.8722H71.2212C71.185 30.7337 71.1796 26.5529 71.2121 26.3622L72.8388 26.247V26.8949L72.8732 26.9039C72.8983 26.8599 72.9267 26.8177 72.9581 26.7779C73.0557 26.6492 73.164 26.5288 73.2816 26.418C73.4021 26.3166 73.5478 26.2495 73.7034 26.2239C73.859 26.1982 74.0186 26.2149 74.1655 26.2722C74.2698 26.3049 74.3631 26.3658 74.4349 26.4481C74.5066 26.5304 74.5542 26.6308 74.5721 26.7383C74.6075 26.8892 74.6197 27.0445 74.6083 27.199C74.5848 27.46 74.5233 27.7156 74.4745 27.9747Z" fill="black"/>
<path id="Vector_23" d="M100.946 6.89826L99.4747 6.6697C99.422 6.52624 99.4175 6.36957 99.4621 6.22337C99.5088 5.88383 99.6408 5.56151 99.8458 5.28625C100.051 5.01099 100.322 4.79168 100.635 4.64863C100.925 4.52319 101.247 4.49171 101.555 4.55864C101.862 4.60723 102.166 4.67742 102.473 4.73861C102.538 4.75066 102.604 4.75907 102.67 4.76381C102.833 4.78738 102.998 4.75533 103.14 4.67292C103.281 4.59051 103.39 4.46263 103.449 4.31028C103.476 4.25269 103.507 4.1951 103.543 4.13031L104.989 4.42006C105.012 4.60194 104.992 4.7865 104.933 4.95998C104.828 5.38818 104.587 5.77126 104.246 6.0524C104.092 6.18626 103.908 6.28297 103.71 6.33508C103.512 6.38719 103.305 6.3933 103.104 6.35295C102.721 6.28276 102.336 6.22337 101.955 6.14958C101.822 6.11464 101.683 6.1221 101.555 6.1709C101.428 6.2197 101.319 6.30734 101.244 6.42134C101.139 6.56172 101.054 6.72009 100.946 6.89826Z" fill="black"/>
<path id="Vector_24" d="M79.3709 11.2788C79.1304 11.2745 78.8965 11.1994 78.6988 11.063C78.5011 10.9266 78.3484 10.735 78.2599 10.5122C78.1714 10.2895 78.1511 10.0457 78.2015 9.81151C78.252 9.57733 78.371 9.36326 78.5434 9.19629C78.7159 9.02932 78.9341 8.91693 79.1706 8.87328C79.4071 8.82963 79.6513 8.85668 79.8724 8.95102C80.0935 9.04535 80.2816 9.20276 80.413 9.40338C80.5444 9.60401 80.6132 9.83887 80.6108 10.0784C80.6096 10.2386 80.5765 10.397 80.5133 10.5443C80.4502 10.6917 80.3583 10.8251 80.2429 10.9367C80.1276 11.0484 79.9911 11.1362 79.8414 11.1949C79.6917 11.2536 79.5317 11.2821 79.3709 11.2788Z" fill="black"/>
<path id="Vector_25" d="M37.052 8.87977C37.3722 8.87928 37.6796 9.00513 37.9069 9.22975C38.1342 9.45438 38.2629 9.75951 38.2648 10.0784C38.2725 10.2415 38.247 10.4046 38.19 10.5577C38.133 10.7109 38.0455 10.851 37.9328 10.9697C37.8202 11.0884 37.6846 11.1833 37.5343 11.2487C37.3839 11.314 37.2219 11.3485 37.0579 11.3501C36.8938 11.3517 36.7312 11.3203 36.5796 11.2578C36.428 11.1954 36.2907 11.1031 36.1757 10.9866C36.0608 10.87 35.9706 10.7316 35.9106 10.5796C35.8506 10.4276 35.822 10.265 35.8266 10.1018C35.8246 9.94091 35.855 9.78129 35.9159 9.63228C35.9768 9.48326 36.0669 9.34786 36.1811 9.23403C36.2952 9.12019 36.4311 9.03022 36.5806 8.96938C36.7302 8.90854 36.8905 8.87808 37.052 8.87977Z" fill="black"/>
<path id="Vector_26" d="M89.2195 18.8681C89.541 18.8715 89.848 19.0016 90.0733 19.23C90.2987 19.4584 90.4238 19.7664 90.4214 20.0865C90.421 20.3279 90.3485 20.5637 90.2132 20.764C90.0778 20.9642 89.8856 21.1198 89.6612 21.211C89.4368 21.3022 89.1901 21.3249 88.9527 21.2761C88.7153 21.2273 88.4978 21.1093 88.328 20.9371C88.1581 20.7649 88.0435 20.5463 87.9988 20.3091C87.954 20.0718 87.9812 19.8267 88.0768 19.6049C88.1724 19.3831 88.332 19.1946 88.5355 19.0634C88.739 18.9322 88.9771 18.8642 89.2195 18.8681Z" fill="black"/>
<path id="Vector_27" d="M93.0674 20.0776C93.0679 20.2377 93.0365 20.3963 92.975 20.5443C92.9136 20.6922 92.8232 20.8266 92.7093 20.9395C92.5953 21.0525 92.46 21.1419 92.3111 21.2024C92.1622 21.263 92.0028 21.2936 91.842 21.2924C91.678 21.2972 91.5147 21.269 91.3619 21.2095C91.2091 21.15 91.0699 21.0605 90.9526 20.9462C90.8354 20.8319 90.7425 20.6952 90.6795 20.5444C90.6165 20.3935 90.5848 20.2316 90.5861 20.0682C90.5874 19.9048 90.6219 19.7434 90.6873 19.5936C90.7527 19.4437 90.8479 19.3086 90.967 19.1962C91.0861 19.0839 91.2267 18.9966 91.3805 18.9396C91.5342 18.8826 91.698 18.8571 91.8619 18.8646C92.1829 18.8674 92.4898 18.9965 92.7156 19.2237C92.9415 19.451 93.0679 19.7579 93.0674 20.0776Z" fill="black"/>
<path id="Vector_28" d="M38.4094 6.33319C38.7305 6.3365 39.0373 6.46571 39.2633 6.69278C39.4893 6.91985 39.6163 7.22649 39.6168 7.54619C39.6111 7.86863 39.479 8.17606 39.2486 8.40275C39.0182 8.62943 38.708 8.75737 38.3841 8.7592C38.0618 8.75541 37.754 8.62512 37.5276 8.39665C37.3012 8.16817 37.1744 7.85997 37.1749 7.53899C37.1744 7.37852 37.2062 7.21956 37.2683 7.0715C37.3305 6.92343 37.4217 6.78925 37.5368 6.67688C37.6518 6.5645 37.7883 6.47619 37.9382 6.41716C38.0881 6.35814 38.2483 6.32958 38.4094 6.33319Z" fill="black"/>
<path id="Vector_29" d="M39.7631 8.87976C40.0039 8.87941 40.2393 8.95007 40.4397 9.08283C40.6401 9.21558 40.7965 9.40448 40.8892 9.62567C40.9819 9.84687 41.0067 10.0905 40.9605 10.3257C40.9142 10.5609 40.7991 10.7772 40.6295 10.9473C40.4599 11.1174 40.2436 11.2337 40.0077 11.2814C39.7718 11.3292 39.527 11.3063 39.3042 11.2157C39.0814 11.125 38.8905 10.9707 38.7557 10.7721C38.6209 10.5735 38.5482 10.3396 38.5468 10.1C38.5458 9.77761 38.6734 9.46806 38.9014 9.23927C39.1295 9.01049 39.4394 8.88119 39.7631 8.87976Z" fill="black"/>
<path id="Vector_30" d="M59.0609 14.907C58.9723 14.907 58.9199 14.9196 58.8675 14.9196H57.6023C57.5345 14.9276 57.4657 14.9202 57.4011 14.8981C57.3365 14.8759 57.2778 14.8395 57.2293 14.7916C57.1808 14.7436 57.1438 14.6854 57.1211 14.6213C57.0984 14.5571 57.0905 14.4887 57.0981 14.4211C57.0923 14.2738 57.1237 14.1275 57.1894 13.9955C57.2551 13.8634 57.3529 13.7499 57.474 13.6652C57.5236 13.6233 57.5811 13.5918 57.6431 13.5724C57.7051 13.553 57.7704 13.5463 57.8351 13.5525C57.8999 13.5587 57.9627 13.5777 58.0198 13.6085C58.077 13.6393 58.1274 13.6812 58.168 13.7318C58.2053 13.7707 58.2397 13.8122 58.2711 13.8559C58.497 14.1511 58.7211 14.448 58.9452 14.7432C58.9814 14.7864 59.0085 14.8314 59.0609 14.907Z" fill="white"/>
<path id="Vector_31" d="M81.6952 28.5002C81.7078 28.1583 81.7151 27.8181 81.735 27.478C81.744 27.3593 81.7671 27.2421 81.8036 27.1288C81.8214 27.058 81.8615 26.9948 81.9182 26.9484C81.9748 26.9021 82.0449 26.8751 82.1181 26.8715C82.1924 26.8668 82.2663 26.8841 82.3307 26.9213C82.395 26.9584 82.4469 27.0137 82.4796 27.0803C82.5745 27.2609 82.6252 27.4613 82.6278 27.6652C82.673 28.3347 82.6513 29.0059 82.6278 29.6754C82.6202 29.8121 82.5896 29.9465 82.5374 30.0732C82.5126 30.148 82.4638 30.2127 82.3985 30.2572C82.3332 30.3017 82.255 30.3237 82.176 30.3197C82.0972 30.3227 82.0195 30.3014 81.9532 30.259C81.8869 30.2165 81.8354 30.1548 81.8054 30.0822C81.732 29.9175 81.6962 29.7386 81.7006 29.5585C81.7006 29.1985 81.7006 28.853 81.7006 28.5002H81.6952Z" fill="white"/>
<path id="Vector_32" d="M59.3574 28.6964C59.37 28.2195 59.3736 27.8613 59.3953 27.5032C59.4009 27.3656 59.4296 27.2299 59.4803 27.1018C59.5044 27.0389 59.5459 26.9839 59.5999 26.9433C59.6539 26.9026 59.7183 26.8779 59.7857 26.8719C59.8532 26.8658 59.9209 26.8788 59.9813 26.9093C60.0417 26.9398 60.0923 26.9865 60.1273 27.0442C60.2289 27.2014 60.2857 27.383 60.2918 27.5698C60.3415 28.2918 60.3415 29.0164 60.2918 29.7384C60.2823 29.8514 60.2561 29.9624 60.2141 30.0678C60.1902 30.1436 60.1418 30.2094 60.0764 30.255C60.011 30.3006 59.9323 30.3233 59.8526 30.3197C59.7704 30.3262 59.6883 30.3054 59.6193 30.2604C59.5503 30.2155 59.4982 30.149 59.4712 30.0714C59.4225 29.9499 59.392 29.8219 59.3809 29.6916C59.3682 29.3209 59.3646 28.9501 59.3574 28.6964Z" fill="white"/>
<path id="Vector_33" d="M67.516 27.8019V25.2949C67.7849 25.2627 68.0576 25.2835 68.3185 25.3561C68.4101 25.3882 68.4943 25.4384 68.5661 25.5037C68.6378 25.5689 68.6956 25.6479 68.736 25.7359C68.7938 25.8498 68.8363 25.9708 68.8625 26.0958C68.9293 26.4432 68.9132 26.8014 68.8155 27.1414C68.7707 27.3332 68.66 27.5034 68.5026 27.6227C68.3452 27.742 68.151 27.8028 67.9534 27.7947C67.8124 27.8037 67.675 27.8019 67.516 27.8019Z" fill="white"/>
<path id="Vector_34" d="M49.3189 28.6028C49.2893 28.125 49.3251 27.6455 49.4256 27.1774C49.458 27.0381 49.5116 26.9046 49.5846 26.7815C49.6084 26.7298 49.6466 26.686 49.6946 26.6553C49.7427 26.6245 49.7986 26.6082 49.8557 26.6082C49.9128 26.6082 49.9687 26.6245 50.0168 26.6553C50.0648 26.686 50.103 26.7298 50.1268 26.7815C50.2048 26.9087 50.261 27.048 50.2931 27.1936C50.3437 27.415 50.3763 27.6401 50.3907 27.8667C50.4419 28.5232 50.4226 29.1832 50.3329 29.8356C50.3144 29.9413 50.2896 30.0459 50.2588 30.1487C50.2365 30.2229 50.2068 30.2946 50.1702 30.3629C50.1449 30.4274 50.1014 30.4833 50.045 30.5239C49.9886 30.5644 49.9216 30.5879 49.8521 30.5914C49.7852 30.5884 49.7207 30.5656 49.6669 30.5258C49.6131 30.486 49.5725 30.4312 49.5503 30.3683C49.495 30.2626 49.4543 30.15 49.4292 30.0335C49.3808 29.7812 49.3458 29.5265 49.3243 29.2705C49.3045 29.0473 49.3189 28.8241 49.3189 28.6028Z" fill="white"/>
<path id="Vector_35" d="M55.419 28.6154C55.4481 29.0932 55.4116 29.5727 55.3106 30.0408C55.278 30.174 55.2262 30.302 55.1569 30.4205C55.1332 30.4735 55.0945 30.5185 55.0456 30.5501C54.9967 30.5817 54.9396 30.5986 54.8813 30.5986C54.823 30.5986 54.7659 30.5817 54.717 30.5501C54.6681 30.5185 54.6294 30.4735 54.6057 30.4205C54.5309 30.2978 54.4777 30.1633 54.4484 30.0228C54.3965 29.7893 54.3627 29.5523 54.3472 29.3137C54.2974 28.6697 54.3174 28.0223 54.4068 27.3826C54.4344 27.2293 54.4756 27.0787 54.5298 26.9327C54.5579 26.8542 54.6022 26.7824 54.6599 26.7221C54.6859 26.6885 54.7193 26.6613 54.7575 26.6425C54.7957 26.6238 54.8378 26.6141 54.8804 26.6141C54.923 26.6141 54.965 26.6238 55.0033 26.6425C55.0415 26.6613 55.0749 26.6885 55.1009 26.7221C55.1726 26.8095 55.2283 26.9088 55.2654 27.0154C55.3594 27.3065 55.4099 27.6097 55.4154 27.9153C55.428 28.1421 55.419 28.376 55.419 28.6154Z" fill="white"/>
<path id="Vector_36" d="M76.6344 28.4516C76.6633 28.1583 76.6977 27.7317 76.7483 27.3034C76.7694 27.1738 76.8051 27.047 76.8549 26.9255C76.8805 26.8602 76.9165 26.7994 76.9615 26.7455C76.9884 26.705 77.0249 26.6718 77.0678 26.6488C77.1107 26.6259 77.1586 26.6138 77.2074 26.6138C77.2561 26.6138 77.304 26.6259 77.3469 26.6488C77.3898 26.6718 77.4263 26.705 77.4532 26.7455C77.56 26.8842 77.6274 27.0489 77.6484 27.2224C77.6959 27.4874 77.7291 27.7547 77.7478 28.0233C77.7906 28.6081 77.77 29.1958 77.6863 29.7762C77.6529 29.964 77.6021 30.1484 77.5345 30.3269C77.5156 30.4006 77.4731 30.4661 77.4134 30.5136C77.3537 30.561 77.2801 30.5877 77.2037 30.5897C77.1279 30.5842 77.0555 30.5558 76.9964 30.5081C76.9373 30.4605 76.8942 30.396 76.873 30.3233C76.7564 30.0401 76.6915 29.7384 76.6814 29.4324C76.6597 29.1553 76.6561 28.8691 76.6344 28.4516Z" fill="white"/>
</g>
<defs>
<clipPath id="clip0_75_1145">
<rect width="105" height="31" fill="white"/>
</clipPath>
</defs>
</svg>
