<svg width="105" height="31" viewBox="0 0 105 31" fill="none" xmlns="http://www.w3.org/2000/svg">
<g id="Layer_1" clip-path="url(#clip0_75_1224)">
<path id="Vector" d="M10.0528 0L9.89921 0.271756C9.38771 1.2076 8.87079 2.13985 8.36472 3.0775C8.3281 3.15448 8.26944 3.21896 8.19611 3.26283C8.12279 3.3067 8.03808 3.328 7.95263 3.32406C7.77654 3.32472 7.6051 3.26782 7.46462 3.16209L6.45789 2.44221C6.40729 2.40621 6.35306 2.37382 6.27715 2.32342C6.29703 2.471 6.31149 2.58258 6.32776 2.69416C6.44163 3.48064 6.55911 4.26711 6.67298 5.05538C6.81215 6.01283 6.9477 6.97207 7.08687 7.93492C7.09667 7.98778 7.10211 8.04135 7.10314 8.09509C7.10314 8.30746 6.95674 8.38844 6.776 8.27506C6.70941 8.22785 6.64873 8.17286 6.59526 8.11129L4.53119 5.99843C4.48962 5.95704 4.44624 5.91924 4.39563 5.86885L4.26188 6.03263L3.57687 6.91268C3.51498 6.99574 3.43244 7.06133 3.33736 7.10298C3.24229 7.14464 3.13796 7.16092 3.03465 7.15025C2.83764 7.13945 2.64063 7.10525 2.44543 7.08006L0.947085 6.88209C0.912806 6.87919 0.878342 6.87919 0.844063 6.88209C0.863944 6.99187 0.880211 7.09085 0.9019 7.18804C1.08445 7.99251 1.24712 8.78798 1.42244 9.58165C1.44707 9.64971 1.45613 9.72239 1.44896 9.79438C1.44179 9.86637 1.41856 9.93586 1.38098 9.99778C1.34339 10.0597 1.2924 10.1125 1.23172 10.1523C1.17103 10.192 1.1022 10.2178 1.03023 10.2277C0.728388 10.3051 0.43378 10.4077 0.135556 10.5013C0.089417 10.5182 0.0441728 10.5374 0 10.5589L0.139171 10.6777C1.7056 11.9687 3.27202 13.2585 4.83845 14.5471C4.96552 14.6469 5.08237 14.759 5.18728 14.8818C5.3148 15.0124 5.39211 15.1835 5.40566 15.3651C5.41921 15.5467 5.36813 15.7273 5.26139 15.8752C5.14752 16.0714 5.02823 16.2658 4.91255 16.4619C4.88725 16.5051 4.86556 16.5537 4.83122 16.6239L5.34995 16.5573L6.52658 16.4008L7.98877 16.1974C8.39906 16.1398 8.80753 16.084 9.21962 16.03C9.29969 16.0254 9.37995 16.0254 9.46001 16.03C9.37446 18.3624 9.28951 20.6817 9.20516 22.9877C9.77456 23.2943 10.3646 23.5613 10.971 23.7868C10.9457 23.1425 10.9204 22.4964 10.8933 21.8521C10.8662 21.2078 10.8373 20.5617 10.8083 19.9174C10.7794 19.2731 10.7487 18.6144 10.7288 17.9629C10.7089 17.3114 10.6637 16.6725 10.6637 15.9994L15.2925 16.6239C15.2528 16.5465 15.2293 16.4943 15.2004 16.4439C15.0775 16.237 14.9527 16.0336 14.8389 15.8266C14.7546 15.6973 14.7133 15.5448 14.7208 15.3907C14.7282 15.2367 14.7841 15.0889 14.8804 14.9682C14.9758 14.836 15.0862 14.7152 15.2094 14.6082C15.6414 14.2483 16.0788 13.8884 16.5144 13.5284L19.9755 10.6777C20.0244 10.6381 20.0677 10.5949 20.1292 10.5409L19.9828 10.4887C19.6791 10.3951 19.3737 10.3087 19.0791 10.208C18.7429 10.1018 18.6417 9.9236 18.7176 9.58165C18.8971 8.74179 19.0779 7.90612 19.2598 7.07466C19.2743 7.01167 19.2815 6.94868 19.296 6.86229L18.7411 6.93608C18.2121 7.00447 17.6819 7.07106 17.1506 7.13585C17.0905 7.1424 17.0299 7.1424 16.9698 7.13585C16.8802 7.12357 16.7942 7.09272 16.7173 7.04529C16.6404 6.99786 16.5743 6.93491 16.5234 6.86049L15.8619 6.00743C15.8257 5.96244 15.786 5.91924 15.7426 5.86525C15.6974 5.90665 15.6613 5.93544 15.6287 5.96784L14.4629 7.17004C14.1575 7.48319 13.8538 7.79814 13.5448 8.10949C13.4798 8.18131 13.4035 8.2421 13.3188 8.28946C13.1869 8.35605 13.0821 8.28946 13.0568 8.14908C13.0495 8.09593 13.0495 8.04206 13.0568 7.98891C13.1164 7.55698 13.1797 7.12505 13.2375 6.69312C13.3387 5.98163 13.4411 5.27135 13.5448 4.56226C13.6442 3.86938 13.7472 3.17829 13.8484 2.4854C13.8512 2.43264 13.8512 2.37978 13.8484 2.32702C13.7815 2.37022 13.7309 2.40081 13.6839 2.43501C13.3568 2.67077 13.0351 2.91013 12.7043 3.13869C12.6021 3.21135 12.4885 3.26668 12.3681 3.30247C12.2519 3.34803 12.1222 3.34598 12.0074 3.29676C11.8927 3.24754 11.8021 3.15514 11.7554 3.03971C11.218 2.09306 10.6884 1.14342 10.1667 0.190769C10.136 0.134978 10.1016 0.0827866 10.0528 0ZM9.17986 23.5456V23.7562C9.17986 24.3735 9.19071 24.9908 9.17986 25.6063C9.1764 25.6589 9.18998 25.7112 9.21861 25.7556C9.24724 25.8 9.2894 25.8341 9.33891 25.8528C11.2997 26.9129 13.4183 27.6535 15.6143 28.0467C16.2469 28.1583 16.8794 28.2392 17.5229 28.3004C18.1687 28.3618 18.8172 28.3901 19.4659 28.385C20.1872 28.3917 20.9083 28.3496 21.6239 28.259C22.2186 28.1763 22.815 28.1079 23.4024 27.9927C24.9728 27.692 26.4963 27.1861 27.9336 26.4881C29.6445 25.6798 31.1768 24.5407 32.4413 23.1371C33.9419 21.4891 34.879 19.4098 35.1181 17.198C35.1307 17.0666 35.1488 17.0504 35.2789 17.0181C35.4362 16.9839 35.597 16.9551 35.7525 16.9119C36.3916 16.7148 36.9881 16.4005 37.5111 15.985L37.7461 15.805C37.8003 15.8662 37.8419 15.9166 37.8888 15.9634C38.0696 16.1434 38.2503 16.3396 38.4401 16.5033C39.2028 17.1314 40.0379 17.2232 40.9289 16.7949C41.2424 16.642 41.5356 16.4509 41.8019 16.2262L42.0441 16.0318C42.0659 16.0592 42.0859 16.0881 42.1037 16.1182C42.266 16.4305 42.5244 16.6828 42.8412 16.8381C43.247 17.0384 43.6971 17.1338 44.1497 17.1152C44.569 17.1152 44.9902 17.0756 45.4149 17.0594C46.1234 17.0324 46.8337 17.0109 47.5422 16.9839C48.1116 16.9623 48.6827 16.9407 49.2521 16.9119C49.7499 16.8828 50.2425 16.7952 50.7197 16.6509C51.285 16.5017 51.8127 16.2363 52.2686 15.8716C53.0151 15.2435 53.2284 14.4211 52.8253 13.5698C52.6357 13.1344 52.3588 12.7421 52.0117 12.4169C51.6645 12.0916 51.2544 11.8403 50.8064 11.6783C49.9503 11.3973 49.0605 11.2303 48.1604 11.1816C47.8857 11.16 47.6182 11.1366 47.3344 11.1204C47.1988 11.1114 47.0615 11.1204 46.9277 11.1204C46.8822 11.8396 46.8822 12.5609 46.9277 13.2801H47.1085C47.7458 13.277 48.3826 13.3137 49.0153 13.3898C49.4328 13.4444 49.8359 13.5782 50.2028 13.784C50.3175 13.8488 50.4243 13.9267 50.5209 14.0161C50.5697 14.0505 50.608 14.0977 50.6317 14.1523C50.6554 14.207 50.6635 14.2671 50.6551 14.3261C50.6466 14.3851 50.6221 14.4406 50.5841 14.4865C50.546 14.5325 50.496 14.5671 50.4395 14.5866C50.3335 14.6433 50.2186 14.6817 50.0997 14.7C49.7545 14.745 49.4075 14.7828 49.0605 14.8026C48.4857 14.8368 47.9092 14.8728 47.3326 14.8746C46.2969 14.8746 45.2631 14.8566 44.2293 14.8458C44.1415 14.849 44.0546 14.828 43.978 14.7851C43.9015 14.7422 43.8383 14.6792 43.7955 14.6028C43.728 14.4892 43.6734 14.3685 43.6328 14.2429C43.5641 14.0197 43.5081 13.793 43.4521 13.568C43.4244 13.4131 43.3627 13.2662 43.2713 13.1379C43.2199 13.0625 43.1445 13.0066 43.0573 12.9792C42.9701 12.9517 42.8761 12.9544 42.7906 12.9867C42.6819 13.02 42.5794 13.0704 42.4869 13.1361C42.3232 13.276 42.1675 13.425 42.0206 13.5824C41.7947 13.82 41.5814 14.0719 41.3482 14.3023C41.1529 14.5054 40.922 14.6713 40.6668 14.7918C40.4542 14.9089 40.205 14.9417 39.9692 14.8836C39.7609 14.8192 39.577 14.6937 39.4414 14.5237C39.2123 14.2305 39.0351 13.9006 38.9173 13.5482C38.8867 13.4513 38.8474 13.3573 38.7998 13.2675C38.7795 13.2117 38.7449 13.1622 38.6996 13.1237C38.6542 13.0853 38.5996 13.0592 38.5411 13.0481C38.4825 13.0371 38.4221 13.0413 38.3658 13.0605C38.3094 13.0798 38.259 13.1132 38.2196 13.1577C38.0569 13.2999 37.887 13.4348 37.7189 13.568C37.2307 13.9773 36.6956 14.3277 36.1248 14.6118C35.78 14.7827 35.406 14.8871 35.0223 14.9196C34.8415 14.9322 34.8415 14.9196 34.7692 14.7648C34.5775 14.3111 34.2952 13.9009 33.9396 13.559C33.7896 13.415 33.6251 13.2873 33.4553 13.1415L32.0455 14.6298C32.2606 14.8674 32.4666 15.078 32.651 15.3047C33.0044 15.7497 33.2075 16.2946 33.2311 16.8615C33.2722 17.5568 33.1535 18.2523 32.8841 18.8951C32.48 19.8585 31.8968 20.7371 31.1653 21.4849C30.1088 22.588 28.8749 23.5077 27.5143 24.2061C24.9376 25.5556 22.07 26.261 19.1586 26.2614C18.4192 26.264 17.6803 26.2208 16.9463 26.1318C16.261 26.0542 15.5804 25.9394 14.9076 25.788C13.0956 25.3742 11.3486 24.7167 9.71486 23.8335L9.17986 23.5456ZM83.7195 7.90252V8.09869C83.7195 10.3843 83.7195 12.67 83.7195 14.9556C83.7185 15.1168 83.733 15.2777 83.7628 15.4361C83.8528 15.88 84.0898 16.2809 84.4359 16.5746C84.782 16.8683 85.2171 17.0378 85.6715 17.0558C87.3614 17.0558 89.0513 17.0558 90.7431 17.0558C91.0511 17.0595 91.3557 16.991 91.6323 16.856C91.9088 16.721 92.1497 16.5231 92.3354 16.2784C92.5833 15.9715 92.7558 15.6113 92.8393 15.2264C92.9228 14.8415 92.9148 14.4425 92.8162 14.0611C92.7592 13.8411 92.6823 13.6267 92.5866 13.4204C92.4059 12.9759 92.198 12.5332 92.001 12.0904H89.6153C89.6514 12.166 89.6785 12.2236 89.7092 12.2704L90.716 14.1151C90.796 14.2424 90.838 14.3897 90.8371 14.5399C90.8409 14.6156 90.8181 14.6903 90.7726 14.751C90.727 14.8118 90.6616 14.8549 90.5876 14.8728C90.495 14.8968 90.3996 14.9083 90.3039 14.907C89.0989 14.907 87.894 14.907 86.689 14.907C86.5754 14.9076 86.462 14.8955 86.3511 14.871C86.0366 14.7972 85.7727 14.6172 85.7871 14.1727C85.7871 14.1385 85.7871 14.1025 85.7871 14.0665V8.11489C85.7871 7.88993 85.7871 7.88813 85.5558 7.88813H83.9291C83.8749 7.88993 83.8098 7.89712 83.7195 7.90252ZM78.6316 12.0886C78.6677 12.166 78.6912 12.2182 78.7183 12.2686L79.5696 13.829C79.6455 13.9657 79.7269 14.0989 79.7883 14.2411C79.9691 14.6676 79.7648 14.9214 79.3491 14.9196C78.1219 14.9196 76.8947 14.9196 75.6674 14.9196C75.5539 14.919 75.4409 14.9039 75.3313 14.8746C75.1749 14.8462 75.0346 14.7616 74.9369 14.6368C74.8392 14.512 74.7911 14.3558 74.8017 14.1979V7.91872C74.592 7.86293 72.8822 7.87373 72.7358 7.93312V14.8746C72.7358 14.9628 72.7358 15.0546 72.7358 15.1428C72.7663 15.6559 72.9902 16.1387 73.3629 16.4944C73.7356 16.8502 74.2295 17.0526 74.7456 17.0612C76.3994 17.0486 78.0532 17.0612 79.707 17.0612C79.8029 17.0649 79.899 17.0613 79.9944 17.0504C80.3392 17.0061 80.6675 16.8769 80.9496 16.6746C81.2317 16.4722 81.4587 16.2031 81.6102 15.8914C81.7926 15.548 81.895 15.1681 81.9097 14.7799C81.9244 14.3917 81.8511 14.0051 81.6952 13.649C81.5036 13.1721 81.2795 12.7077 81.0788 12.2344C81.0638 12.1838 81.0312 12.14 80.9869 12.111C80.9425 12.082 80.8893 12.0696 80.8366 12.076C80.1571 12.076 79.4775 12.076 78.7979 12.076C78.7581 12.0796 78.7111 12.085 78.6316 12.0886ZM57.0041 21.3608C57.0565 21.3374 57.0854 21.3284 57.1107 21.314C57.8752 20.8964 58.6416 20.4861 59.4025 20.0542C59.9126 19.7839 60.3873 19.452 60.8159 19.0661C61.096 18.8145 61.3212 18.5082 61.4774 18.1663C61.698 17.6181 61.7545 17.018 61.6401 16.4385C61.4855 15.5552 61.2564 14.6865 60.9551 13.8416C60.699 13.1058 60.2243 12.465 59.5941 12.0041C59.1366 11.6545 58.5729 11.471 57.9963 11.4839C57.7089 11.4968 57.4232 11.5366 57.1432 11.6027C56.7793 11.6639 56.4385 11.8212 56.1564 12.0581C55.7754 12.3988 55.4648 12.8102 55.2418 13.2693C54.9502 13.8165 54.8134 14.4323 54.846 15.051C54.8599 15.37 54.9557 15.6802 55.1244 15.9518C55.2931 16.2234 55.5289 16.4474 55.8094 16.6023C56.2784 16.8754 56.8114 17.0207 57.3547 17.0235C58.0524 17.0235 58.75 17.0235 59.4477 17.0235H59.6628C59.6656 17.0666 59.6656 17.1099 59.6628 17.153C59.6213 17.3726 59.5113 17.5736 59.3483 17.7271C59.1561 17.9164 58.9488 18.0897 58.7283 18.2455C58.206 18.6054 57.6692 18.9275 57.1324 19.2587C57.085 19.2827 57.0459 19.3201 57.0198 19.3662C56.9938 19.4123 56.982 19.4651 56.986 19.5178C56.986 20.0812 56.986 20.6427 56.986 21.206C56.9896 21.2474 56.9968 21.2942 57.0041 21.3608ZM40.0541 24.728C40.5963 26.7941 41.1187 28.8331 41.6465 30.874H42.8068C42.8249 30.8128 42.843 30.757 42.8574 30.694C43.1129 29.7162 43.3677 28.7384 43.622 27.7605C43.6364 27.7047 43.622 27.6309 43.7105 27.5895C43.9937 28.691 44.2744 29.7828 44.5528 30.865H45.7276L47.4085 24.728H46.709C46.5446 25.3507 46.3855 25.9626 46.2228 26.5745C46.0602 27.1864 45.9083 27.7947 45.7276 28.3958H45.686L44.7823 24.7334H43.7394C43.4298 25.9548 43.1225 27.1738 42.8177 28.3904H42.7761C42.4688 27.1702 42.1622 25.9512 41.8561 24.7334L40.0541 24.728ZM101.145 7.90072V17.0468H103.294C103.294 16.9677 103.305 16.8975 103.305 16.8273C103.305 13.925 103.305 11.0226 103.305 8.12029C103.305 8.07889 103.305 8.0375 103.305 7.99431C103.306 7.98083 103.305 7.96718 103.301 7.95429C103.296 7.94139 103.289 7.92957 103.28 7.91964C103.271 7.90972 103.259 7.90191 103.247 7.89678C103.234 7.89165 103.221 7.88931 103.207 7.88993H101.324C101.266 7.88993 101.215 7.89712 101.138 7.90072H101.145ZM82.6314 26.7149L82.5934 26.7329C82.4655 26.545 82.2868 26.3971 82.0779 26.3064C81.869 26.2156 81.6385 26.1856 81.4132 26.22C81.2053 26.233 81.0033 26.2942 80.8235 26.3989C80.6436 26.5036 80.4909 26.6488 80.3776 26.8229C80.2525 27.0135 80.1614 27.2241 80.1082 27.4456C79.9595 28.0765 79.9301 28.7296 80.0215 29.3713C80.0523 29.6572 80.1298 29.9363 80.251 30.1973C80.3671 30.4629 80.5678 30.6831 80.8222 30.8236C81.2632 31.0612 82.0476 31.0612 82.5067 30.6113C82.5497 30.5732 82.595 30.5377 82.6422 30.5051V30.865H84.2689V24.6452L82.6332 24.7388L82.6314 26.7149ZM60.3008 26.7041L60.261 26.7149C60.2213 26.6699 60.1833 26.6249 60.1417 26.5817C60.0126 26.4384 59.8481 26.331 59.6646 26.2704C59.3641 26.1759 59.0409 26.1826 58.7446 26.2893C58.4483 26.3959 58.1955 26.5967 58.0253 26.8607C57.9028 27.0598 57.8154 27.2783 57.7668 27.5068C57.6244 28.1636 57.6073 28.8413 57.7162 29.5044C57.7516 29.7654 57.8311 30.0185 57.9511 30.2531C58.0733 30.5098 58.2791 30.7178 58.5349 30.8434C58.9832 31.0594 59.7224 31.0486 60.1725 30.6203C60.2105 30.5864 60.2503 30.5545 60.2917 30.5249C60.2917 30.6544 60.3044 30.7588 60.3098 30.8686H61.9365V24.6452L60.299 24.7388L60.3008 26.7041ZM65.7321 24.7244V30.8668H67.507V29.6232C67.507 29.4145 67.507 29.2039 67.507 28.9951C67.4998 28.7845 67.5034 28.5737 67.5178 28.3634H67.7491C68.0691 28.3634 68.3872 28.3634 68.7053 28.331C69.1089 28.31 69.5027 28.2 69.8584 28.0089C70.0586 27.9033 70.2312 27.7524 70.3621 27.5683C70.493 27.3842 70.5787 27.172 70.6121 26.9488C70.6413 26.7662 70.6534 26.5812 70.6482 26.3963C70.6574 26.042 70.5438 25.6953 70.3266 25.4144C70.1094 25.1336 69.8018 24.9357 69.4553 24.854C69.1024 24.7561 68.7372 24.7094 68.3709 24.7154C67.5539 24.7154 66.7442 24.7154 65.9182 24.7154C65.8568 24.7208 65.7989 24.7262 65.7321 24.7298V24.7244ZM95.8978 14.6028C95.999 14.8584 96.0966 15.1032 96.1924 15.3479C96.3561 15.7332 96.4902 16.1303 96.5937 16.5357C96.6559 16.7595 96.6538 16.9962 96.5876 17.2189C96.5215 17.4416 96.394 17.6414 96.2195 17.7955C96.1069 17.9058 95.986 18.0074 95.8581 18.0997C95.4406 18.3822 95.0176 18.6558 94.5929 18.9293C94.376 19.0697 94.1537 19.1993 93.9422 19.3289C93.9061 20.0018 93.9146 20.6763 93.9675 21.3482L94.329 21.1502C95.052 20.7524 95.7858 20.3619 96.4979 19.9552C97.0121 19.6794 97.4838 19.3315 97.8986 18.9221C98.3368 18.4862 98.5992 17.9054 98.6361 17.2898C98.6644 16.751 98.6077 16.2111 98.468 15.6899C98.2237 14.7832 97.9058 13.8978 97.5173 13.0425C97.5028 13.0119 97.4829 12.9831 97.4522 12.9309L95.8978 14.6028ZM62.6757 21.35C62.7086 21.3415 62.7407 21.3301 62.7715 21.3158C63.6499 20.8334 64.5319 20.3565 65.4049 19.8634C65.8685 19.6079 66.2917 19.2859 66.6611 18.9077C67.124 18.4356 67.3862 17.8038 67.3931 17.144C67.3994 16.6831 67.3453 16.2233 67.2322 15.7763C66.9866 14.833 66.6588 13.9129 66.2526 13.0263C66.2343 12.9964 66.2144 12.9676 66.193 12.9399L64.6241 14.61C64.7561 14.943 64.8844 15.2579 65.0073 15.5765C65.1472 15.9133 65.2561 16.2621 65.3326 16.6185C65.3798 16.8178 65.3739 17.0259 65.3155 17.2222C65.2572 17.4185 65.1485 17.5963 65.0001 17.7379C64.814 17.9249 64.6113 18.0948 64.3946 18.2455C63.8813 18.5874 63.3553 18.9131 62.8276 19.2371C62.7745 19.2625 62.7302 19.3032 62.7006 19.3539C62.671 19.4046 62.6573 19.4629 62.6613 19.5214C62.6613 20.0722 62.6613 20.6229 62.6613 21.1736C62.6649 21.2258 62.6721 21.278 62.6757 21.35ZM52.9012 9.82101C52.9364 9.19031 52.9334 8.55806 52.8922 7.92772C52.8702 7.92238 52.8479 7.91877 52.8253 7.91692C52.2234 7.91692 51.6234 7.93492 51.0179 7.94752C50.394 7.96602 49.7721 8.02614 49.1563 8.12749C48.3658 8.24801 47.5916 8.45689 46.8482 8.75019C46.1218 9.04007 45.4421 9.43484 44.8311 9.9218C44.7893 9.94918 44.7554 9.98703 44.7328 10.0316C44.7103 10.0761 44.7 10.1258 44.7028 10.1756C44.7028 10.7515 44.7028 11.3256 44.7028 11.8997C44.7057 11.951 44.7117 12.0021 44.7209 12.0527C45.9752 11.3184 47.2296 10.6399 48.6213 10.2529C50.018 9.89536 51.4609 9.74974 52.9012 9.82101ZM87.8711 26.3495V26.5655C87.8711 27.253 87.8711 27.9405 87.8711 28.628C87.8693 28.8432 87.8566 29.0583 87.8331 29.2723C87.8159 29.4876 87.7544 29.6971 87.6524 29.8878C87.6093 29.974 87.5455 30.0483 87.4667 30.1042C87.3879 30.1601 87.2965 30.1958 87.2005 30.2081C87.1621 30.2177 87.1221 30.2187 87.0832 30.2112C87.0443 30.2037 87.0076 30.1879 86.9756 30.1647C86.9435 30.1415 86.917 30.1117 86.8978 30.0772C86.8785 30.0427 86.8671 30.0045 86.8644 29.9652C86.8459 29.8533 86.8375 29.7401 86.8391 29.6268C86.8391 28.5686 86.8391 27.5086 86.8391 26.4503V26.2308L85.1979 26.3495V29.7906C85.1979 29.8626 85.1979 29.9346 85.1979 30.0066C85.2023 30.2371 85.2911 30.458 85.4475 30.628C85.6039 30.798 85.8172 30.9053 86.0474 30.9298C86.3494 30.9942 86.6633 30.9751 86.9552 30.8746C87.247 30.774 87.5056 30.5958 87.703 30.3593L87.8404 30.2063L87.8747 30.2171V30.8632C88.4165 30.8973 88.9601 30.8931 89.5014 30.8506V26.2308L87.8711 26.3495ZM49.8232 31C50.078 30.9712 50.3004 30.9604 50.5191 30.919C50.8675 30.8715 51.1938 30.7214 51.4559 30.488C51.7181 30.2545 51.9042 29.9484 51.9903 29.6088C52.1766 28.9663 52.1816 28.2851 52.0048 27.6399C51.9268 27.2951 51.7462 26.9818 51.4867 26.7407C51.2271 26.4996 50.9006 26.3419 50.5498 26.2884C50.0891 26.1921 49.6133 26.1921 49.1527 26.2884C48.8084 26.3429 48.4881 26.4981 48.2326 26.7343C47.9771 26.9704 47.7978 27.2769 47.7176 27.6147C47.5294 28.2756 47.535 28.9763 47.7338 29.634C47.8156 29.9466 47.9843 30.2298 48.2206 30.4511C48.4569 30.6724 48.7512 30.8227 49.0695 30.8848C49.3262 30.955 49.5919 30.9658 49.8232 31ZM54.8478 31C55.1135 30.9694 55.343 30.9604 55.5708 30.9154C55.9251 30.8625 56.2549 30.7038 56.5166 30.4602C56.7784 30.2166 56.9597 29.8996 57.0366 29.5512C57.2038 28.9293 57.2038 28.2745 57.0366 27.6525C56.9602 27.3074 56.7815 26.9931 56.5238 26.7502C56.266 26.5073 55.9409 26.3471 55.5907 26.2902C55.1143 26.1863 54.6211 26.1863 54.1447 26.2902C53.8191 26.3486 53.5168 26.4981 53.2733 26.7211C53.0297 26.9442 52.8549 27.2317 52.7693 27.55C52.5622 28.2306 52.5622 28.957 52.7693 29.6376C52.8505 29.9443 53.0157 30.2225 53.2464 30.4411C53.4772 30.6598 53.7644 30.8103 54.076 30.8758C54.3309 30.955 54.6092 30.9658 54.8478 31ZM79.4811 28.4588C79.4586 28.2124 79.4236 27.9674 79.3763 27.7245C79.3143 27.3765 79.1487 27.0551 78.9008 26.8022C78.6529 26.5492 78.3342 26.3765 77.9863 26.3064C77.5052 26.1915 77.0044 26.1854 76.5205 26.2884C76.1605 26.3437 75.8263 26.5079 75.5632 26.7586C75.3 27.0094 75.1206 27.3347 75.0493 27.6903C74.8905 28.3079 74.8954 28.956 75.0638 29.571C75.1362 29.8891 75.2972 30.1804 75.5284 30.4115C75.7595 30.6426 76.0514 30.8042 76.3705 30.8776C76.8964 31.0158 77.4484 31.022 77.9773 30.8956C78.3072 30.8305 78.6115 30.6729 78.8545 30.4415C79.0976 30.21 79.2692 29.9143 79.3491 29.589C79.443 29.2197 79.4873 28.8397 79.4811 28.4588ZM97.736 29.4558C97.71 29.7462 97.7822 30.0368 97.941 30.2817C98.0998 30.5265 98.3361 30.7115 98.6126 30.8074C98.9027 30.9133 99.2075 30.974 99.5163 30.9874C99.9549 31.0277 100.397 30.9812 100.818 30.8506C101.541 30.6131 101.832 30.003 101.745 29.2813C101.715 29.1067 101.651 28.9398 101.555 28.7902C101.46 28.6407 101.336 28.5115 101.19 28.4102C100.905 28.1875 100.59 28.0057 100.254 27.8703C100.073 27.7947 99.8922 27.7191 99.7314 27.6291C99.6035 27.5555 99.4825 27.4705 99.3699 27.3754C99.3062 27.3286 99.2587 27.2634 99.2338 27.1886C99.2089 27.1138 99.2078 27.0332 99.2307 26.9578C99.2458 26.8775 99.2862 26.8041 99.3459 26.7481C99.4057 26.6921 99.4818 26.6566 99.5633 26.6465C99.7234 26.625 99.8857 26.625 100.046 26.6465C100.222 26.6625 100.387 26.7387 100.512 26.8621C100.638 26.9854 100.717 27.1483 100.736 27.3232C100.754 27.4204 100.767 27.5212 100.783 27.6363L101.548 27.505C101.542 27.237 101.448 26.9782 101.282 26.7676C101.115 26.557 100.884 26.4058 100.624 26.3369C100.037 26.1627 99.4085 26.1893 98.8385 26.4125C98.6014 26.5035 98.3877 26.6462 98.2131 26.8301C98.0725 26.9703 97.9709 27.1446 97.9185 27.3358C97.8602 27.532 97.8508 27.7395 97.8911 27.9402C97.9314 28.1409 98.0202 28.3288 98.1499 28.4876C98.3552 28.7392 98.6122 28.9441 98.9036 29.0887C99.1259 29.2057 99.3626 29.2975 99.585 29.4162C99.7735 29.5187 99.9547 29.6342 100.127 29.7618C100.2 29.8126 100.253 29.8864 100.278 29.971C100.302 30.0556 100.298 30.1462 100.265 30.2279C100.243 30.3092 100.197 30.3819 100.132 30.436C100.067 30.4902 99.9872 30.5231 99.9031 30.5303C99.7431 30.5546 99.5804 30.5546 99.4205 30.5303C99.1723 30.4871 98.9486 30.3548 98.7917 30.1585C98.6349 29.9621 98.5557 29.7154 98.5692 29.4648C98.5692 29.4163 98.5692 29.3641 98.5692 29.2993L97.736 29.4558ZM95.07 26.8499V29.7582C95.0697 29.8599 95.0757 29.9614 95.0881 30.0623C95.0979 30.2496 95.1692 30.4285 95.291 30.5715C95.4128 30.7146 95.5783 30.8139 95.7623 30.8542C96.0532 30.9324 96.3574 30.949 96.6551 30.9028C96.8348 30.8827 97.0084 30.8257 97.1648 30.7354C97.2598 30.6805 97.3424 30.6069 97.4077 30.519C97.473 30.4311 97.5195 30.3308 97.5444 30.2243L97.1016 30.1811L97.0708 30.2531C97.0613 30.2921 97.0375 30.3261 97.004 30.3484C96.9706 30.3708 96.9299 30.3798 96.8901 30.3737C96.8512 30.3687 96.8151 30.3512 96.787 30.324C96.759 30.2967 96.7406 30.2611 96.7347 30.2225C96.7211 30.1519 96.7138 30.0802 96.713 30.0084V27.0478C96.713 26.9902 96.713 26.9309 96.713 26.8499H97.4233V26.3477H96.7003C96.7003 26.085 96.7003 25.8456 96.7003 25.6081C96.7003 25.3705 96.7003 25.1383 96.7003 24.8774C96.178 25.1623 95.6258 25.3892 95.0538 25.5541V26.3567H94.5278V26.8499H95.07ZM93.7217 28.8637L93.7344 29.0437C93.7344 29.2237 93.7597 29.4127 93.7542 29.598C93.7511 29.7964 93.7009 29.9913 93.6078 30.1667C93.5276 30.3127 93.4044 30.4306 93.2547 30.5046C93.1051 30.5786 92.9363 30.6052 92.771 30.5807C92.6156 30.5779 92.4657 30.5231 92.3454 30.4252C92.2251 30.3272 92.1413 30.1918 92.1077 30.0407C92.0841 29.9728 92.0665 29.903 92.0553 29.832C92.0227 29.5656 91.983 29.2921 91.9685 29.0311C91.9241 28.4993 91.9533 27.964 92.0553 27.4402C92.0936 27.2337 92.1762 27.0379 92.2975 26.8661C92.3724 26.7595 92.4778 26.6779 92.6 26.632C92.7222 26.5861 92.8555 26.578 92.9825 26.6087C93.0963 26.6296 93.2007 26.6854 93.2811 26.7684C93.3615 26.8513 93.4138 26.9572 93.4307 27.0712C93.4654 27.2651 93.4865 27.4611 93.494 27.6579C93.494 27.7587 93.494 27.8595 93.494 27.9945L94.2422 27.6345C94.2856 26.8985 93.8808 26.3747 93.1849 26.256C92.9236 26.2164 92.6589 26.2037 92.3951 26.2182C91.9281 26.2334 91.4784 26.3977 91.1123 26.6867C90.7462 26.9758 90.4831 27.3743 90.3617 27.8235C90.1947 28.4119 90.1947 29.0348 90.3617 29.6232C90.4342 29.9295 90.591 30.2096 90.8145 30.4322C91.038 30.6547 91.3193 30.8108 91.6269 30.883C92.1345 31.0196 92.6676 31.0326 93.1813 30.9208C93.3813 30.8892 93.5721 30.8152 93.7408 30.7037C93.9095 30.5923 94.0522 30.4459 94.1591 30.2747C94.3613 29.9101 94.4429 29.4913 94.3923 29.0779L93.7217 28.8637ZM74.48 27.9747C74.5288 27.7155 74.5902 27.46 74.6173 27.2008C74.6288 27.0463 74.6166 26.8909 74.5812 26.7401C74.5632 26.6326 74.5157 26.5321 74.4439 26.4499C74.3721 26.3676 74.2789 26.3067 74.1745 26.274C74.0277 26.2167 73.868 26.2 73.7124 26.2256C73.5568 26.2513 73.4111 26.3184 73.2907 26.4197C73.173 26.5306 73.0648 26.651 72.9671 26.7797C72.9358 26.8195 72.9074 26.8616 72.8822 26.9057L72.8479 26.8967V26.2488L71.2212 26.3639C71.1887 26.5439 71.1941 30.7354 71.2302 30.874H72.837C72.8435 30.8311 72.8477 30.7878 72.8497 30.7444C72.8497 30.6311 72.8497 30.5177 72.8497 30.4025C72.8497 29.6556 72.8497 28.9069 72.8497 28.1601C72.8462 27.842 72.9122 27.527 73.0431 27.2368C73.0772 27.1604 73.1243 27.0904 73.1822 27.0298C73.2021 27.0069 73.2279 26.9898 73.2568 26.9803C73.2857 26.9708 73.3166 26.9693 73.3463 26.976C73.376 26.9826 73.4033 26.9972 73.4254 27.0181C73.4474 27.039 73.4633 27.0654 73.4714 27.0946C73.4975 27.1741 73.5068 27.258 73.4985 27.3412C73.484 27.4416 73.4622 27.5408 73.4335 27.6381C73.4064 27.7461 73.3792 27.8559 73.3485 27.9765L74.48 27.9747ZM100.946 6.89829C101.054 6.71832 101.139 6.56174 101.242 6.41596C101.317 6.30197 101.426 6.21432 101.553 6.16552C101.681 6.11673 101.821 6.10927 101.953 6.14421C102.334 6.218 102.719 6.27739 103.102 6.34758C103.303 6.38793 103.51 6.38181 103.708 6.3297C103.907 6.27759 104.09 6.18088 104.244 6.04702C104.585 5.76588 104.826 5.3828 104.931 4.9546C104.991 4.78113 105.01 4.59656 104.987 4.41469L103.541 4.12493C103.505 4.19692 103.475 4.25451 103.447 4.3049C103.388 4.45726 103.279 4.58513 103.138 4.66754C102.996 4.74995 102.831 4.782 102.668 4.75843C102.602 4.75369 102.537 4.74528 102.471 4.73324C102.164 4.67564 101.86 4.60546 101.553 4.55326C101.245 4.48633 100.923 4.51782 100.633 4.64325C100.32 4.78631 100.049 5.00561 99.844 5.28088C99.639 5.55614 99.507 5.87845 99.4602 6.218C99.4157 6.36419 99.4201 6.52086 99.4729 6.66432L100.946 6.89829ZM79.3708 11.2788C79.6123 11.2813 79.849 11.2123 80.051 11.0805C80.253 10.9487 80.4111 10.7602 80.5053 10.5388C80.5994 10.3174 80.6254 10.0731 80.5798 9.83695C80.5342 9.60082 80.4192 9.38351 80.2494 9.21261C80.0795 9.0417 79.8625 8.92492 79.6258 8.87708C79.3892 8.82925 79.1436 8.85252 78.9203 8.94395C78.6969 9.03538 78.5059 9.19083 78.3715 9.39057C78.2371 9.59032 78.1653 9.82533 78.1653 10.0658C78.1648 10.3855 78.2912 10.6924 78.5171 10.9196C78.7429 11.1468 79.0498 11.2759 79.3708 11.2788ZM37.052 8.87977C36.8914 8.87928 36.7322 8.91058 36.5838 8.97184C36.4355 9.0331 36.3008 9.1231 36.1876 9.23663C36.0744 9.35015 35.985 9.48493 35.9246 9.63313C35.8642 9.78134 35.8339 9.94002 35.8356 10.1C35.8212 10.2685 35.8423 10.4382 35.8975 10.5981C35.9528 10.758 36.0409 10.9047 36.1564 11.0288C36.2718 11.1528 36.412 11.2515 36.568 11.3185C36.724 11.3855 36.8923 11.4193 37.0621 11.4178C37.232 11.4163 37.3996 11.3795 37.5544 11.3097C37.7091 11.24 37.8475 11.1388 37.9607 11.0127C38.0739 10.8867 38.1595 10.7384 38.2118 10.5775C38.2642 10.4166 38.2822 10.2466 38.2648 10.0784C38.2629 9.75951 38.1342 9.45438 37.9069 9.22975C37.6796 9.00513 37.3722 8.87928 37.052 8.87977ZM89.2285 18.8682C89.0679 18.8653 88.9083 18.8941 88.759 18.9529C88.6096 19.0116 88.4734 19.0992 88.3581 19.2106C88.2429 19.322 88.1509 19.455 88.0875 19.602C88.0241 19.7489 87.9905 19.9068 87.9886 20.0668C87.9811 20.2302 88.0067 20.3935 88.0641 20.5468C88.1214 20.7002 88.2092 20.8404 88.3222 20.9592C88.4352 21.0779 88.5711 21.1728 88.7218 21.238C88.8725 21.3033 89.0349 21.3376 89.1992 21.3389C89.3635 21.3403 89.5264 21.3086 89.6781 21.2458C89.8298 21.183 89.9673 21.0904 90.0822 20.9734C90.1972 20.8565 90.2872 20.7177 90.3471 20.5653C90.4069 20.4129 90.4352 20.2501 90.4304 20.0866C90.4316 19.9273 90.4012 19.7693 90.3409 19.6218C90.2806 19.4743 90.1917 19.34 90.0791 19.2268C89.9666 19.1136 89.8327 19.0237 89.6852 18.9621C89.5377 18.9005 89.3794 18.8686 89.2194 18.8682H89.2285ZM93.0764 20.0776C93.0764 19.7558 92.9481 19.4473 92.7197 19.2198C92.4912 18.9924 92.1813 18.8646 91.8583 18.8646C91.5352 18.8646 91.2253 18.9924 90.9969 19.2198C90.7684 19.4473 90.6401 19.7558 90.6401 20.0776C90.6419 20.3978 90.7698 20.7045 90.9961 20.932C91.2225 21.1594 91.5294 21.2895 91.851 21.2942C92.0112 21.2942 92.1698 21.2627 92.3178 21.2015C92.4657 21.1402 92.6 21.0505 92.7131 20.9375C92.8261 20.8245 92.9156 20.6903 92.9764 20.5427C93.0372 20.3952 93.0681 20.2371 93.0674 20.0776H93.0764ZM38.4094 6.33318C38.2483 6.32957 38.088 6.35813 37.9382 6.41715C37.7883 6.47618 37.6518 6.56449 37.5368 6.67686C37.4217 6.78924 37.3304 6.92342 37.2683 7.07149C37.2061 7.21955 37.1744 7.37851 37.1749 7.53898C37.1744 7.85996 37.3011 8.16816 37.5275 8.39663C37.7539 8.62511 38.0617 8.75539 38.3841 8.75918C38.7079 8.75735 39.0182 8.62942 39.2486 8.40273C39.4789 8.17605 39.6111 7.86862 39.6167 7.54618C39.6163 7.22648 39.4893 6.91984 39.2632 6.69277C39.0372 6.4657 38.7304 6.33649 38.4094 6.33318ZM39.7631 8.87977C39.6024 8.87904 39.4432 8.91017 39.2947 8.97134C39.1462 9.03252 39.0114 9.12252 38.8982 9.23609C38.785 9.34966 38.6956 9.48453 38.6352 9.63285C38.5749 9.78117 38.5448 9.93996 38.5467 10.1C38.5478 10.3402 38.6204 10.5746 38.7552 10.7738C38.8901 10.9729 39.0812 11.1278 39.3045 11.2188C39.5277 11.3098 39.773 11.3329 40.0094 11.2851C40.2458 11.2373 40.4627 11.1208 40.6326 10.9504C40.8025 10.7799 40.9179 10.5631 40.9641 10.3274C41.0104 10.0916 40.9854 9.84755 40.8923 9.62595C40.7993 9.40435 40.6423 9.21519 40.4413 9.08238C40.2404 8.94956 40.0043 8.87906 39.7631 8.87977Z" fill="white"/>
<path id="Vector_2" d="M10.0528 0C10.1016 0.0827866 10.136 0.134978 10.1667 0.190769C10.6873 1.14342 11.209 2.09366 11.7319 3.04151C11.7786 3.15695 11.8692 3.24934 11.9839 3.29856C12.0987 3.34778 12.2284 3.34983 12.3447 3.30427C12.465 3.26848 12.5786 3.21315 12.6808 3.14049C13.0116 2.91193 13.3333 2.67257 13.6604 2.43681C13.7074 2.40261 13.758 2.37202 13.8249 2.32882C13.8277 2.38158 13.8277 2.43444 13.8249 2.4872C13.7237 3.18009 13.6207 3.87118 13.5213 4.56406C13.4219 5.25695 13.3152 5.98404 13.214 6.69492C13.1526 7.12685 13.0893 7.55878 13.0333 7.99071C13.0261 8.04386 13.0261 8.09774 13.0333 8.15089C13.0586 8.29666 13.1634 8.35785 13.2954 8.29126C13.38 8.2439 13.4563 8.18311 13.5213 8.11129C13.8303 7.79994 14.134 7.48499 14.4394 7.17184L15.6052 5.96964C15.6378 5.93724 15.6739 5.90845 15.7191 5.86705C15.7625 5.92104 15.8022 5.96424 15.8384 6.00923L16.4999 6.86229C16.5509 6.93671 16.6169 6.99967 16.6938 7.0471C16.7707 7.09452 16.8567 7.12537 16.9463 7.13765C17.0064 7.1442 17.067 7.1442 17.1271 7.13765C17.6585 7.07286 18.1886 7.00627 18.7176 6.93788L19.2725 6.86409C19.258 6.95048 19.2508 7.01347 19.2363 7.07646C19.058 7.91632 18.8773 8.75199 18.6941 9.58346C18.6218 9.9254 18.723 10.1036 19.0556 10.2098C19.3574 10.3051 19.6629 10.3897 19.9593 10.4905L20.1057 10.5427C20.0442 10.5967 20.0009 10.6399 19.9521 10.6795L16.4981 13.5374C16.0625 13.8974 15.6251 14.2573 15.1931 14.6172C15.0699 14.7242 14.9595 14.845 14.8642 14.9772C14.7696 15.0969 14.7146 15.2429 14.7068 15.395C14.699 15.5472 14.7389 15.698 14.8208 15.8266C14.9419 16.0336 15.0666 16.237 15.1823 16.4439C15.2112 16.4943 15.2347 16.5465 15.2745 16.6239L10.6638 15.9994C10.6638 16.6725 10.718 17.315 10.7379 17.9593C10.7577 18.6036 10.7903 19.2623 10.8174 19.9138C10.8445 20.5653 10.8752 21.2042 10.9023 21.8485C10.9294 22.4928 10.9547 23.1389 10.9801 23.7832C10.3736 23.5577 9.7836 23.2907 9.21421 22.9841C9.29855 20.6769 9.3835 18.3576 9.46905 16.0264C9.38899 16.0218 9.30873 16.0218 9.22867 16.0264C8.81658 16.0804 8.4081 16.1362 7.99782 16.1938L6.53562 16.3954L5.34995 16.5573L4.82942 16.6275C4.86376 16.5573 4.88545 16.5087 4.91075 16.4655C5.02642 16.2694 5.14571 16.075 5.25958 15.8788C5.36633 15.7309 5.4174 15.5503 5.40385 15.3687C5.3903 15.1871 5.313 15.016 5.18548 14.8854C5.08056 14.7626 4.96372 14.6505 4.83665 14.5507C3.27022 13.2585 1.70379 11.9687 0.137364 10.6813L0 10.5589C0.0441729 10.5374 0.089417 10.5182 0.135556 10.5013C0.43378 10.4077 0.728389 10.3051 1.03926 10.2278C1.11123 10.2178 1.18007 10.192 1.24075 10.1523C1.30144 10.1125 1.35243 10.0597 1.39001 9.99778C1.4276 9.93587 1.45082 9.86638 1.458 9.79439C1.46517 9.72239 1.45611 9.64972 1.43147 9.58166C1.24712 8.78798 1.08445 7.99251 0.903708 7.19884C0.882019 7.10166 0.865752 7.00267 0.845871 6.89289C0.88015 6.88999 0.914614 6.88999 0.948893 6.89289L2.44724 7.09086C2.64244 7.11605 2.83945 7.15025 3.03646 7.16105C3.13977 7.17173 3.2441 7.15544 3.33917 7.11378C3.43425 7.07213 3.51679 7.00654 3.57868 6.92348L4.26369 6.04343L4.39744 5.87965C4.44805 5.93004 4.49143 5.96784 4.533 6.00923L6.57538 8.09869C6.62885 8.16027 6.68953 8.21525 6.75612 8.26247C6.93686 8.37225 7.07784 8.29126 7.08326 8.0825C7.08223 8.02875 7.07679 7.97518 7.067 7.92232C6.92782 6.96488 6.79227 6.00563 6.6531 5.04279C6.53923 4.25451 6.42175 3.46804 6.30788 2.68157C6.29162 2.56999 6.27716 2.4584 6.25727 2.31083C6.33499 2.36122 6.38921 2.39361 6.43802 2.42961L7.44475 3.14949C7.58522 3.25522 7.75666 3.31212 7.93275 3.31147C8.01969 3.31724 8.10637 3.29681 8.18148 3.25283C8.2566 3.20885 8.31667 3.14337 8.35388 3.06491C8.85995 2.12726 9.37687 1.19501 9.88837 0.259158L10.0528 0Z" fill="white"/>
<path id="Vector_3" d="M9.17993 23.5457L9.72216 23.8336C11.3559 24.7168 13.1029 25.3743 14.9149 25.7881C15.5877 25.9395 16.2683 26.0542 16.9536 26.1318C17.6876 26.2208 18.4265 26.2641 19.1659 26.2614C22.0742 26.2595 24.9386 25.5542 27.5126 24.2061C28.8731 23.5077 30.1071 22.588 31.1635 21.485C31.8949 20.7377 32.4781 19.8597 32.8824 18.897C33.1518 18.2542 33.2705 17.5587 33.2294 16.8633C33.2077 16.2934 33.0045 15.745 32.6492 15.2976C32.4685 15.0708 32.2588 14.8603 32.0437 14.6227L33.4535 13.1343C33.6234 13.2801 33.7879 13.4079 33.9379 13.5519C34.2935 13.8938 34.5757 14.304 34.7675 14.7577C34.8362 14.9214 34.838 14.925 35.0206 14.9124C35.4043 14.8799 35.7783 14.7755 36.1231 14.6047C36.6939 14.3205 37.229 13.9702 37.7172 13.5609C37.8853 13.4277 38.0552 13.2927 38.2179 13.1505C38.2573 13.1061 38.3077 13.0726 38.3641 13.0534C38.4204 13.0342 38.4808 13.0299 38.5394 13.041C38.5979 13.0521 38.6525 13.0781 38.6979 13.1166C38.7432 13.155 38.7777 13.2046 38.7981 13.2603C38.8457 13.3502 38.885 13.4441 38.9155 13.5411C39.0334 13.8935 39.2106 14.2234 39.4397 14.5165C39.5753 14.6866 39.7592 14.812 39.9675 14.8765C40.2033 14.9346 40.4525 14.9018 40.6651 14.7847C40.9211 14.6638 41.1526 14.4973 41.3483 14.2933C41.5815 14.0576 41.7948 13.8056 42.0207 13.5735C42.1679 13.4198 42.3235 13.2744 42.487 13.1379C42.5795 13.0722 42.682 13.0218 42.7906 12.9886C42.8762 12.9562 42.9702 12.9536 43.0574 12.981C43.1446 13.0084 43.22 13.0644 43.2714 13.1397C43.3687 13.2701 43.4349 13.4209 43.4648 13.5807C43.5208 13.8056 43.5769 14.0324 43.6456 14.2556C43.6862 14.3812 43.7407 14.5019 43.8082 14.6155C43.8511 14.6918 43.9142 14.7549 43.9908 14.7977C44.0673 14.8406 44.1542 14.8616 44.242 14.8585C45.2758 14.8693 46.3097 14.8909 47.3453 14.8873C47.9219 14.8873 48.4985 14.8495 49.0732 14.8153C49.4202 14.7955 49.7673 14.7577 50.1125 14.7127C50.2314 14.6943 50.3463 14.656 50.4523 14.5993C50.5088 14.5798 50.5588 14.5451 50.5968 14.4992C50.6348 14.4532 50.6594 14.3977 50.6678 14.3388C50.6762 14.2798 50.6681 14.2197 50.6445 14.165C50.6208 14.1103 50.5824 14.0632 50.5336 14.0288C50.437 13.9393 50.3303 13.8614 50.2155 13.7966C49.8486 13.5909 49.4455 13.4571 49.028 13.4025C48.3953 13.3264 47.7585 13.2897 47.1212 13.2927H46.9405C46.8949 12.5735 46.8949 11.8522 46.9405 11.1331C47.0742 11.1331 47.2116 11.1331 47.3471 11.1331C47.6237 11.1493 47.8984 11.1727 48.1731 11.1942C49.0733 11.2429 49.963 11.4099 50.8192 11.691C51.2672 11.853 51.6773 12.1043 52.0244 12.4295C52.3716 12.7547 52.6484 13.147 52.8381 13.5825C53.2411 14.4337 53.0279 15.2562 52.2814 15.8843C51.8254 16.2489 51.2977 16.5144 50.7324 16.6636C50.2515 16.8062 49.7551 16.8914 49.254 16.9173C48.6846 16.9461 48.1135 16.9677 47.5441 16.9893C46.8356 17.0163 46.1253 17.0379 45.4168 17.0649C44.9975 17.0811 44.5764 17.1153 44.1516 17.1207C43.699 17.1392 43.2489 17.0439 42.8431 16.8435C42.5263 16.6882 42.2679 16.4359 42.1056 16.1237C42.0878 16.0935 42.0678 16.0647 42.046 16.0373L41.8038 16.2316C41.5375 16.4564 41.2443 16.6474 40.9308 16.8003C40.0398 17.2233 39.2047 17.1369 38.442 16.5088C38.245 16.345 38.0805 16.1488 37.8907 15.9689C37.8437 15.9221 37.8022 15.8717 37.748 15.8105L37.513 15.9905C36.9916 16.4053 36.397 16.7197 35.7598 16.9173C35.6044 16.9605 35.4435 16.9893 35.2863 17.0235C35.1561 17.0505 35.138 17.0667 35.1254 17.2035C34.8863 19.4152 33.9492 21.4945 32.4486 23.1425C31.1841 24.5461 29.6518 25.6853 27.9409 26.4936C26.5036 27.1916 24.9801 27.6975 23.4097 27.9981C22.8223 28.1133 22.2259 28.1781 21.6312 28.2645C20.9156 28.355 20.1946 28.3971 19.4732 28.3905C18.8251 28.3949 18.1771 28.366 17.532 28.3041C16.8922 28.2429 16.256 28.1619 15.6234 28.0503C13.4274 27.6572 11.3088 26.9165 9.34802 25.8565C9.29851 25.8377 9.25635 25.8037 9.22772 25.7593C9.19909 25.7149 9.18551 25.6626 9.18897 25.6099C9.18897 24.9944 9.18897 24.3771 9.18897 23.7598L9.17993 23.5457Z" fill="white"/>
<path id="Vector_4" d="M83.7195 7.90249C83.8099 7.90249 83.8749 7.88989 83.94 7.88989H85.5667C85.7962 7.88989 85.798 7.88989 85.798 8.11666V14.0755C85.798 14.1115 85.798 14.1475 85.798 14.1817C85.7836 14.6262 86.0474 14.8062 86.3619 14.88C86.4729 14.9045 86.5863 14.9166 86.6999 14.916C87.9049 14.916 89.1098 14.916 90.3147 14.916C90.4104 14.9172 90.5059 14.9057 90.5985 14.8818C90.6725 14.8638 90.7379 14.8208 90.7834 14.76C90.829 14.6992 90.8518 14.6245 90.8479 14.5488C90.8488 14.3987 90.8068 14.2514 90.7268 14.1241L89.7201 12.2794C89.6894 12.2236 89.6623 12.166 89.6261 12.0994H91.9974C92.1945 12.5421 92.3933 12.9849 92.583 13.4294C92.6787 13.6357 92.7556 13.8501 92.8126 14.0701C92.9112 14.4514 92.9192 14.8504 92.8357 15.2354C92.7522 15.6203 92.5797 15.9805 92.3318 16.2873C92.1461 16.5321 91.9053 16.7299 91.6287 16.865C91.3521 17 91.0475 17.0685 90.7395 17.0648C89.0477 17.0648 87.3578 17.0648 85.6679 17.0648C85.2135 17.0467 84.7784 16.8773 84.4323 16.5836C84.0862 16.2899 83.8492 15.8889 83.7593 15.4451C83.7294 15.2866 83.7149 15.1257 83.7159 14.9646C83.7159 12.6849 83.7159 10.3993 83.7159 8.10766L83.7195 7.90249Z" fill="white"/>
<path id="Vector_5" d="M78.6317 12.0886C78.7112 12.0886 78.7582 12.0886 78.8124 12.0886C79.492 12.0886 80.1716 12.0886 80.8512 12.0886C80.9038 12.0822 80.9571 12.0946 81.0014 12.1236C81.0458 12.1526 81.0784 12.1963 81.0934 12.247C81.294 12.7203 81.5181 13.1846 81.7097 13.6616C81.8639 14.0177 81.9357 14.4039 81.9198 14.7914C81.9038 15.179 81.8005 15.558 81.6175 15.9004C81.4661 16.212 81.239 16.4812 80.9569 16.6835C80.6748 16.8859 80.3465 17.0151 80.0017 17.0594C79.9063 17.0702 79.8102 17.0738 79.7143 17.0702C78.0605 17.0702 76.4067 17.0702 74.753 17.0702C74.2377 17.0602 73.7452 16.8572 73.3737 16.5016C73.0021 16.146 72.7789 15.664 72.7485 15.1517C72.7485 15.0617 72.7485 14.9717 72.7485 14.8836V7.93848C72.8949 7.87909 74.6047 7.86829 74.8144 7.92408V14.1943C74.8038 14.3521 74.852 14.5083 74.9496 14.6331C75.0473 14.7579 75.1877 14.8426 75.344 14.871C75.4536 14.9003 75.5666 14.9154 75.6802 14.916C76.9074 14.916 78.1346 14.916 79.3619 14.916C79.7776 14.916 79.9872 14.664 79.8011 14.2375C79.7396 14.0953 79.6583 13.9621 79.5824 13.8253L78.7311 12.265C78.6913 12.2182 78.6678 12.166 78.6317 12.0886Z" fill="white"/>
<path id="Vector_6" d="M57.004 21.3608C57.004 21.2942 56.9895 21.2474 56.9877 21.2024C56.9877 20.6391 56.9877 20.0776 56.9877 19.5143C56.9837 19.4615 56.9955 19.4087 57.0215 19.3626C57.0476 19.3165 57.0868 19.2791 57.1341 19.2551C57.6763 18.924 58.2077 18.5928 58.7301 18.2419C58.9505 18.0861 59.1578 17.9128 59.35 17.7235C59.513 17.57 59.623 17.369 59.6645 17.1494C59.6673 17.1063 59.6673 17.063 59.6645 17.0199H59.4494C58.7518 17.0199 58.0541 17.0307 57.3564 17.0199C56.8131 17.0171 56.2801 16.8718 55.8111 16.5987C55.5306 16.4438 55.2948 16.2198 55.1261 15.9482C54.9574 15.6766 54.8616 15.3664 54.8477 15.0474C54.8152 14.4287 54.952 13.8129 55.2436 13.2657C55.4664 12.8081 55.7764 12.3979 56.1563 12.0581C56.4387 11.8218 56.7794 11.6652 57.1431 11.6045C57.4232 11.5384 57.7088 11.4987 57.9963 11.4858C58.5728 11.4728 59.1365 11.6563 59.594 12.0059C60.2242 12.4668 60.6989 13.1077 60.955 13.8434C61.2537 14.6879 61.4805 15.5561 61.6328 16.4386C61.7471 17.018 61.6906 17.6181 61.4701 18.1663C61.3139 18.5082 61.0887 18.8145 60.8086 19.0661C60.38 19.452 59.9053 19.7839 59.3952 20.0542C58.6343 20.4789 57.8679 20.8892 57.1034 21.314C57.0853 21.3284 57.0564 21.3374 57.004 21.3608ZM59.0608 14.907C59.0084 14.8314 58.9813 14.7864 58.9488 14.7432C58.7246 14.4481 58.5005 14.1511 58.2746 13.856C58.2432 13.8122 58.2088 13.7707 58.1716 13.7318C58.1309 13.6813 58.0805 13.6394 58.0234 13.6086C57.9662 13.5778 57.9034 13.5587 57.8387 13.5525C57.774 13.5463 57.7087 13.5531 57.6466 13.5724C57.5846 13.5918 57.5271 13.6233 57.4775 13.6652C57.3564 13.7499 57.2586 13.8634 57.1929 13.9955C57.1272 14.1275 57.0958 14.2738 57.1016 14.4211C57.094 14.4887 57.1019 14.5571 57.1246 14.6213C57.1474 14.6854 57.1843 14.7436 57.2328 14.7916C57.2813 14.8395 57.34 14.8759 57.4046 14.8981C57.4692 14.9202 57.538 14.9276 57.6058 14.9196H58.871C58.9216 14.9196 58.9723 14.9124 59.0608 14.907Z" fill="white"/>
<path id="Vector_7" d="M40.0542 24.728H41.8508C42.1556 25.9446 42.4623 27.1636 42.7707 28.385H42.8123C43.1196 27.1672 43.4268 25.9482 43.7341 24.728H44.7842L45.6879 28.3904H45.7295C45.9012 27.7893 46.0512 27.1792 46.2139 26.5745C46.3765 25.9698 46.5356 25.3507 46.7001 24.728H47.3995L45.7186 30.865H44.5529C44.2745 29.7852 43.9938 28.6934 43.7106 27.5896C43.6293 27.631 43.6365 27.7047 43.622 27.7605C43.3654 28.7384 43.1105 29.7162 42.8575 30.6941C42.843 30.7517 42.825 30.8074 42.8069 30.874H41.6465C41.1188 28.8332 40.5892 26.7941 40.0542 24.728Z" fill="white"/>
<path id="Vector_8" d="M101.137 7.90066C101.206 7.90066 101.266 7.88987 101.318 7.88987H103.203C103.217 7.88925 103.231 7.89159 103.243 7.89672C103.256 7.90186 103.267 7.90966 103.276 7.91959C103.286 7.92951 103.293 7.94133 103.297 7.95423C103.301 7.96712 103.303 7.98078 103.301 7.99425C103.301 8.03744 103.301 8.07884 103.301 8.12023C103.301 11.0238 103.301 13.9261 103.301 16.8272C103.301 16.8974 103.301 16.9676 103.29 17.0468H101.137V7.90066Z" fill="white"/>
<path id="Vector_9" d="M82.6314 26.7149V24.7352L84.2671 24.6416V30.865H82.6405V30.5051C82.5932 30.5377 82.5479 30.5732 82.5049 30.6112C82.0458 31.0612 81.2614 31.0612 80.8204 30.8236C80.5661 30.683 80.3653 30.4629 80.2493 30.1973C80.128 29.9362 80.0505 29.6572 80.0197 29.3712C79.9283 28.7295 79.9577 28.0765 80.1065 27.4455C80.1596 27.2241 80.2507 27.0135 80.3758 26.8228C80.4891 26.6488 80.6419 26.5036 80.8217 26.3989C81.0015 26.2942 81.2035 26.2329 81.4114 26.2199C81.6367 26.1856 81.8672 26.2156 82.0761 26.3063C82.285 26.3971 82.4638 26.545 82.5917 26.7329L82.6314 26.7149ZM81.6952 28.5002C81.6952 28.8601 81.6952 29.2057 81.6952 29.5584C81.6908 29.7386 81.7266 29.9174 81.8 30.0821C81.8299 30.1547 81.8815 30.2164 81.9478 30.2589C82.014 30.3014 82.0918 30.3226 82.1705 30.3197C82.2496 30.3237 82.3278 30.3017 82.3931 30.2572C82.4584 30.2126 82.5072 30.148 82.532 30.0731C82.5842 29.9465 82.6148 29.8121 82.6224 29.6754C82.6441 29.0059 82.6658 28.3346 82.6224 27.6651C82.6198 27.4613 82.5691 27.2609 82.4742 27.0802C82.4414 27.0137 82.3896 26.9584 82.3253 26.9212C82.2609 26.884 82.1869 26.8667 82.1127 26.8714C82.0395 26.8751 81.9694 26.902 81.9128 26.9484C81.8561 26.9947 81.816 27.058 81.7982 27.1288C81.7617 27.2421 81.7386 27.3593 81.7295 27.4779C81.706 27.8181 81.6952 28.1582 81.6952 28.5002Z" fill="white"/>
<path id="Vector_10" d="M60.3009 26.7041V24.7388L61.9384 24.6453V30.8687H60.3117C60.3117 30.7589 60.3009 30.6545 60.2937 30.5249C60.2522 30.5546 60.2124 30.5864 60.1744 30.6203C59.7243 31.0486 58.9851 31.0594 58.5369 30.8435C58.281 30.7179 58.0753 30.5098 57.9531 30.2532C57.833 30.0185 57.7536 29.7654 57.7181 29.5045C57.6092 28.8413 57.6263 28.1637 57.7687 27.5068C57.8173 27.2783 57.9047 27.0598 58.0272 26.8607C58.1975 26.5968 58.4502 26.396 58.7465 26.2893C59.0428 26.1826 59.3661 26.176 59.6665 26.2704C59.85 26.3311 60.0145 26.4384 60.1437 26.5818C60.1852 26.6249 60.2232 26.6699 60.2629 26.7149L60.3009 26.7041ZM59.3574 28.6964C59.3574 28.9502 59.3683 29.3209 59.3882 29.6916C59.3993 29.822 59.4298 29.9499 59.4785 30.0714C59.5055 30.149 59.5576 30.2155 59.6266 30.2604C59.6956 30.3054 59.7777 30.3263 59.8599 30.3197C59.9396 30.3234 60.0183 30.3006 60.0837 30.2551C60.1491 30.2095 60.1975 30.1436 60.2214 30.0678C60.2634 29.9624 60.2896 29.8514 60.2991 29.7384C60.3488 29.0164 60.3488 28.2918 60.2991 27.5698C60.293 27.383 60.2362 27.2014 60.1346 27.0443C60.0996 26.9866 60.049 26.9398 59.9886 26.9093C59.9282 26.8789 59.8605 26.8659 59.793 26.8719C59.7256 26.8779 59.6612 26.9026 59.6072 26.9433C59.5532 26.9839 59.5117 27.0389 59.4876 27.1019C59.4369 27.23 59.4082 27.3656 59.4026 27.5032C59.3737 27.8613 59.3701 28.2195 59.3574 28.6964Z" fill="white"/>
<path id="Vector_11" d="M65.732 24.7298C65.7989 24.7298 65.8567 24.7298 65.9127 24.7298C66.7297 24.7298 67.5484 24.7298 68.3654 24.7298C68.7317 24.7238 69.0969 24.7704 69.4498 24.8683C69.7963 24.95 70.1039 25.1479 70.3211 25.4288C70.5383 25.7096 70.6519 26.0563 70.6427 26.4107C70.6479 26.5956 70.6358 26.7805 70.6066 26.9632C70.5731 27.1863 70.4875 27.3985 70.3566 27.5826C70.2257 27.7668 70.0531 27.9177 69.8529 28.0232C69.4972 28.2144 69.1034 28.3244 68.6998 28.3454C68.3817 28.3688 68.0636 28.3688 67.7436 28.3778H67.5123C67.4979 28.588 67.4943 28.7989 67.5014 29.0095C67.5014 29.2182 67.5014 29.4288 67.5014 29.6376V30.8812H65.7266L65.732 24.7298ZM67.5159 27.8019C67.675 27.8019 67.8123 27.8019 67.9497 27.8019C68.1473 27.8099 68.3415 27.7491 68.4989 27.6298C68.6563 27.5106 68.767 27.3404 68.8118 27.1486C68.9118 26.8065 68.9292 26.4457 68.8624 26.0957C68.8385 25.9666 68.7971 25.8413 68.7395 25.7232C68.6983 25.6366 68.6402 25.559 68.5685 25.495C68.4968 25.431 68.413 25.382 68.322 25.3507C68.0611 25.278 67.7885 25.2572 67.5195 25.2895L67.5159 27.8019Z" fill="white"/>
<path id="Vector_12" d="M95.8979 14.6082L97.4721 12.9363C97.5029 12.9885 97.5227 13.0173 97.5372 13.0479C97.9257 13.9032 98.2436 14.7886 98.4879 15.6952C98.6276 16.2165 98.6844 16.7564 98.656 17.2952C98.6191 17.9108 98.3567 18.4916 97.9186 18.9275C97.5038 19.3369 97.032 19.6848 96.5178 19.9605C95.7949 20.3673 95.0719 20.7578 94.3489 21.1556L93.9874 21.3535C93.9345 20.6817 93.926 20.0072 93.9621 19.3342C94.1736 19.2047 94.3959 19.0751 94.6128 18.9347C95.0357 18.6612 95.4587 18.3948 95.878 18.105C96.006 18.0128 96.1268 17.9111 96.2395 17.8009C96.4139 17.6467 96.5414 17.447 96.6076 17.2243C96.6737 17.0016 96.6758 16.7649 96.6136 16.5411C96.5101 16.1357 96.376 15.7386 96.2124 15.3533C96.0967 15.1175 95.9991 14.8638 95.8979 14.6082Z" fill="white"/>
<path id="Vector_13" d="M62.6758 21.3499C62.6758 21.2779 62.665 21.2257 62.665 21.17C62.665 20.6192 62.665 20.0685 62.665 19.5178C62.661 19.4593 62.6747 19.4009 62.7043 19.3502C62.734 19.2996 62.7782 19.2589 62.8313 19.2335C63.359 18.9095 63.885 18.5838 64.3983 18.2418C64.6151 18.0911 64.8177 17.9213 65.0038 17.7343C65.1522 17.5926 65.2609 17.4149 65.3193 17.2185C65.3776 17.0222 65.3835 16.8142 65.3364 16.6149C65.2598 16.2585 65.1509 15.9097 65.011 15.5729C64.8881 15.2543 64.7598 14.9394 64.6278 14.6064L66.1967 12.9363C66.2181 12.964 66.238 12.9928 66.2563 13.0227C66.6627 13.9104 66.9905 14.8317 67.2359 15.7762C67.349 16.2233 67.4031 16.6831 67.3968 17.144C67.3899 17.8038 67.1277 18.4356 66.6648 18.9077C66.2954 19.2859 65.8722 19.6079 65.4087 19.8634C64.5357 20.3565 63.6536 20.8334 62.7752 21.3157C62.7433 21.3302 62.71 21.3417 62.6758 21.3499Z" fill="white"/>
<path id="Vector_14" d="M52.9014 9.82103C51.4632 9.75224 50.0227 9.89968 48.6286 10.2584C47.2369 10.6381 45.9826 11.3166 44.7282 12.0581C44.7191 12.0075 44.7131 11.9564 44.7102 11.9051C44.7102 11.331 44.7102 10.7569 44.7102 10.181C44.7073 10.1312 44.7177 10.0815 44.7402 10.037C44.7628 9.99245 44.7966 9.95459 44.8385 9.92721C45.4495 9.44025 46.1291 9.04549 46.8556 8.7556C47.5983 8.46182 48.372 8.25233 49.1618 8.1311C49.7776 8.02975 50.3996 7.96963 51.0235 7.95113C51.6253 7.93853 52.2254 7.92953 52.8309 7.92053C52.8534 7.92238 52.8758 7.92599 52.8978 7.93133C52.937 8.56059 52.9382 9.19163 52.9014 9.82103Z" fill="white"/>
<path id="Vector_15" d="M87.8712 26.3495L89.5105 26.2307V30.8506C88.9692 30.8931 88.4257 30.8973 87.8838 30.8632V30.2171L87.8495 30.2063L87.7121 30.3592C87.5147 30.5958 87.2561 30.7739 86.9643 30.8745C86.6724 30.9751 86.3585 30.9942 86.0565 30.9298C85.8263 30.9053 85.613 30.7979 85.4566 30.628C85.3002 30.458 85.2114 30.237 85.207 30.0065C85.207 29.9345 85.207 29.8625 85.207 29.7905V26.3495L86.8482 26.2307V26.4557C86.8482 27.5139 86.8482 28.5739 86.8482 29.6322C86.8466 29.7455 86.855 29.8587 86.8735 29.9705C86.8762 30.0098 86.8876 30.0481 86.9069 30.0826C86.9261 30.117 86.9526 30.1469 86.9847 30.17C87.0167 30.1932 87.0535 30.2091 87.0923 30.2166C87.1312 30.2241 87.1712 30.223 87.2097 30.2135C87.3056 30.2011 87.397 30.1654 87.4758 30.1096C87.5546 30.0537 87.6184 29.9794 87.6615 29.8931C87.7635 29.7025 87.825 29.493 87.8422 29.2776C87.8658 29.0636 87.8784 28.8486 87.8802 28.6333C87.8802 27.9458 87.8802 27.2583 87.8802 26.5709L87.8712 26.3495Z" fill="white"/>
<path id="Vector_16" d="M49.8233 31C49.592 30.9658 49.3263 30.9478 49.0696 30.8884C48.7513 30.8263 48.457 30.6759 48.2207 30.4547C47.9845 30.2334 47.8157 29.9501 47.7339 29.6376C47.5351 28.9798 47.5295 28.2792 47.7177 27.6183C47.7979 27.2805 47.9772 26.974 48.2327 26.7379C48.4882 26.5017 48.8085 26.3465 49.1528 26.2919C49.6135 26.1957 50.0892 26.1957 50.5499 26.2919C50.9007 26.3455 51.2272 26.5031 51.4868 26.7442C51.7463 26.9853 51.9269 27.2987 52.0049 27.6435C52.1817 28.2887 52.1767 28.9699 51.9904 29.6124C51.9043 29.9519 51.7182 30.2581 51.456 30.4915C51.1939 30.725 50.8676 30.8751 50.5192 30.9226C50.3005 30.955 50.0782 30.9712 49.8233 31ZM49.319 28.6027C49.319 28.8241 49.3046 29.0473 49.319 29.2668C49.3405 29.5229 49.3755 29.7776 49.4239 30.0299C49.449 30.1464 49.4897 30.259 49.545 30.3647C49.5672 30.4276 49.6079 30.4824 49.6616 30.5222C49.7154 30.5619 49.7799 30.5848 49.8468 30.5878C49.9163 30.5843 49.9833 30.5608 50.0397 30.5203C50.0961 30.4797 50.1396 30.4238 50.1649 30.3593C50.2015 30.291 50.2312 30.2192 50.2535 30.1451C50.2844 30.0423 50.3091 29.9377 50.3276 29.8319C50.4173 29.1796 50.4366 28.5195 50.3854 27.8631C50.371 27.6365 50.3384 27.4114 50.2878 27.19C50.2557 27.0444 50.1995 26.9051 50.1215 26.7778C50.0977 26.7262 50.0595 26.6823 50.0115 26.6516C49.9634 26.6209 49.9075 26.6046 49.8504 26.6046C49.7933 26.6046 49.7374 26.6209 49.6894 26.6516C49.6413 26.6823 49.6031 26.7262 49.5793 26.7778C49.5064 26.901 49.4527 27.0345 49.4203 27.1738C49.3213 27.6433 49.2873 28.1241 49.319 28.6027Z" fill="white"/>
<path id="Vector_17" d="M54.8477 31C54.6092 30.9658 54.3308 30.946 54.0651 30.8812C53.7535 30.8156 53.4663 30.6652 53.2355 30.4465C53.0048 30.2279 52.8396 29.9497 52.7584 29.643C52.5512 28.9624 52.5512 28.2359 52.7584 27.5553C52.844 27.2371 53.0188 26.9496 53.2623 26.7265C53.5059 26.5035 53.8081 26.354 54.1338 26.2955C54.6101 26.1917 55.1034 26.1917 55.5797 26.2955C55.93 26.3525 56.2551 26.5127 56.5128 26.7556C56.7706 26.9985 56.9493 27.3128 57.0257 27.6579C57.1929 28.2799 57.1929 28.9347 57.0257 29.5566C56.9488 29.905 56.7674 30.222 56.5057 30.4656C56.244 30.7092 55.9142 30.8679 55.5599 30.9208C55.343 30.955 55.1134 30.9694 54.8477 31ZM55.4189 28.6154C55.4189 28.3814 55.4279 28.1474 55.4189 27.9153C55.4134 27.6096 55.3629 27.3064 55.2689 27.0154C55.2318 26.9088 55.1761 26.8095 55.1044 26.7221C55.0784 26.6885 55.045 26.6613 55.0068 26.6425C54.9685 26.6238 54.9265 26.6141 54.8839 26.6141C54.8413 26.6141 54.7992 26.6238 54.761 26.6425C54.7228 26.6613 54.6894 26.6885 54.6634 26.7221C54.6057 26.7824 54.5614 26.8542 54.5333 26.9326C54.4791 27.0787 54.4379 27.2293 54.4103 27.3826C54.3209 28.0223 54.3009 28.6697 54.3507 29.3137C54.3662 29.5522 54.4 29.7893 54.4519 30.0227C54.4812 30.1633 54.5344 30.2978 54.6092 30.4205C54.6329 30.4735 54.6716 30.5185 54.7205 30.5501C54.7694 30.5817 54.8265 30.5985 54.8848 30.5985C54.9431 30.5985 55.0002 30.5817 55.0491 30.5501C55.098 30.5185 55.1367 30.4735 55.1604 30.4205C55.2297 30.3019 55.2815 30.174 55.3141 30.0407C55.4139 29.5726 55.4491 29.093 55.4189 28.6154Z" fill="white"/>
<path id="Vector_18" d="M79.4812 28.4589C79.4874 28.8397 79.4431 29.2198 79.3492 29.5891C79.2693 29.9143 79.0977 30.2101 78.8547 30.4415C78.6116 30.673 78.3073 30.8305 77.9774 30.8957C77.4486 31.022 76.8965 31.0158 76.3706 30.8777C76.0515 30.8042 75.7596 30.6427 75.5285 30.4115C75.2973 30.1804 75.1363 29.8891 75.0639 29.5711C74.8955 28.956 74.8906 28.3079 75.0494 27.6904C75.1207 27.3347 75.3001 27.0094 75.5633 26.7587C75.8264 26.5079 76.1606 26.3437 76.5206 26.2884C77.0045 26.1854 77.5053 26.1915 77.9865 26.3064C78.3343 26.3765 78.653 26.5493 78.9009 26.8022C79.1488 27.0552 79.3145 27.3766 79.3764 27.7246C79.4237 27.9674 79.4587 28.2125 79.4812 28.4589ZM76.6363 28.4589C76.6562 28.8764 76.6598 29.1589 76.6833 29.4379C76.6934 29.7438 76.7583 30.0455 76.8749 30.3288C76.8961 30.4015 76.9392 30.466 76.9983 30.5136C77.0574 30.5612 77.1298 30.5897 77.2056 30.5951C77.2833 30.5931 77.358 30.5656 77.4182 30.5167C77.4784 30.4678 77.5206 30.4005 77.5382 30.3252C77.6058 30.1467 77.6567 29.9623 77.69 29.7744C77.7737 29.194 77.7943 28.6063 77.7515 28.0215C77.7328 27.753 77.6997 27.4856 77.6521 27.2207C77.6311 27.0471 77.5637 26.8824 77.4569 26.7437C77.43 26.7033 77.3935 26.6701 77.3506 26.6471C77.3077 26.6241 77.2598 26.6121 77.2111 26.6121C77.1624 26.6121 77.1144 26.6241 77.0715 26.6471C77.0286 26.6701 76.9921 26.7033 76.9653 26.7437C76.9202 26.7976 76.8842 26.8584 76.8586 26.9237C76.8088 27.0453 76.7731 27.172 76.752 27.3016C76.6996 27.73 76.6652 28.1583 76.6345 28.4517L76.6363 28.4589Z" fill="white"/>
<path id="Vector_19" d="M97.7324 29.4559L98.5511 29.2903C98.5511 29.3551 98.5511 29.4073 98.5511 29.4559C98.5377 29.7064 98.6168 29.9531 98.7737 30.1495C98.9306 30.3458 99.1542 30.4781 99.4024 30.5213C99.5624 30.5456 99.7251 30.5456 99.885 30.5213C99.9692 30.5141 100.049 30.4812 100.114 30.4271C100.179 30.3729 100.225 30.3003 100.247 30.2189C100.28 30.1372 100.284 30.0467 100.259 29.962C100.235 29.8774 100.182 29.8036 100.109 29.7528C99.9367 29.6252 99.7555 29.5098 99.5669 29.4073C99.3446 29.2885 99.1078 29.1967 98.8855 29.0797C98.5941 28.9352 98.3371 28.7302 98.1318 28.4786C98.0022 28.3198 97.9134 28.1319 97.8731 27.9312C97.8328 27.7305 97.8422 27.5231 97.9005 27.3268C97.9529 27.1356 98.0544 26.9613 98.1951 26.8211C98.3697 26.6372 98.5833 26.4946 98.8205 26.4036C99.3905 26.1803 100.019 26.1537 100.606 26.328C100.866 26.3969 101.097 26.548 101.264 26.7586C101.43 26.9692 101.524 27.228 101.53 27.496L100.765 27.6274C100.749 27.5122 100.736 27.4114 100.718 27.3142C100.699 27.1394 100.62 26.9764 100.494 26.8531C100.369 26.7297 100.204 26.6535 100.028 26.6375C99.8677 26.616 99.7054 26.616 99.5452 26.6375C99.4638 26.6476 99.3877 26.6832 99.3279 26.7391C99.2681 26.7951 99.2278 26.8685 99.2127 26.9489C99.1897 27.0242 99.1908 27.1049 99.2157 27.1796C99.2406 27.2544 99.2882 27.3196 99.3518 27.3664C99.4645 27.4615 99.5855 27.5465 99.7133 27.6202C99.8814 27.7101 100.059 27.7857 100.236 27.8613C100.572 27.9968 100.887 28.1785 101.172 28.4012C101.318 28.5025 101.442 28.6317 101.537 28.7813C101.632 28.9308 101.697 29.0977 101.727 29.2723C101.814 29.9922 101.521 30.6041 100.8 30.8416C100.379 30.9723 99.9368 31.0188 99.4982 30.9784C99.1895 30.9651 98.8847 30.9044 98.5945 30.7984C98.3224 30.7004 98.0904 30.5157 97.9345 30.2729C97.7786 30.0302 97.7076 29.7429 97.7324 29.4559Z" fill="white"/>
<path id="Vector_20" d="M95.0701 26.8498H94.5278V26.3567H95.061V25.5558C95.6331 25.391 96.1853 25.1641 96.7076 24.8792C96.7202 25.1401 96.7076 25.3741 96.7076 25.6098C96.7076 25.8456 96.7076 26.0868 96.7076 26.3495H97.4305V26.8516H96.7202C96.7202 26.9326 96.7202 26.992 96.7202 27.0496V30.0101C96.7211 30.082 96.7283 30.1537 96.7419 30.2243C96.7479 30.2629 96.7662 30.2985 96.7943 30.3257C96.8223 30.353 96.8585 30.3705 96.8974 30.3755C96.9372 30.3815 96.9778 30.3725 97.0113 30.3502C97.0448 30.3279 97.0686 30.2939 97.0781 30.2549L97.1088 30.1829L97.5516 30.2261C97.5268 30.3326 97.4802 30.4328 97.415 30.5208C97.3497 30.6087 97.267 30.6823 97.1721 30.7372C97.0156 30.8275 96.8421 30.8845 96.6624 30.9046C96.3646 30.9507 96.0605 30.9342 95.7695 30.856C95.5856 30.8157 95.42 30.7164 95.2983 30.5733C95.1765 30.4303 95.1052 30.2514 95.0954 30.0641C95.083 29.9632 95.0769 29.8616 95.0773 29.76V26.8498H95.0701Z" fill="white"/>
<path id="Vector_21" d="M93.7163 28.8637L94.3904 29.0689C94.4411 29.4823 94.3595 29.9011 94.1573 30.2657C94.0504 30.4369 93.9077 30.5832 93.739 30.6947C93.5703 30.8062 93.3795 30.8802 93.1795 30.9118C92.6658 31.0235 92.1327 31.0106 91.6251 30.874C91.3175 30.8018 91.0362 30.6457 90.8127 30.4232C90.5892 30.2006 90.4324 29.9205 90.3599 29.6142C90.1929 29.0258 90.1929 28.4029 90.3599 27.8145C90.4813 27.3653 90.7444 26.9667 91.1105 26.6777C91.4766 26.3887 91.9263 26.2244 92.3932 26.2092C92.6571 26.1947 92.9218 26.2074 93.1831 26.2469C93.8844 26.3639 94.2838 26.8894 94.2404 27.6255L93.4922 27.9855C93.4922 27.8505 93.4922 27.7497 93.4922 27.6489C93.4847 27.4521 93.4635 27.2561 93.4289 27.0622C93.412 26.9482 93.3596 26.8423 93.2793 26.7594C93.1989 26.6764 93.0945 26.6206 92.9807 26.5997C92.8537 26.5689 92.7204 26.5771 92.5982 26.623C92.476 26.6689 92.3705 26.7505 92.2956 26.857C92.1744 27.0288 92.0918 27.2247 92.0534 27.4312C91.9515 27.955 91.9223 28.4903 91.9667 29.0221C91.9812 29.2885 92.0209 29.562 92.0534 29.823C92.0647 29.894 92.0823 29.9638 92.1059 30.0317C92.1395 30.1828 92.2232 30.3182 92.3436 30.4161C92.4639 30.5141 92.6138 30.5689 92.7692 30.5716C92.9344 30.5961 93.1033 30.5696 93.2529 30.4956C93.4025 30.4216 93.5258 30.3036 93.606 30.1577C93.6991 29.9823 93.7493 29.7874 93.7524 29.589C93.7524 29.409 93.7398 29.2201 93.7325 29.0347L93.7163 28.8637Z" fill="white"/>
<path id="Vector_22" d="M74.4746 27.9747H73.3395C73.3702 27.8541 73.3974 27.7443 73.4245 27.6364C73.4532 27.539 73.475 27.4398 73.4895 27.3394C73.4978 27.2562 73.4885 27.1723 73.4624 27.0929C73.4543 27.0637 73.4384 27.0372 73.4164 27.0163C73.3943 26.9954 73.367 26.9809 73.3373 26.9742C73.3076 26.9676 73.2767 26.969 73.2478 26.9785C73.2189 26.988 73.1931 27.0051 73.1732 27.0281C73.1153 27.0886 73.0683 27.1586 73.0341 27.235C72.9032 27.5252 72.8372 27.8402 72.8407 28.1583C72.8407 28.9052 72.8407 29.6538 72.8407 30.4007C72.8407 30.5159 72.8407 30.6293 72.8407 30.7427C72.8387 30.786 72.8345 30.8293 72.828 30.8722H71.2212C71.1851 30.7337 71.1797 26.5529 71.2122 26.3622L72.8389 26.247V26.8949L72.8732 26.9039C72.8984 26.8599 72.9268 26.8177 72.9582 26.7779C73.0558 26.6492 73.164 26.5288 73.2817 26.418C73.4021 26.3166 73.5479 26.2495 73.7034 26.2239C73.859 26.1982 74.0187 26.2149 74.1655 26.2722C74.2699 26.3049 74.3632 26.3658 74.4349 26.4481C74.5067 26.5304 74.5542 26.6308 74.5722 26.7383C74.6076 26.8892 74.6198 27.0445 74.6083 27.199C74.5848 27.46 74.5234 27.7156 74.4746 27.9747Z" fill="white"/>
<path id="Vector_23" d="M100.946 6.89832L99.4747 6.66976C99.422 6.5263 99.4175 6.36963 99.4621 6.22343C99.5088 5.88389 99.6408 5.56157 99.8458 5.28631C100.051 5.01105 100.322 4.79174 100.635 4.64869C100.925 4.52326 101.247 4.49177 101.555 4.5587C101.862 4.60729 102.166 4.67748 102.473 4.73867C102.538 4.75072 102.604 4.75913 102.67 4.76387C102.833 4.78744 102.998 4.75539 103.14 4.67298C103.281 4.59057 103.39 4.4627 103.449 4.31034C103.476 4.25275 103.507 4.19516 103.543 4.13037L104.989 4.42012C105.012 4.602 104.992 4.78656 104.933 4.96004C104.828 5.38824 104.587 5.77132 104.246 6.05246C104.092 6.18632 103.908 6.28303 103.71 6.33514C103.512 6.38725 103.305 6.39336 103.104 6.35301C102.721 6.28282 102.336 6.22343 101.955 6.14965C101.822 6.1147 101.683 6.12216 101.555 6.17096C101.428 6.21976 101.319 6.3074 101.244 6.4214C101.139 6.56178 101.054 6.72015 100.946 6.89832Z" fill="white"/>
<path id="Vector_24" d="M79.3708 11.2787C79.1303 11.2744 78.8964 11.1994 78.6987 11.063C78.501 10.9265 78.3483 10.7349 78.2598 10.5122C78.1713 10.2895 78.151 10.0456 78.2014 9.81145C78.2519 9.57727 78.3708 9.3632 78.5433 9.19623C78.7158 9.02926 78.934 8.91687 79.1705 8.87322C79.407 8.82957 79.6512 8.85662 79.8723 8.95096C80.0934 9.04529 80.2815 9.20269 80.4129 9.40332C80.5443 9.60394 80.6131 9.83881 80.6106 10.0783C80.6095 10.2385 80.5764 10.3969 80.5132 10.5443C80.4501 10.6916 80.3582 10.825 80.2428 10.9367C80.1274 11.0484 79.9909 11.1361 79.8412 11.1948C79.6915 11.2535 79.5316 11.2821 79.3708 11.2787Z" fill="white"/>
<path id="Vector_25" d="M37.0521 8.87983C37.3723 8.87935 37.6797 9.00519 37.907 9.22982C38.1343 9.45445 38.2629 9.75957 38.2648 10.0784C38.2725 10.2416 38.2471 10.4046 38.1901 10.5578C38.133 10.7109 38.0456 10.851 37.9329 10.9698C37.8202 11.0885 37.6847 11.1834 37.5343 11.2487C37.384 11.3141 37.222 11.3486 37.0579 11.3501C36.8939 11.3517 36.7312 11.3203 36.5797 11.2579C36.4281 11.1954 36.2907 11.1032 36.1758 10.9866C36.0608 10.8701 35.9707 10.7317 35.9107 10.5796C35.8507 10.4276 35.8221 10.2651 35.8266 10.1018C35.8247 9.94097 35.8551 9.78135 35.9159 9.63234C35.9768 9.48332 36.067 9.34793 36.1811 9.23409C36.2953 9.12025 36.4311 9.03028 36.5807 8.96944C36.7303 8.90861 36.8905 8.87814 37.0521 8.87983Z" fill="white"/>
<path id="Vector_26" d="M89.2195 18.8682C89.541 18.8715 89.848 19.0017 90.0733 19.23C90.2987 19.4584 90.4238 19.7665 90.4214 20.0866C90.421 20.328 90.3485 20.5638 90.2132 20.764C90.0778 20.9643 89.8856 21.1199 89.6612 21.2111C89.4368 21.3023 89.1901 21.3249 88.9527 21.2762C88.7153 21.2274 88.4978 21.1094 88.328 20.9372C88.1581 20.765 88.0435 20.5464 87.9988 20.3091C87.954 20.0719 87.9812 19.8268 88.0768 19.6049C88.1724 19.3831 88.332 19.1946 88.5355 19.0634C88.739 18.9322 88.9771 18.8643 89.2195 18.8682Z" fill="white"/>
<path id="Vector_27" d="M93.0676 20.0776C93.068 20.2377 93.0366 20.3963 92.9752 20.5443C92.9137 20.6922 92.8233 20.8266 92.7094 20.9395C92.5954 21.0525 92.4601 21.1419 92.3112 21.2024C92.1624 21.263 92.0029 21.2936 91.8421 21.2924C91.6781 21.2972 91.5148 21.269 91.362 21.2095C91.2092 21.15 91.07 21.0605 90.9528 20.9462C90.8355 20.8319 90.7426 20.6952 90.6796 20.5444C90.6167 20.3935 90.5849 20.2316 90.5862 20.0682C90.5876 19.9048 90.622 19.7434 90.6874 19.5936C90.7529 19.4437 90.848 19.3086 90.9671 19.1962C91.0862 19.0839 91.2268 18.9966 91.3806 18.9396C91.5344 18.8826 91.6981 18.8571 91.862 18.8646C92.183 18.8674 92.4899 18.9965 92.7158 19.2237C92.9416 19.451 93.068 19.7579 93.0676 20.0776Z" fill="white"/>
<path id="Vector_28" d="M38.4095 6.33319C38.7306 6.3365 39.0374 6.46571 39.2634 6.69278C39.4894 6.91985 39.6164 7.22649 39.6169 7.54619C39.6112 7.86863 39.4791 8.17606 39.2487 8.40275C39.0184 8.62943 38.7081 8.75737 38.3842 8.7592C38.0619 8.75541 37.7541 8.62512 37.5277 8.39665C37.3013 8.16817 37.1746 7.85997 37.1751 7.53899C37.1745 7.37852 37.2063 7.21956 37.2684 7.0715C37.3306 6.92343 37.4219 6.78925 37.5369 6.67688C37.652 6.5645 37.7884 6.47619 37.9383 6.41716C38.0882 6.35814 38.2484 6.32958 38.4095 6.33319Z" fill="white"/>
<path id="Vector_29" d="M39.7633 8.87976C40.004 8.87941 40.2394 8.95007 40.4398 9.08283C40.6402 9.21558 40.7966 9.40448 40.8893 9.62567C40.982 9.84687 41.0068 10.0905 40.9606 10.3257C40.9144 10.5609 40.7992 10.7772 40.6296 10.9473C40.4601 11.1174 40.2437 11.2337 40.0078 11.2814C39.7719 11.3292 39.5271 11.3063 39.3043 11.2157C39.0815 11.125 38.8906 10.9707 38.7558 10.7721C38.621 10.5735 38.5483 10.3396 38.5469 10.1C38.5459 9.77761 38.6735 9.46806 38.9015 9.23927C39.1296 9.01049 39.4395 8.88119 39.7633 8.87976Z" fill="white"/>
<path id="Vector_30" d="M59.0608 14.907C58.9723 14.907 58.9199 14.9196 58.8675 14.9196H57.6023C57.5344 14.9276 57.4656 14.9203 57.401 14.8981C57.3365 14.876 57.2777 14.8395 57.2292 14.7916C57.1808 14.7437 57.1438 14.6855 57.1211 14.6213C57.0983 14.5572 57.0904 14.4887 57.098 14.4211C57.0923 14.2739 57.1236 14.1276 57.1893 13.9955C57.255 13.8635 57.3528 13.7499 57.4739 13.6652C57.5235 13.6234 57.581 13.5918 57.643 13.5725C57.7051 13.5531 57.7704 13.5463 57.8351 13.5525C57.8998 13.5587 57.9626 13.5778 58.0198 13.6086C58.077 13.6394 58.1273 13.6813 58.168 13.7318C58.2052 13.7707 58.2396 13.8122 58.271 13.856C58.4969 14.1512 58.7211 14.4481 58.9452 14.7433C58.9813 14.7865 59.0084 14.8314 59.0608 14.907Z" fill="white"/>
<path id="Vector_31" d="M81.6953 28.5002C81.708 28.1583 81.7152 27.8181 81.7351 27.478C81.7442 27.3593 81.7672 27.2421 81.8038 27.1288C81.8215 27.058 81.8617 26.9948 81.9183 26.9484C81.9749 26.9021 82.045 26.8751 82.1182 26.8715C82.1925 26.8668 82.2665 26.8841 82.3308 26.9213C82.3952 26.9584 82.447 27.0137 82.4797 27.0803C82.5746 27.2609 82.6254 27.4613 82.6279 27.6652C82.6731 28.3347 82.6514 29.0059 82.6279 29.6754C82.6203 29.8121 82.5898 29.9465 82.5376 30.0732C82.5127 30.148 82.4639 30.2127 82.3986 30.2572C82.3333 30.3017 82.2551 30.3237 82.1761 30.3197C82.0973 30.3227 82.0196 30.3014 81.9533 30.259C81.8871 30.2165 81.8355 30.1548 81.8056 30.0822C81.7321 29.9175 81.6963 29.7386 81.7007 29.5585C81.7007 29.1985 81.7007 28.853 81.7007 28.5002H81.6953Z" fill="white"/>
<path id="Vector_32" d="M59.3574 28.6963C59.3701 28.2194 59.3737 27.8613 59.3954 27.5031C59.401 27.3655 59.4297 27.2299 59.4803 27.1018C59.5045 27.0388 59.546 26.9839 59.6 26.9432C59.654 26.9025 59.7184 26.8778 59.7858 26.8718C59.8532 26.8658 59.921 26.8788 59.9814 26.9092C60.0418 26.9397 60.0924 26.9865 60.1274 27.0442C60.2289 27.2013 60.2858 27.3829 60.2919 27.5697C60.3416 28.2917 60.3416 29.0163 60.2919 29.7383C60.2823 29.8513 60.2561 29.9623 60.2141 30.0677C60.1903 30.1435 60.1419 30.2094 60.0765 30.255C60.0111 30.3005 59.9324 30.3233 59.8527 30.3197C59.7704 30.3262 59.6884 30.3053 59.6194 30.2604C59.5503 30.2154 59.4983 30.1489 59.4713 30.0713C59.4226 29.9498 59.3921 29.8219 59.3809 29.6916C59.3683 29.3208 59.3647 28.9501 59.3574 28.6963Z" fill="white"/>
<path id="Vector_33" d="M67.5159 27.8019V25.2949C67.7848 25.2626 68.0575 25.2834 68.3184 25.3561C68.41 25.3882 68.4942 25.4384 68.566 25.5036C68.6377 25.5689 68.6955 25.6478 68.7359 25.7358C68.7937 25.8498 68.8362 25.9708 68.8624 26.0958C68.9292 26.4432 68.9131 26.8013 68.8154 27.1414C68.7705 27.3332 68.6599 27.5034 68.5025 27.6226C68.3451 27.7419 68.1509 27.8027 67.9533 27.7947C67.8123 27.8037 67.6749 27.8019 67.5159 27.8019Z" fill="white"/>
<path id="Vector_34" d="M49.3189 28.6028C49.2893 28.1251 49.3251 27.6455 49.4256 27.1775C49.458 27.0382 49.5116 26.9047 49.5846 26.7815C49.6084 26.7298 49.6466 26.686 49.6946 26.6553C49.7427 26.6246 49.7986 26.6083 49.8557 26.6083C49.9128 26.6083 49.9687 26.6246 50.0168 26.6553C50.0648 26.686 50.103 26.7298 50.1268 26.7815C50.2048 26.9088 50.261 27.0481 50.2931 27.1937C50.3437 27.4151 50.3763 27.6401 50.3907 27.8667C50.4419 28.5232 50.4226 29.1833 50.3329 29.8356C50.3144 29.9414 50.2896 30.0459 50.2588 30.1488C50.2365 30.2229 50.2068 30.2947 50.1702 30.3629C50.1449 30.4275 50.1014 30.4834 50.045 30.5239C49.9886 30.5645 49.9216 30.5879 49.8521 30.5915C49.7852 30.5885 49.7207 30.5656 49.6669 30.5259C49.6131 30.4861 49.5725 30.4312 49.5503 30.3683C49.495 30.2627 49.4543 30.1501 49.4292 30.0336C49.3808 29.7812 49.3458 29.5265 49.3243 29.2705C49.3045 29.0474 49.3189 28.8242 49.3189 28.6028Z" fill="white"/>
<path id="Vector_35" d="M55.419 28.6153C55.4481 29.0932 55.4116 29.5727 55.3106 30.0407C55.278 30.174 55.2262 30.3019 55.1569 30.4204C55.1332 30.4735 55.0945 30.5185 55.0456 30.5501C54.9967 30.5817 54.9396 30.5985 54.8813 30.5985C54.823 30.5985 54.7659 30.5817 54.717 30.5501C54.6681 30.5185 54.6294 30.4735 54.6057 30.4204C54.5309 30.2977 54.4777 30.1632 54.4484 30.0227C54.3965 29.7893 54.3627 29.5522 54.3472 29.3136C54.2974 28.6697 54.3174 28.0222 54.4068 27.3825C54.4344 27.2292 54.4756 27.0787 54.5298 26.9326C54.5579 26.8541 54.6022 26.7824 54.6599 26.722C54.6859 26.6884 54.7193 26.6612 54.7575 26.6425C54.7957 26.6238 54.8378 26.614 54.8804 26.614C54.923 26.614 54.965 26.6238 55.0033 26.6425C55.0415 26.6612 55.0749 26.6884 55.1009 26.722C55.1726 26.8094 55.2283 26.9087 55.2654 27.0154C55.3594 27.3064 55.4099 27.6096 55.4154 27.9152C55.428 28.142 55.419 28.376 55.419 28.6153Z" fill="white"/>
<path id="Vector_36" d="M76.6345 28.4517C76.6634 28.1583 76.6978 27.7318 76.7484 27.3035C76.7695 27.1739 76.8052 27.0471 76.855 26.9255C76.8806 26.8602 76.9167 26.7994 76.9617 26.7455C76.9885 26.7051 77.025 26.6719 77.0679 26.6489C77.1108 26.6259 77.1588 26.6139 77.2075 26.6139C77.2562 26.6139 77.3041 26.6259 77.347 26.6489C77.3899 26.6719 77.4264 26.7051 77.4533 26.7455C77.5601 26.8842 77.6275 27.0489 77.6485 27.2225C77.6961 27.4874 77.7292 27.7548 77.7479 28.0233C77.7907 28.6081 77.7701 29.1958 77.6864 29.7763C77.6531 29.9641 77.6022 30.1485 77.5346 30.327C77.5157 30.4007 77.4732 30.4662 77.4135 30.5136C77.3538 30.561 77.2802 30.5878 77.2039 30.5897C77.128 30.5843 77.0556 30.5558 76.9965 30.5082C76.9374 30.4606 76.8943 30.3961 76.8731 30.3234C76.7565 30.0401 76.6917 29.7384 76.6815 29.4325C76.6598 29.1554 76.6562 28.8692 76.6345 28.4517Z" fill="white"/>
</g>
<defs>
<clipPath id="clip0_75_1224">
<rect width="105" height="31" fill="white"/>
</clipPath>
</defs>
</svg>
