<svg width="36" height="36" viewBox="0 0 36 36" fill="none" xmlns="http://www.w3.org/2000/svg">
<path d="M34.3844 32.5835C31.0637 32.515 28.3576 32.603 25.6376 32.9723C35.6501 27.513 37.8367 12.6637 28.6538 4.65816C20.8341 -2.15936 8.70795 -0.4585 3.1211 8.47358C-4.64159 19.2774 2.66823 34.8881 18.4917 35.8362C24.0002 36.1663 27.4941 36.1296 34.107 34.4621C35.5115 34.1079 35.7717 32.6121 34.3844 32.5835ZM16.4108 1.34677C25.2536 0.74414 32.9905 7.40034 33.6 16.3319C34.4188 28.3153 22.3037 36.9099 11.3192 32.3251C1.19249 28.0972 -1.89741 15.1582 5.35905 6.83603C8.18907 3.58983 12.1144 1.64038 16.4108 1.34677Z" fill="white"/>
<path d="M9.81978 19.8527C12.6107 19.8527 14.8612 17.3702 14.4139 14.484C14.4043 14.0739 14.2784 13.6797 14.0759 13.3209C13.3525 11.6873 11.7183 10.5432 9.81978 10.5432C7.25321 10.5432 5.16504 12.6314 5.16504 15.198C5.16504 17.7645 7.25321 19.8527 9.81978 19.8527ZM10.545 11.4417C8.34308 12.6317 8.29775 15.5655 10.1551 16.9056C10.9546 17.4824 12.0244 17.6407 12.9685 17.3683C10.833 20.4567 5.99255 18.9339 5.99255 15.198C5.99255 12.8183 8.16382 10.9826 10.545 11.4417Z" fill="white"/>
<path d="M23.3359 18.818C26.1268 18.818 28.3773 16.3356 27.93 13.4493C27.9204 13.0393 27.7945 12.645 27.592 12.2863C26.8686 10.6526 25.2344 9.50854 23.3359 9.50854C20.7693 9.50854 18.6812 11.5967 18.6812 14.1633C18.6812 16.7299 20.7693 18.818 23.3359 18.818ZM24.0611 10.407C21.8592 11.597 21.8139 14.5308 23.6712 15.8709C24.4707 16.4478 25.5405 16.6061 26.4847 16.3336C24.3492 19.422 19.5087 17.8993 19.5087 14.1633C19.5087 11.7836 21.6799 9.94793 24.0611 10.407Z" fill="white"/>
<path d="M10.3126 23.6381C11.1039 24.1805 11.9652 24.6218 12.8668 24.9624C12.1152 25.6583 11.3182 26.4491 10.8729 27.471C10.4037 28.5488 10.3778 30.1375 11.4295 31.0792C12.7433 32.254 15.351 31.9385 16.7205 30.7304C18.3663 29.2782 18.4648 26.7261 19.9588 25.4975C23.2151 24.7692 26.1716 22.6227 27.8708 19.7508C28.1498 19.2795 27.4361 18.8585 27.1586 19.3295C23.7886 25.0262 16.243 26.6995 10.7803 22.9555C10.3295 22.6466 9.86085 23.3283 10.3126 23.6381ZM18.6522 25.7131C17.222 27.7575 17.2649 30.8301 13.8226 30.9804C13.2779 31.0065 12.5091 30.9343 11.9811 30.4626C11.2689 29.8245 11.2662 28.6409 11.6315 27.8015C12.2173 26.4575 13.555 25.5528 13.7362 25.2556C14.2269 25.4012 14.7273 25.513 15.2322 25.5985L14.844 26.073C14.4958 26.4976 15.1403 27.0201 15.484 26.5966C16.1249 25.7948 16.1117 25.8653 16.1665 25.7215C16.5574 25.7582 16.9491 25.7834 17.3411 25.7834C17.7795 25.7834 18.2174 25.76 18.6522 25.7131Z" fill="white"/>
<path d="M29.8765 3.92541L31.1561 0.560953C31.351 0.0489653 30.5769 -0.244633 30.3824 0.266799L29.1029 3.63125C28.9084 4.1419 29.681 4.43778 29.8765 3.92541Z" fill="white"/>
<path d="M31.4469 5.79463C31.7359 5.79463 31.7419 5.62651 33.9343 3.77514C34.3489 3.41673 33.8066 2.79077 33.3934 3.14912L31.1759 5.06813C30.8861 5.31947 31.0664 5.79463 31.4469 5.79463Z" fill="white"/>
<path d="M34.805 5.83302C34.2695 6.35345 33.61 6.74888 32.8984 6.97677C32.3759 7.14425 32.6308 7.93152 33.1505 7.76496C33.9834 7.49828 34.7549 7.0355 35.3814 6.42618C35.5452 6.26698 35.549 6.00515 35.39 5.8411C35.2306 5.67786 34.9687 5.67436 34.805 5.83302Z" fill="white"/>
</svg>
