<svg width="36" height="37" viewBox="0 0 36 37" fill="none" xmlns="http://www.w3.org/2000/svg">
<path d="M0.929958 33.0026C4.29488 32.9332 7.03707 33.0224 9.79332 33.3966C-0.397518 27.84 -2.51716 12.7732 6.73647 4.70486C14.6694 -2.21031 26.9527 -0.472692 32.6091 8.57012C34.862 11.705 36.0548 15.5157 35.7369 19.4875C35.2887 25.0873 31.9273 30.3434 27.1177 33.2146C24.2587 35.4194 19.1165 36.1739 17.0345 36.2987C11.4526 36.6331 7.91216 36.596 1.21097 34.9062C-0.212166 34.5473 -0.475803 33.0316 0.929958 33.0026ZM7.28758 5.33704C3.99755 8.20534 2.02184 12.1819 1.72459 16.534C0.892136 28.725 13.2516 37.3533 24.3028 32.7404C34.6492 28.4213 37.6439 15.2861 30.3423 6.91204C24.4139 0.112462 14.1025 -0.604305 7.28758 5.33704Z" fill="white"/>
<path d="M30.8948 21.7542C26.8646 25.5484 19.0339 20.3062 19.0681 12.7579C19.0771 10.7391 19.6916 8.9364 20.7982 7.68296C21.7805 6.57036 22.9193 5.9955 24.1832 5.9742C27.6788 5.87952 32.6686 10.9511 32.5552 17.2394C32.5304 18.6091 32.2222 20.5046 30.8948 21.7542ZM28.4938 9.0838C22.6442 2.88469 17.523 10.7403 21.0775 17.4797C21.0945 17.4732 21.1077 17.4605 21.1266 17.4576C21.0619 16.4074 21.9073 15.4474 22.9138 15.1404C23.9202 14.8334 25.0253 15.0733 25.9709 15.5348C28.8035 16.917 29.8165 19.8155 28.7827 21.9947C30.917 21.3879 31.677 19.4195 31.7167 17.2241C31.7699 14.2778 30.5951 11.3106 28.4938 9.0838Z" fill="white"/>
<path d="M16.9944 11.9974C17.796 17.9546 13.4029 23.2932 9.19725 23.2932C6.26107 23.2932 4.63525 21.1394 4.19683 18.1784C3.73307 15.0481 4.57079 11.7305 6.49518 9.07563C10.7518 3.20477 16.2293 6.30744 16.9944 11.9974ZM11.1429 6.76254C9.78385 6.91595 8.37454 7.91226 7.17432 9.56806C4.07027 13.8489 4.3321 19.8935 6.91609 21.7624C7.64153 22.2866 8.59598 22.5177 9.57953 22.4347C7.15916 19.0922 10.5783 14.4417 13.6166 14.5229C14.5867 14.5489 15.5637 15.1505 15.8814 16.0509C17.3962 10.4777 14.1017 6.4214 11.1429 6.76254Z" fill="white"/>
<path d="M22.6878 4.13864C21.6735 3.85913 20.4844 4.44982 20.0895 5.42321C20.0234 5.5859 19.8665 5.68471 19.7008 5.68471C19.6484 5.68471 19.5951 5.67488 19.5435 5.65414C19.3287 5.56679 19.2255 5.32221 19.3126 5.10766C19.8686 3.73684 21.4829 2.93924 22.9089 3.32958C23.1325 3.39072 23.2638 3.62165 23.2029 3.84493C23.1415 4.06822 22.9097 4.19815 22.6878 4.13864Z" fill="white"/>
<path d="M16.981 6.45446C16.9204 6.48503 16.8562 6.49922 16.7929 6.49922C16.6395 6.49922 16.4915 6.4146 16.4181 6.2683C15.7223 4.88437 14.1572 3.96394 12.6089 4.01362C12.3851 4.00652 12.1831 3.84056 12.1746 3.60963C12.1662 3.37816 12.3471 3.18381 12.5783 3.17562C14.4667 3.10192 16.316 4.19814 17.1671 5.89161C17.2711 6.09851 17.1879 6.35073 16.981 6.45446Z" fill="white"/>
<path d="M23.4977 28.4205C23.5608 28.6438 23.4311 28.8753 23.2081 28.938C22.9862 29.0019 22.7536 28.8714 22.6909 28.6487C21.4126 24.1202 17.1069 22.202 13.7901 25.7493C12.8691 26.7336 12.1853 27.9488 11.5245 29.1242C11.4475 29.2607 11.305 29.3377 11.1587 29.3377C10.8421 29.3377 10.6352 28.994 10.7935 28.7126C11.4789 27.4946 12.1875 26.2346 13.1775 25.1761C16.9081 21.1893 22.02 23.1847 23.4977 28.4205Z" fill="white"/>
<path d="M3.42895 0.65516C3.29875 0.463539 3.34842 0.202586 3.54005 0.0726555C3.73085 -0.057821 3.99235 -0.00759576 4.12228 0.183479C4.27104 0.402395 4.43809 0.665532 4.61607 0.94723C5.83142 2.86481 6.02513 2.88754 6.12173 3.01138C6.38718 3.27683 6.19479 3.72709 5.8253 3.72709C5.59275 3.72709 5.49173 3.55376 5.43578 3.5109C4.92288 2.99828 4.3835 2.14663 3.90773 1.39544C3.73494 1.12302 3.57307 0.866979 3.42895 0.65516Z" fill="white"/>
<path d="M4.33405 5.2179C4.22077 5.2179 4.10749 5.17204 4.02478 5.08197C3.31781 4.31003 2.50328 3.64618 1.6036 3.10844C1.40488 2.98997 1.33991 2.7323 1.45865 2.53358C1.57766 2.33486 1.83534 2.2699 2.03379 2.38891C3.00308 2.96814 3.8812 3.6833 4.64332 4.51529C4.89075 4.78561 4.69482 5.2179 4.33405 5.2179Z" fill="white"/>
<path d="M3.0075 7.19096L0.866651 6.62429C0.642821 6.56533 0.509342 6.33604 0.568575 6.11221C0.627535 5.88838 0.856006 5.75408 1.0812 5.81413L3.22205 6.38081C3.44588 6.43977 3.57936 6.6696 3.52013 6.89343C3.46014 7.12022 3.22616 7.2506 3.0075 7.19096Z" fill="white"/>
</svg>
