<svg width="103" height="103" viewBox="0 0 103 103" fill="none" xmlns="http://www.w3.org/2000/svg">
<mask id="mask0_11_158" style="mask-type:alpha" maskUnits="userSpaceOnUse" x="0" y="0" width="103" height="103">
<rect width="103" height="103" fill="#D9D9D9"/>
</mask>
<g mask="url(#mask0_11_158)">
<path d="M58.3381 91.7382H44.697C43.7453 91.7382 43.1108 91.1037 43.1108 90.152V70.1662C43.1108 69.6903 43.428 69.2145 43.7453 68.8973C44.2211 68.58 44.697 68.58 45.1728 68.7386C45.8073 68.8973 46.4418 69.0559 46.9176 68.8973C48.1866 68.58 49.4555 67.3111 49.7727 66.2008C49.9314 65.2491 49.7727 64.1387 48.9797 63.187C48.3452 62.394 47.3935 61.9181 46.2832 61.9181C45.9659 61.9181 45.4901 62.0767 45.0142 62.0767C44.5384 62.2353 44.0625 62.2353 43.5867 61.9181C43.1108 61.6009 43.2694 61.2836 43.2694 60.8078V48.9115C43.2694 47.9598 43.9039 47.3253 44.8556 47.3253H54.6899V47.1667C54.6899 45.1046 55.6416 43.2012 57.2278 41.9323C58.8139 40.6634 60.876 40.1875 62.7794 40.5047C65.4759 41.1392 67.3793 43.3599 67.8551 45.8977C67.8551 46.3736 68.0137 46.8494 67.8551 47.3253H76.8963C77.848 47.3253 78.4825 47.9598 78.4825 48.9115C78.4825 58.2699 74.5171 67.4697 67.5379 73.973C62.938 78.2557 60.2415 84.1245 59.9243 90.152C59.9243 91.1037 59.1312 91.7382 58.3381 91.7382ZM46.2832 88.5658H56.9105C57.545 82.2211 60.5587 76.1937 65.3173 71.7524C71.1861 66.0421 74.8343 58.4285 75.3101 50.4976H65.9517C65.4759 50.4976 65 50.1804 64.6828 49.8632C64.3655 49.3873 64.3655 48.9115 64.5242 48.4356C64.8414 47.8011 64.8414 47.1667 64.6828 46.5322C64.5242 45.1047 63.4138 43.9943 61.9863 43.6771C61.0346 43.5185 59.9243 43.6771 59.1312 44.4702C58.3381 45.1047 57.8622 46.215 57.8622 47.3253C57.8622 47.6425 58.0208 48.1184 58.0208 48.5942C58.1795 49.0701 58.1795 49.5459 57.8622 50.0218C57.545 50.4976 57.0691 50.6563 56.5933 50.6563H46.4418V59.063C48.5038 59.063 50.4072 59.8561 51.6762 61.4422C52.9451 63.0284 53.4209 65.0904 53.1037 67.1525C52.4692 69.5317 50.2486 71.5938 47.8693 72.2282H47.7107C47.2349 72.3868 46.759 72.3868 46.2832 72.2282V88.5658Z" fill="white"/>
<path d="M28.2008 57.1596C24.394 57.1596 21.5389 54.3045 21.5389 50.4976V50.339H12.6563C11.7046 50.339 11.0701 49.7045 11.0701 48.7528C11.0701 29.8774 26.1388 14.4915 44.697 14.4915C45.6487 14.4915 46.2832 15.126 46.2832 16.0777V27.1809C46.2832 27.6567 45.9659 28.1326 45.6487 28.4498C45.1728 28.7671 44.697 28.7671 44.2211 28.6084C43.7453 28.6084 43.2694 28.4498 42.9522 28.4498C41.0488 28.4498 39.4626 30.036 39.4626 31.9394C39.4626 34.0014 40.8902 35.429 42.9522 35.429C43.2694 35.429 43.7453 35.2704 44.2211 35.2704C44.697 35.1117 45.1728 35.1117 45.6487 35.429C46.1245 35.7462 46.2832 36.2221 46.2832 36.6979V48.7528C46.2832 49.7045 45.6487 50.339 44.697 50.339H34.8627V50.4976C34.8627 54.3045 32.0076 57.1596 28.2008 57.1596ZM14.2425 47.1667H23.4423C23.9181 47.1667 24.394 47.4839 24.7112 47.8011C25.0284 48.277 25.0284 48.7528 24.8698 49.2287C24.7112 49.7045 24.7112 50.1804 24.7112 50.4976C24.7112 52.5597 26.1388 53.9872 28.2008 53.9872C30.2628 53.9872 31.6904 52.5597 31.6904 50.4976C31.6904 50.1804 31.5317 49.7045 31.5317 49.2287C31.3731 48.7528 31.3731 48.277 31.6904 47.8011C32.0076 47.3253 32.4835 47.1667 32.9593 47.1667H43.1108V38.6013C39.304 38.7599 36.2903 35.7462 36.2903 31.9394C36.2903 28.2912 39.304 25.1189 43.1108 25.2775V17.6638C27.5663 18.4569 15.0355 31.3049 14.2425 47.1667Z" fill="white"/>
<path d="M89.5857 37.3324H78.7997C78.3239 37.3324 77.848 37.0152 77.5308 36.6979C77.2136 36.2221 77.2136 35.7462 77.3722 35.2704C77.5308 34.7945 77.5308 34.3187 77.5308 34.0014C77.5308 31.9394 76.1032 30.5118 74.0412 30.5118C72.1378 30.5118 70.5516 32.098 70.5516 34.0014C70.5516 34.3187 70.7102 34.7945 70.7102 35.2704C70.8689 35.7462 70.8689 36.2221 70.5516 36.6979C70.2344 37.1738 69.7585 37.3324 69.2827 37.3324H57.545C56.5933 37.3324 55.9588 36.6979 55.9588 35.7462V25.7533H55.8002C52.152 25.7533 49.1383 22.7396 49.1383 19.0914C49.1383 15.2846 52.152 12.2708 55.9588 12.4295V3.07104C55.9588 2.11933 56.5933 1.48486 57.545 1.48486C76.1032 1.48486 91.1719 16.8708 91.1719 35.7462C91.1719 36.6979 90.5374 37.3324 89.5857 37.3324ZM80.7031 34.16H87.9995C87.2065 18.2983 74.6757 5.4503 59.1312 4.65721V14.3329C59.1312 14.8087 58.8139 15.2846 58.4967 15.6018C58.0209 15.919 57.545 15.919 57.0692 15.7604C56.5933 15.6018 56.1174 15.6018 55.8002 15.6018C53.7382 15.6018 52.3106 17.0294 52.3106 19.0914C52.3106 20.9948 53.8968 22.581 55.8002 22.581C56.1174 22.581 56.5933 22.4224 57.0692 22.4224C57.545 22.2637 58.0209 22.2637 58.4967 22.581C58.9726 22.8982 59.1312 23.3741 59.1312 23.8499V34.16H67.3793V34.0014C67.3793 30.3532 70.393 27.3395 74.0412 27.3395C77.848 27.3395 80.7031 30.1946 80.7031 34.0014V34.16Z" fill="white"/>
<path d="M44.697 91.5795H31.0559C30.2628 91.5795 29.4697 90.9451 29.4697 89.9934C29.1525 83.8073 26.456 77.9384 21.8561 73.8144C15.0355 67.4697 11.0701 58.2699 11.0701 48.7528C11.0701 47.8011 11.7046 47.1667 12.6563 47.1667H23.6009C24.0767 47.1667 24.5526 47.4839 24.8698 47.8011C25.1871 48.1184 25.1871 48.7528 25.0284 49.2287C24.7112 49.8632 24.7112 50.4976 24.8698 51.1321C25.0284 52.5597 26.1388 53.67 27.5663 53.9872C28.518 54.1458 29.6283 53.9872 30.4214 53.1941C31.2145 52.5597 31.6904 51.4493 31.6904 50.4976C31.6904 50.1804 31.5318 49.7046 31.5318 49.2287C31.3731 48.7528 31.3731 48.277 31.6904 47.8011C32.0076 47.3253 32.4835 47.1667 32.9593 47.1667H44.697C45.6487 47.1667 46.2832 47.8011 46.2832 48.7528V58.7457C48.3452 58.7457 50.2486 59.5388 51.5175 61.125C52.7865 62.7112 53.2623 64.7732 52.9451 66.8352C52.4692 69.3731 50.4072 71.5938 47.7107 72.0696C47.2349 72.2282 46.759 72.2282 46.2832 72.0696V89.9934C46.2832 90.9451 45.6487 91.5795 44.697 91.5795ZM32.4835 88.4072H43.1108V70.1662C43.1108 69.6903 43.4281 69.2145 43.7453 68.8973C44.2211 68.58 44.697 68.58 45.1728 68.7386C45.8073 69.0559 46.4418 69.0559 47.0763 68.8973C48.3452 68.7386 49.6141 67.4697 49.7727 66.2008C49.9314 64.9318 49.7728 63.8215 48.9797 63.0284C48.3452 62.2353 47.3935 61.7595 46.2832 61.7595C45.9659 61.7595 45.4901 61.9181 45.0142 61.9181C44.5384 62.0767 44.0625 61.9181 43.5867 61.7595C43.1108 61.4422 42.9522 60.9664 42.9522 60.4905V50.1804H34.7041V50.339C34.7041 52.401 33.7524 54.3045 32.3248 55.5734C30.7387 56.8423 28.6766 57.3182 26.7732 57.001C24.0767 56.3665 22.1733 54.1458 21.6975 51.608C21.6975 51.1321 21.5389 50.6563 21.6975 50.1804H14.2425C14.7183 58.2699 18.2079 66.0421 24.0767 71.4351C28.8353 75.8764 31.849 81.9039 32.4835 88.4072Z" fill="white"/>
<path d="M55.6416 103H33.4352C31.0559 103 29.3111 101.255 29.3111 98.876V89.9934C29.3111 89.0417 29.9456 88.4072 30.8973 88.4072C31.849 88.4072 32.4835 89.0417 32.4835 89.9934V98.876C32.4835 99.3518 32.9593 99.8277 33.4352 99.8277H55.6416C56.1175 99.8277 56.5933 99.3518 56.5933 98.876V89.9934C56.5933 89.0417 57.2278 88.4072 58.1795 88.4072C59.1312 88.4072 59.7657 89.0417 59.7657 89.9934V98.876C59.7657 101.255 58.0209 103 55.6416 103Z" fill="white"/>
<path d="M50.8831 97.2898H38.035C37.0833 97.2898 36.4489 96.6553 36.4489 95.7036C36.4489 94.7519 37.0833 94.1174 38.035 94.1174H50.8831C51.8348 94.1174 52.4692 94.7519 52.4692 95.7036C52.4692 96.6553 51.8348 97.2898 50.8831 97.2898Z" fill="white"/>
</g>
</svg>
