<svg width="36" height="36" viewBox="0 0 36 36" fill="none" xmlns="http://www.w3.org/2000/svg">
<path d="M34.8611 32.536C31.4945 32.4665 28.7509 32.5558 25.9932 32.9302C32.8981 29.1653 36.111 20.9834 34.5836 13.6844C34.6002 12.1725 34.1005 10.7751 33.2013 9.63747C30.1314 3.35547 24.1473 0.116598 18.0944 0.00309122C12.4008 -0.103677 6.64634 2.55487 3.19924 8.04719C-4.73074 19.0101 2.68948 34.8713 18.7483 35.8337C24.3332 36.1684 27.8754 36.1311 34.58 34.4406C35.7094 34.1557 36.052 33.2056 35.5884 32.7721C35.3986 32.5947 35.1209 32.5413 34.8611 32.536ZM32.5291 10.137C35.43 13.7751 32.8362 19.1949 28.164 19.1949C25.0845 19.1949 22.5796 16.69 22.5796 13.6105C22.5796 10.531 25.0845 8.02606 28.164 8.02606C31.0239 8.02606 32.473 10.0915 32.5291 10.137ZM31.2846 8.00093C27.0271 5.6228 21.7406 8.7148 21.7406 13.6105C21.7406 17.1521 24.6224 20.0339 28.164 20.0339C30.8083 20.0339 33.0835 18.4265 34.0672 16.1383C34.6644 25.4633 27.2876 33.5273 17.7489 33.5273V33.9468L17.667 33.5273C15.5379 33.5164 13.4552 33.0953 11.4779 32.2765C0.749142 27.7859 -1.98115 13.9284 6.09833 5.72107C6.10215 5.71724 6.10598 5.71342 6.10925 5.7096C9.40861 2.35305 13.775 0.747854 18.0943 0.834322C23.152 0.935574 28.1451 3.3564 31.2846 8.00093Z" fill="white"/>
<path d="M13.3423 20.2212C16.8839 20.2212 19.7657 17.3394 19.7657 13.7978C19.7657 10.2562 16.8839 7.375 13.3423 7.375C9.80073 7.375 6.91895 10.2562 6.91895 13.7978C6.91895 17.3394 9.80073 20.2212 13.3423 20.2212ZM13.3423 8.21397C16.4218 8.21397 18.9267 10.7189 18.9267 13.7978C18.9267 16.8774 16.4218 19.3823 13.3423 19.3823C10.2628 19.3823 7.75792 16.8774 7.75792 13.7978C7.75792 10.7189 10.2628 8.21397 13.3423 8.21397Z" fill="white"/>
<path d="M9.70818 17.0416C9.61745 17.3795 9.95539 17.6706 10.2735 17.5387L12.9068 16.4534C15.397 18.046 15.299 18.0756 15.5231 18.0756C15.7698 18.0756 15.9597 17.8656 15.9415 17.6239L15.723 14.7842L17.939 12.9937C18.2082 12.7766 18.1111 12.3409 17.774 12.2601L15.0053 11.59L13.9872 8.92938C13.8627 8.6026 13.4186 8.56609 13.2383 8.85946L11.7455 11.2857L8.90143 11.431C8.5553 11.4488 8.37821 11.8565 8.6032 12.122L10.4488 14.2909L9.70818 17.0416Z" fill="white"/>
<path d="M24.1691 11.2203C24.0096 11.2285 23.8687 11.3262 23.8053 11.4732C23.742 11.6195 23.7677 11.7894 23.8709 11.9112L25.7165 14.0802L24.9764 16.8304C24.8862 17.1665 25.2213 17.4598 25.5417 17.3274L28.1745 16.2426C30.6649 17.8349 30.5667 17.8643 30.7908 17.8643C31.0375 17.8643 31.2274 17.6543 31.2092 17.4126L30.9907 14.5729L33.2067 12.7824C33.4759 12.5654 33.3788 12.1296 33.0417 12.0489L30.273 11.3787L29.2549 8.71865C29.129 8.38841 28.6833 8.35899 28.506 8.64873L27.0132 11.0744L24.1691 11.2203Z" fill="white"/>
<path d="M14.1883 26.6757C11.4223 25.7919 9.2014 23.4383 8.39138 20.5336C8.26646 20.0856 7.61601 20.1453 7.56988 20.604C6.90545 27.1722 11.7277 31.8841 16.7183 31.065C19.1658 30.6646 21.5364 28.7835 22.7588 26.272C22.9349 25.9075 22.5427 25.5302 22.188 25.716C19.4821 27.1192 16.6396 27.4606 14.1883 26.6757ZM8.4023 22.7938C10.8357 27.3271 15.973 29.1917 21.3452 27.0263C17.1217 33.0925 9.14006 30.2364 8.4023 22.7938Z" fill="white"/>
<path d="M29.4682 0.634176C29.3196 1.23937 29.0766 1.81398 28.7461 2.34216C28.4499 2.8148 29.1671 3.24979 29.4573 2.78678C29.8352 2.18322 30.1127 1.52613 30.2831 0.83518C30.3383 0.610143 30.2007 0.382921 29.9762 0.327208C29.7511 0.272587 29.5234 0.409139 29.4682 0.634176Z" fill="white"/>
<path d="M32.3975 1.35081C31.865 2.19852 31.2729 3.02275 30.6371 3.80164C30.2857 4.23308 30.9369 4.76106 31.2871 4.33255C31.9447 3.52635 32.557 2.67372 33.1076 1.79761C33.4029 1.32716 32.6939 0.881341 32.3975 1.35081Z" fill="white"/>
<path d="M32.7275 6.69546C33.7844 6.2279 34.7632 5.60577 35.6355 4.84655C36.0552 4.48193 35.5013 3.8487 35.0849 4.21404C34.276 4.9181 33.3682 5.4949 32.3878 5.92858C31.8803 6.15224 32.2204 6.92141 32.7275 6.69546Z" fill="white"/>
</svg>
