<?xml version="1.0" encoding="UTF-8"?>
<svg id="Layer_1" data-name="Layer 1" xmlns="http://www.w3.org/2000/svg" xmlns:xlink="http://www.w3.org/1999/xlink" viewBox="0 0 125.66 27.45">
  <defs>
    <style>
      .cls-1 {
        fill: url(#linear-gradient-2);
      }

      .cls-2 {
        fill: #f9f9f9;
      }

      .cls-3 {
        fill: url(#linear-gradient-3);
      }

      .cls-4 {
        fill: url(#linear-gradient);
      }
    </style>
    <linearGradient id="linear-gradient" x1="1.1" y1="-2.93" x2="30.66" y2="26.63" gradientUnits="userSpaceOnUse">
      <stop offset="0" stop-color="#9ddb3f"/>
      <stop offset="1" stop-color="#7abf0d"/>
    </linearGradient>
    <linearGradient id="linear-gradient-2" x1="-2.73" y1=".91" x2="26.82" y2="30.47" gradientUnits="userSpaceOnUse">
      <stop offset="0" stop-color="#a9eb45"/>
      <stop offset="1" stop-color="#7abf0d"/>
    </linearGradient>
    <linearGradient id="linear-gradient-3" x1="-.82" y1="-1.01" x2="28.74" y2="28.55" xlink:href="#linear-gradient-2"/>
  </defs>
  <path class="cls-4" d="M27.84,8.79v9.48c0,5.07-4.11,9.18-9.18,9.18h-5.48c-.69,0-1.24-.56-1.24-1.24v-1.49c0-.69,.56-1.24,1.24-1.24h5.51c2.86,0,5.18-2.32,5.18-5.18V8.76c0-2.16-1.32-4-3.19-4.78-.47-.2-.79-.65-.79-1.16V1.24c0-.84,.82-1.44,1.63-1.18,3.67,1.2,6.33,4.65,6.33,8.73Z"/>
  <path class="cls-1" d="M15.9,1.24v1.49c0,.69-.56,1.24-1.24,1.24h-5.51c-2.86,0-5.17,2.32-5.17,5.18v9.53c0,2.15,1.32,4,3.19,4.78,.47,.2,.79,.65,.79,1.16v1.58c0,.84-.82,1.44-1.63,1.18-3.67-1.2-6.33-4.65-6.33-8.73V9.18C0,4.11,4.11,0,9.18,0h5.48c.69,0,1.24,.56,1.24,1.24Z"/>
  <path class="cls-2" d="M76.54,3.82h-6.68c-3.57,0-6.47,2.9-6.47,6.47v6.86c0,3.57,2.9,6.47,6.47,6.47h6.68c3.57,0,6.47-2.9,6.47-6.47v-6.86c0-3.57-2.9-6.47-6.47-6.47Zm3.67,13.35c0,2.02-1.63,3.65-3.65,3.65h-6.72c-2.01,0-3.65-1.63-3.65-3.65v-6.9c0-2.02,1.63-3.65,3.65-3.65h6.72c2.02,0,3.65,1.63,3.65,3.65v6.9Z"/>
  <path class="cls-2" d="M59.4,10.51v12.16c0,.41-.33,.75-.75,.75h-1.31c-.41,0-.75-.33-.75-.75V10.49c0-2.02-1.63-3.65-3.65-3.65h-6.72c-2.01,0-3.65,1.63-3.65,3.65v12.18c0,.41-.33,.75-.75,.75h-1.31c-.41,0-.75-.33-.75-.75V10.51c0-3.58,2.9-6.47,6.47-6.47h6.69c3.57,0,6.47,2.9,6.47,6.47Z"/>
  <path class="cls-3" d="M19.84,18.59l-1.06,1.06c-.48,.49-1.27,.49-1.76,0L7.99,10.61c-.48-.49-.48-1.27,0-1.76l1.06-1.06c.48-.49,1.27-.49,1.76,0l9.04,9.04c.48,.49,.48,1.27,0,1.76Z"/>
  <path class="cls-2" d="M125.66,5.01v13.53c0,1.91-1.09,3.54-2.85,4.27-1.76,.73-3.69,.35-5.04-1l-10.73-10.72s0,0,0,0l-2.38-2.38c-.29-.29-.29-.77,0-1.06l.93-.93c.29-.29,.76-.29,1.06,0l.46,.46s0,0,0,0l12.65,12.65c.8,.8,1.72,.5,1.98,.39,.26-.11,1.13-.55,1.13-1.68V8.39h0v-3.37c0-.41,.34-.75,.75-.75h1.31c.41,0,.75,.33,.75,.75Z"/>
  <path class="cls-2" d="M108,19.8l-.93,.93c-.29,.29-.76,.29-1.05,0l-.47-.47-12.65-12.65c-.8-.8-1.72-.5-1.98-.39s-1.12,.55-1.12,1.68v13.53c0,.41-.34,.75-.75,.75h-1.31c-.41,0-.75-.33-.75-.75V8.91c0-1.91,1.09-3.54,2.85-4.27,1.76-.73,3.69-.35,5.04,1l10.73,10.73s0,0,0,0l2.38,2.38c.29,.29,.29,.76,0,1.06Z"/>
</svg>